<?xml version="1.0" encoding="utf-8"?>
<!-- Generator: Adobe Illustrator 21.1.0, SVG Export Plug-In . SVG Version: 6.00 Build 0)  -->
<svg version="1.1" id="Layer_1" xmlns="http://www.w3.org/2000/svg" xmlns:xlink="http://www.w3.org/1999/xlink" x="0px" y="0px"
	 viewBox="0 0 1013.4 117.2" style="enable-background:new 0 0 1013.4 117.2;" xml:space="preserve">
<style type="text/css">
	.st0{fill:none;stroke:#231F20;stroke-miterlimit:10;}
	.st1{enable-background:new    ;}
</style>
<title>annotation-5</title>
<line class="st0" x1="1013.4" y1="22.2" x2="0.5" y2="22.2"/>
<line class="st0" x1="0.5" y1="22.2" x2="0.5" y2="117.2"/>
<g class="st1">
	<path d="M59.2,10.6c0-1.3-0.9-2-2.6-2h-2.9l0.5-5.2h5.9v1.2h-4.6l-0.3,3.1c0.6-0.1,1.2-0.2,1.7-0.2c1.2,0,2.1,0.3,2.8,0.8
		c0.7,0.5,1,1.3,1,2.3c0,1-0.4,1.9-1.1,2.6c-0.7,0.7-1.6,1-2.7,1s-2-0.3-2.7-0.8c-0.7-0.6-1.1-1.3-1.1-2.3h1.3
		c0,0.9,0.5,1.5,1.4,1.8c0.3,0.1,0.6,0.1,1,0.1c0.7,0,1.3-0.2,1.8-0.7C59,11.8,59.2,11.3,59.2,10.6z"/>
	<path d="M63.1,14.2c-0.3,0-0.5-0.1-0.7-0.3c-0.2-0.2-0.3-0.4-0.3-0.7c0-0.3,0.1-0.5,0.3-0.7c0.2-0.2,0.4-0.3,0.7-0.3
		s0.5,0.1,0.7,0.3c0.2,0.2,0.3,0.4,0.3,0.7c0,0.3-0.1,0.5-0.3,0.7C63.6,14.1,63.3,14.2,63.1,14.2z"/>
	<path d="M77.8,6.4c0,0.9-0.2,1.6-0.7,2.1S75.9,9.4,75,9.6l3.1,4.4h-1.7l-2.8-4.4h-1.9V14h-1.3V3.3h3.7c1.2,0,2.1,0.3,2.8,0.9
		C77.5,4.8,77.8,5.5,77.8,6.4z M74,8.7c0.8,0,1.4-0.2,1.8-0.6c0.4-0.4,0.6-0.9,0.6-1.5s-0.2-1.2-0.6-1.5c-0.4-0.4-1-0.6-1.7-0.6
		h-2.4v4.2H74z"/>
	<path d="M83.6,13.1c1.1,0,1.8-0.5,1.9-1.5h1.4c-0.1,0.8-0.5,1.4-1.1,1.9c-0.6,0.4-1.3,0.7-2.2,0.7c-1.1,0-2-0.4-2.7-1.2
		c-0.7-0.8-1-1.8-1-3.1s0.3-2.3,1-3.1s1.6-1.2,2.7-1.2c1.1,0,2,0.4,2.5,1.3s0.8,2,0.6,3.2h-5.6c0,0.8,0.2,1.5,0.6,2.1
		C82.3,12.9,82.8,13.1,83.6,13.1z M84.6,7c-0.3-0.1-0.6-0.2-1-0.2c-0.7,0-1.2,0.2-1.6,0.7c-0.4,0.5-0.6,1.1-0.7,1.8h4.3
		C85.6,8.1,85.3,7.3,84.6,7z"/>
	<path d="M89.9,13.8c-0.7-0.3-1-0.8-1-1.5c0-0.4,0.1-0.7,0.4-0.9c0.3-0.3,0.6-0.4,1-0.5c-0.6-0.5-0.9-1.3-0.9-2.1s0.3-1.6,0.9-2.1
		s1.4-0.8,2.2-0.8s1.6,0.2,2.2,0.6c0.1-0.6,0.3-1.1,0.7-1.4c0.4-0.4,0.9-0.5,1.6-0.5l-0.1,1.3c-1,0-1.5,0.4-1.6,1.3
		c0.4,0.5,0.6,1.1,0.6,1.8c0,0.9-0.3,1.6-0.9,2.2c-0.6,0.6-1.4,0.8-2.4,0.8c-0.6,0-1.2-0.1-1.7-0.4c-0.2,0-0.4,0.2-0.6,0.3
		C90.1,11.7,90,12,90,12.2c0,0.6,0.5,0.9,1.5,0.9h3.2c0.8,0,1.4,0.2,1.8,0.5s0.7,0.8,0.7,1.4c0,0.9-0.4,1.6-1.3,2.3
		c-0.9,0.6-2,1-3.3,1c-1.3,0-2.4-0.2-3.1-0.7c-0.8-0.5-1.1-1.1-1.1-1.9c0-0.5,0.1-0.9,0.4-1.2C89,14.1,89.4,13.9,89.9,13.8z
		 M89.6,15.6c0,0.4,0.2,0.8,0.7,1.1s1.2,0.5,2.1,0.5s1.8-0.2,2.4-0.6s1-0.9,1-1.5c0-0.3-0.1-0.5-0.3-0.7c-0.2-0.2-0.5-0.3-0.9-0.3
		h-3.3c-0.6,0-1,0.2-1.3,0.4C89.8,14.8,89.6,15.1,89.6,15.6z M94.6,8.6c0-0.6-0.2-1.1-0.5-1.4c-0.4-0.4-0.8-0.6-1.5-0.6
		s-1.1,0.2-1.5,0.6c-0.4,0.4-0.5,0.8-0.5,1.4c0,0.6,0.2,1.1,0.5,1.5c0.4,0.4,0.8,0.6,1.5,0.6c0.6,0,1.1-0.2,1.4-0.6
		C94.4,9.7,94.6,9.2,94.6,8.6z"/>
	<path d="M99.9,4c-0.3,0-0.5-0.1-0.6-0.2C99.1,3.6,99,3.4,99,3.1s0.1-0.5,0.2-0.6c0.2-0.2,0.4-0.2,0.6-0.2s0.5,0.1,0.7,0.2
		c0.2,0.2,0.2,0.4,0.2,0.6s-0.1,0.5-0.2,0.6C100.4,3.9,100.2,4,99.9,4z M99.2,5.9h1.3V14h-1.3V5.9z"/>
	<path d="M107.1,5.7c1.1,0,2,0.4,2.7,1.1c0.7,0.7,1,1.8,1,3.2c0,1.4-0.3,2.4-1,3.1c-0.7,0.7-1.6,1.1-2.7,1.1c-1.1,0-2-0.4-2.7-1.1
		s-1-1.8-1-3.1c0-1.4,0.3-2.4,1-3.2C105.1,6.1,106,5.7,107.1,5.7z M109.6,9.9c0-1-0.2-1.7-0.6-2.3s-1-0.8-1.8-0.8
		c-0.8,0-1.4,0.3-1.8,0.8s-0.6,1.3-0.6,2.3s0.2,1.7,0.6,2.3c0.4,0.5,1,0.8,1.8,0.8c0.8,0,1.4-0.3,1.8-0.8
		C109.4,11.7,109.6,10.9,109.6,9.9z"/>
	<path d="M114.8,7.5c0.5-1.2,1.4-1.8,2.7-1.8c1,0,1.7,0.3,2.3,1c0.5,0.6,0.8,1.5,0.8,2.6V14h-1.3V9.2c0-0.8-0.2-1.4-0.6-1.8
		c-0.4-0.4-0.9-0.6-1.6-0.6s-1.2,0.3-1.6,0.8c-0.4,0.6-0.6,1.3-0.7,2.3v4h-1.3V5.9h1.2L114.8,7.5z"/>
	<path d="M128.8,8.8c0-0.7-0.2-1.3-0.5-1.6s-0.8-0.5-1.3-0.5c-0.6,0-1.1,0.1-1.4,0.3S125,7.6,125,8.1h-1.5c0-1.2,0.7-2,2-2.3
		c0.4-0.1,0.9-0.1,1.3-0.1c1,0,1.8,0.3,2.4,0.8c0.6,0.5,0.9,1.3,0.9,2.3V14H129l-0.1-1.4c-0.5,1-1.4,1.5-2.7,1.5
		c-0.9,0-1.6-0.2-2.1-0.7s-0.8-1.1-0.8-1.8c0-0.7,0.3-1.3,0.9-1.7c0.6-0.4,1.3-0.6,2.2-0.6c0.9,0,1.7,0.1,2.5,0.4V8.8z M128.8,10.6
		c-0.8-0.2-1.5-0.3-2.1-0.3c-0.6,0-1.1,0.1-1.5,0.3c-0.4,0.2-0.6,0.6-0.6,1c0,1,0.6,1.5,1.7,1.5c0.7,0,1.2-0.2,1.7-0.7
		C128.6,12,128.8,11.4,128.8,10.6z"/>
	<path d="M133.3,2.4h1.3V14h-1.3V2.4z"/>
	<path d="M145.2,3.3c1.6,0,2.9,0.5,3.9,1.5c1,1,1.5,2.3,1.5,3.9c0,1.6-0.5,2.9-1.5,3.9c-1,1-2.3,1.5-3.9,1.5h-3.1V3.3H145.2z
		 M143.4,12.8h1.8c1.2,0,2.1-0.4,2.8-1.2c0.7-0.8,1.1-1.8,1.1-3c0-1.2-0.4-2.2-1.1-3c-0.7-0.8-1.7-1.2-2.8-1.2h-1.8V12.8z"/>
	<path d="M158.4,8.8c0-0.7-0.2-1.3-0.5-1.6s-0.8-0.5-1.3-0.5c-0.6,0-1.1,0.1-1.4,0.3s-0.5,0.6-0.5,1.1h-1.5c0-1.2,0.7-2,2-2.3
		c0.4-0.1,0.9-0.1,1.3-0.1c1,0,1.8,0.3,2.4,0.8c0.6,0.5,0.9,1.3,0.9,2.3V14h-1.2l-0.1-1.4c-0.5,1-1.4,1.5-2.7,1.5
		c-0.9,0-1.6-0.2-2.1-0.7s-0.8-1.1-0.8-1.8c0-0.7,0.3-1.3,0.9-1.7c0.6-0.4,1.3-0.6,2.2-0.6c0.9,0,1.7,0.1,2.5,0.4V8.8z M158.4,10.6
		c-0.8-0.2-1.5-0.3-2.1-0.3c-0.6,0-1.1,0.1-1.5,0.3c-0.4,0.2-0.6,0.6-0.6,1c0,1,0.6,1.5,1.7,1.5c0.7,0,1.2-0.2,1.7-0.7
		C158.1,12,158.4,11.4,158.4,10.6z"/>
	<path d="M163.3,6.3c0.6-0.4,1.3-0.6,2.3-0.6c1,0,1.7,0.2,2.3,0.6s0.8,0.9,0.9,1.5h-1.3c-0.1-0.7-0.7-1.1-1.9-1.1
		c-0.6,0-1,0.1-1.3,0.4c-0.3,0.2-0.5,0.5-0.5,0.8s0.1,0.5,0.3,0.7c0.2,0.2,0.6,0.4,1.1,0.5l1.6,0.5c0.7,0.2,1.2,0.5,1.6,0.8
		c0.4,0.3,0.6,0.8,0.6,1.4c0,0.6-0.3,1.1-0.9,1.6c-0.6,0.5-1.4,0.7-2.5,0.7s-1.9-0.2-2.5-0.7c-0.6-0.5-0.9-1.1-1-1.9h1.3
		c0,0.5,0.2,0.9,0.6,1.1c0.4,0.3,0.9,0.4,1.5,0.4s1.1-0.1,1.5-0.4c0.4-0.2,0.6-0.5,0.6-0.9s-0.1-0.6-0.3-0.8
		c-0.2-0.2-0.6-0.3-1.1-0.5l-1.6-0.5c-1.4-0.4-2.1-1.2-2.1-2.2C162.4,7.2,162.7,6.7,163.3,6.3z"/>
	<path d="M173.1,7.4c0.5-1.1,1.4-1.7,2.7-1.7c1,0,1.7,0.3,2.3,1c0.5,0.6,0.8,1.5,0.8,2.6V14h-1.3V9.2c0-0.8-0.2-1.4-0.6-1.8
		s-0.9-0.6-1.6-0.6s-1.2,0.3-1.7,0.9c-0.4,0.6-0.6,1.4-0.6,2.4V14h-1.3V2.4h1.3V7.4z"/>
	<path d="M183.4,7.1c0.5-0.9,1.3-1.4,2.4-1.4c1,0,1.9,0.4,2.6,1.2c0.7,0.8,1,1.8,1,3.1c0,1.3-0.4,2.3-1.1,3.1
		c-0.7,0.8-1.6,1.2-2.6,1.2c-0.5,0-1-0.1-1.5-0.4c-0.4-0.3-0.8-0.7-1-1.2L183,14H182V2.4h1.3V7.1z M185.7,6.9
		c-0.6,0-1.2,0.2-1.6,0.6c-0.4,0.4-0.7,1-0.7,1.7v1.3c0,0.7,0.2,1.3,0.7,1.8c0.4,0.4,1,0.7,1.6,0.7s1.2-0.3,1.6-0.8
		c0.5-0.6,0.7-1.3,0.7-2.2c0-0.9-0.2-1.7-0.7-2.2C186.9,7.2,186.3,6.9,185.7,6.9z"/>
	<path d="M194.9,5.7c1.1,0,2,0.4,2.7,1.1c0.7,0.7,1,1.8,1,3.2c0,1.4-0.3,2.4-1,3.1c-0.7,0.7-1.6,1.1-2.7,1.1c-1.1,0-2-0.4-2.7-1.1
		s-1-1.8-1-3.1c0-1.4,0.3-2.4,1-3.2C192.9,6.1,193.8,5.7,194.9,5.7z M197.3,9.9c0-1-0.2-1.7-0.6-2.3s-1-0.8-1.8-0.8
		c-0.8,0-1.4,0.3-1.8,0.8s-0.6,1.3-0.6,2.3s0.2,1.7,0.6,2.3c0.4,0.5,1,0.8,1.8,0.8c0.8,0,1.4-0.3,1.8-0.8
		C197.1,11.7,197.3,10.9,197.3,9.9z"/>
	<path d="M206.3,8.8c0-0.7-0.2-1.3-0.5-1.6s-0.8-0.5-1.3-0.5c-0.6,0-1.1,0.1-1.4,0.3s-0.5,0.6-0.5,1.1h-1.5c0-1.2,0.7-2,2-2.3
		c0.4-0.1,0.9-0.1,1.3-0.1c1,0,1.8,0.3,2.4,0.8c0.6,0.5,0.9,1.3,0.9,2.3V14h-1.2l-0.1-1.4c-0.5,1-1.4,1.5-2.7,1.5
		c-0.9,0-1.6-0.2-2.1-0.7s-0.8-1.1-0.8-1.8c0-0.7,0.3-1.3,0.9-1.7c0.6-0.4,1.3-0.6,2.2-0.6c0.9,0,1.7,0.1,2.5,0.4V8.8z M206.3,10.6
		c-0.8-0.2-1.5-0.3-2.1-0.3c-0.6,0-1.1,0.1-1.5,0.3c-0.4,0.2-0.6,0.6-0.6,1c0,1,0.6,1.5,1.7,1.5c0.7,0,1.2-0.2,1.7-0.7
		C206.1,12,206.3,11.4,206.3,10.6z"/>
	<path d="M214.1,7c-1.3,0-1.9,1-2,3v4h-1.3V5.9h1.3v1.6c0.4-1.1,1.1-1.7,2.2-1.7c0.3,0,0.6,0.1,0.9,0.2l-0.1,1.3
		C214.8,7.1,214.4,7,214.1,7z"/>
	<path d="M222.6,7.1V2.4h1.3V14h-1.1l-0.2-1.4c-0.3,0.5-0.6,0.9-1,1.2s-0.9,0.4-1.4,0.4c-1,0-1.9-0.4-2.6-1.2c-0.7-0.8-1-1.8-1-3.1
		s0.3-2.3,1-3.1s1.6-1.2,2.6-1.2S222,6.2,222.6,7.1z M220.3,6.9c-0.7,0-1.2,0.3-1.7,0.8c-0.4,0.6-0.7,1.3-0.7,2.2
		c0,0.9,0.2,1.7,0.7,2.2c0.5,0.6,1,0.8,1.6,0.8s1.2-0.2,1.6-0.6s0.7-1,0.7-1.7V9.3c0-0.8-0.2-1.4-0.7-1.8
		C221.5,7.1,220.9,6.9,220.3,6.9z"/>
	<path d="M227.6,8.4c-0.3,0-0.5-0.1-0.7-0.3c-0.2-0.2-0.3-0.4-0.3-0.7c0-0.3,0.1-0.5,0.3-0.7c0.2-0.2,0.4-0.3,0.7-0.3
		c0.3,0,0.5,0.1,0.7,0.3c0.2,0.2,0.3,0.4,0.3,0.7c0,0.3-0.1,0.5-0.3,0.7C228.1,8.3,227.9,8.4,227.6,8.4z M227.6,13.6
		c-0.3,0-0.5-0.1-0.7-0.3c-0.2-0.2-0.3-0.4-0.3-0.7c0-0.3,0.1-0.5,0.3-0.7c0.2-0.2,0.4-0.3,0.7-0.3c0.3,0,0.5,0.1,0.7,0.3
		c0.2,0.2,0.3,0.4,0.3,0.7c0,0.3-0.1,0.5-0.3,0.7C228.1,13.5,227.9,13.6,227.6,13.6z"/>
</g>
<g class="st1">
	<path d="M238.1,3l3,6.6l3-6.6h2.8v11h-2V5.6l-3.1,7.2h-1.3l-3.2-7.4V14h-2V3H238.1z"/>
	<path d="M254.3,2.8c0.7,0,1.4,0.1,2,0.4c0.6,0.2,1.1,0.6,1.6,1.1c0.9,1,1.4,2.4,1.4,4.3c0,1.9-0.5,3.3-1.4,4.3
		c-0.9,1-2.1,1.4-3.6,1.4c-1.5,0-2.7-0.5-3.6-1.5c-0.9-1-1.4-2.4-1.4-4.3c0-1.9,0.5-3.3,1.4-4.3C251.5,3.2,252.7,2.8,254.3,2.8z
		 M257.2,8.5c0-1.3-0.3-2.2-0.8-2.9c-0.5-0.7-1.2-1-2.1-1c-0.9,0-1.6,0.3-2.1,1c-0.5,0.7-0.8,1.7-0.8,2.9s0.3,2.2,0.8,2.9
		c0.5,0.7,1.2,1,2.1,1c0.9,0,1.6-0.3,2.1-1C256.9,10.8,257.2,9.8,257.2,8.5z"/>
	<path d="M269.9,6.4c0,0.8-0.2,1.5-0.7,2c-0.4,0.6-1.1,0.9-1.9,1.2l3,4.5h-2.6l-2.4-4.3h-1.5V14h-2V3h4.1c1.3,0,2.3,0.3,3,0.9
		C269.5,4.5,269.9,5.3,269.9,6.4z M265.6,8.4c0.7,0,1.3-0.2,1.7-0.5s0.6-0.8,0.6-1.3s-0.2-1-0.5-1.3c-0.3-0.3-0.9-0.5-1.5-0.5h-2.1
		v3.7H265.6z"/>
	<path d="M272.6,3h7.1v1.7h-5.1v2.9h4.8v1.7h-4.8v2.9h5.1V14h-7.1V3z"/>
</g>
<g class="st1">
	<path d="M292.3,7.1V2.4h1.3V14h-1.1l-0.2-1.4c-0.3,0.5-0.6,0.9-1,1.2s-0.9,0.4-1.4,0.4c-1,0-1.9-0.4-2.6-1.2c-0.7-0.8-1-1.8-1-3.1
		s0.3-2.3,1-3.1s1.6-1.2,2.6-1.2S291.8,6.2,292.3,7.1z M290,6.9c-0.7,0-1.2,0.3-1.7,0.8c-0.4,0.6-0.7,1.3-0.7,2.2
		c0,0.9,0.2,1.7,0.7,2.2c0.5,0.6,1,0.8,1.6,0.8s1.2-0.2,1.6-0.6s0.7-1,0.7-1.7V9.3c0-0.8-0.2-1.4-0.7-1.8
		C291.2,7.1,290.7,6.9,290,6.9z"/>
	<path d="M299.9,13.1c1.1,0,1.8-0.5,1.9-1.5h1.4c-0.1,0.8-0.5,1.4-1.1,1.9c-0.6,0.4-1.3,0.7-2.2,0.7c-1.1,0-2-0.4-2.7-1.2
		c-0.7-0.8-1-1.8-1-3.1s0.3-2.3,1-3.1s1.6-1.2,2.7-1.2c1.1,0,2,0.4,2.5,1.3s0.8,2,0.6,3.2h-5.6c0,0.8,0.2,1.5,0.6,2.1
		C298.6,12.9,299.2,13.1,299.9,13.1z M300.9,7c-0.3-0.1-0.6-0.2-1-0.2c-0.7,0-1.2,0.2-1.6,0.7c-0.4,0.5-0.6,1.1-0.7,1.8h4.3
		C301.9,8.1,301.6,7.3,300.9,7z"/>
	<path d="M310.1,13.8c-1,0.5-1.9,0.5-2.7,0.3c-0.6-0.2-1-0.6-1.2-1.1c-0.1-0.3-0.2-0.6-0.2-1v-5h-1.3v-1h1.3V3.6h1.3v2.3h2.6v1h-2.6
		v5c0,0.8,0.4,1.2,1.2,1.2c0.4,0,0.9-0.1,1.4-0.3L310.1,13.8z"/>
	<path d="M317.3,8.8c0-0.7-0.2-1.3-0.5-1.6s-0.8-0.5-1.3-0.5c-0.6,0-1.1,0.1-1.4,0.3s-0.5,0.6-0.5,1.1h-1.5c0-1.2,0.7-2,2-2.3
		c0.4-0.1,0.9-0.1,1.3-0.1c1,0,1.8,0.3,2.4,0.8c0.6,0.5,0.9,1.3,0.9,2.3V14h-1.2l-0.1-1.4c-0.5,1-1.4,1.5-2.7,1.5
		c-0.9,0-1.6-0.2-2.1-0.7s-0.8-1.1-0.8-1.8c0-0.7,0.3-1.3,0.9-1.7c0.6-0.4,1.3-0.6,2.2-0.6c0.9,0,1.7,0.1,2.5,0.4V8.8z M317.3,10.6
		c-0.8-0.2-1.5-0.3-2.1-0.3c-0.6,0-1.1,0.1-1.5,0.3c-0.4,0.2-0.6,0.6-0.6,1c0,1,0.6,1.5,1.7,1.5c0.7,0,1.2-0.2,1.7-0.7
		C317,12,317.3,11.4,317.3,10.6z"/>
	<path d="M322.5,4c-0.3,0-0.5-0.1-0.6-0.2c-0.2-0.2-0.2-0.4-0.2-0.6s0.1-0.5,0.2-0.6c0.2-0.2,0.4-0.2,0.6-0.2s0.5,0.1,0.7,0.2
		c0.2,0.2,0.2,0.4,0.2,0.6s-0.1,0.5-0.2,0.6C323,3.9,322.8,4,322.5,4z M321.9,5.9h1.3V14h-1.3V5.9z"/>
	<path d="M326.9,2.4h1.3V14h-1.3V2.4z"/>
	<path d="M332,6.3c0.6-0.4,1.3-0.6,2.3-0.6c1,0,1.7,0.2,2.3,0.6s0.8,0.9,0.9,1.5h-1.3c-0.1-0.7-0.7-1.1-1.9-1.1
		c-0.6,0-1,0.1-1.3,0.4c-0.3,0.2-0.5,0.5-0.5,0.8s0.1,0.5,0.3,0.7c0.2,0.2,0.6,0.4,1.1,0.5l1.6,0.5c0.7,0.2,1.2,0.5,1.6,0.8
		c0.4,0.3,0.6,0.8,0.6,1.4c0,0.6-0.3,1.1-0.9,1.6c-0.6,0.5-1.4,0.7-2.5,0.7s-1.9-0.2-2.5-0.7c-0.6-0.5-0.9-1.1-1-1.9h1.3
		c0,0.5,0.2,0.9,0.6,1.1c0.4,0.3,0.9,0.4,1.5,0.4s1.1-0.1,1.5-0.4c0.4-0.2,0.6-0.5,0.6-0.9s-0.1-0.6-0.3-0.8
		c-0.2-0.2-0.6-0.3-1.1-0.5l-1.6-0.5c-1.4-0.4-2.1-1.2-2.1-2.2C331.2,7.2,331.5,6.7,332,6.3z"/>
	<path d="M347.5,5.7c1.1,0,2,0.4,2.7,1.1c0.7,0.7,1,1.8,1,3.2c0,1.4-0.3,2.4-1,3.1c-0.7,0.7-1.6,1.1-2.7,1.1c-1.1,0-2-0.4-2.7-1.1
		s-1-1.8-1-3.1c0-1.4,0.3-2.4,1-3.2C345.5,6.1,346.4,5.7,347.5,5.7z M350,9.9c0-1-0.2-1.7-0.6-2.3s-1-0.8-1.8-0.8
		c-0.8,0-1.4,0.3-1.8,0.8s-0.6,1.3-0.6,2.3s0.2,1.7,0.6,2.3c0.4,0.5,1,0.8,1.8,0.8c0.8,0,1.4-0.3,1.8-0.8
		C349.7,11.7,350,10.9,350,9.9z"/>
	<path d="M355.2,7.5c0.5-1.2,1.4-1.8,2.7-1.8c1,0,1.7,0.3,2.3,1c0.5,0.6,0.8,1.5,0.8,2.6V14h-1.3V9.2c0-0.8-0.2-1.4-0.6-1.8
		c-0.4-0.4-0.9-0.6-1.6-0.6s-1.2,0.3-1.6,0.8c-0.4,0.6-0.6,1.3-0.7,2.3v4h-1.3V5.9h1.2L355.2,7.5z"/>
	<path d="M372.4,13.8c-1,0.5-1.9,0.5-2.7,0.3c-0.6-0.2-1-0.6-1.2-1.1c-0.1-0.3-0.2-0.6-0.2-1v-5H367v-1h1.3V3.6h1.3v2.3h2.6v1h-2.6
		v5c0,0.8,0.4,1.2,1.2,1.2c0.4,0,0.9-0.1,1.4-0.3L372.4,13.8z"/>
	<path d="M375.9,7.4c0.5-1.1,1.4-1.7,2.7-1.7c1,0,1.7,0.3,2.3,1c0.5,0.6,0.8,1.5,0.8,2.6V14h-1.3V9.2c0-0.8-0.2-1.4-0.6-1.8
		s-0.9-0.6-1.6-0.6s-1.2,0.3-1.7,0.9c-0.4,0.6-0.6,1.4-0.6,2.4V14h-1.3V2.4h1.3V7.4z"/>
	<path d="M387.6,13.1c1.1,0,1.8-0.5,1.9-1.5h1.4c-0.1,0.8-0.5,1.4-1.1,1.9c-0.6,0.4-1.3,0.7-2.2,0.7c-1.1,0-2-0.4-2.7-1.2
		c-0.7-0.8-1-1.8-1-3.1s0.3-2.3,1-3.1s1.6-1.2,2.7-1.2c1.1,0,2,0.4,2.5,1.3s0.8,2,0.6,3.2h-5.6c0,0.8,0.2,1.5,0.6,2.1
		C386.3,12.9,386.9,13.1,387.6,13.1z M388.6,7c-0.3-0.1-0.6-0.2-1-0.2c-0.7,0-1.2,0.2-1.6,0.7c-0.4,0.5-0.6,1.1-0.7,1.8h4.3
		C389.7,8.1,389.3,7.3,388.6,7z"/>
	<path d="M401,7c-1.3,0-1.9,1-2,3v4h-1.3V5.9h1.3v1.6c0.4-1.1,1.1-1.7,2.2-1.7c0.3,0,0.6,0.1,0.9,0.2L402,7.2
		C401.7,7.1,401.3,7,401,7z"/>
	<path d="M406.9,13.1c1.1,0,1.8-0.5,1.9-1.5h1.4c-0.1,0.8-0.5,1.4-1.1,1.9c-0.6,0.4-1.3,0.7-2.2,0.7c-1.1,0-2-0.4-2.7-1.2
		c-0.7-0.8-1-1.8-1-3.1s0.3-2.3,1-3.1s1.6-1.2,2.7-1.2c1.1,0,2,0.4,2.5,1.3s0.8,2,0.6,3.2h-5.6c0,0.8,0.2,1.5,0.6,2.1
		C405.6,12.9,406.2,13.1,406.9,13.1z M407.9,7c-0.3-0.1-0.6-0.2-1-0.2c-0.7,0-1.2,0.2-1.6,0.7c-0.4,0.5-0.6,1.1-0.7,1.8h4.3
		C408.9,8.1,408.6,7.3,407.9,7z"/>
	<path d="M413.2,13.8c-0.7-0.3-1-0.8-1-1.5c0-0.4,0.1-0.7,0.4-0.9c0.3-0.3,0.6-0.4,1-0.5c-0.6-0.5-0.9-1.3-0.9-2.1s0.3-1.6,0.9-2.1
		s1.4-0.8,2.2-0.8s1.6,0.2,2.2,0.6c0.1-0.6,0.3-1.1,0.7-1.4c0.4-0.4,0.9-0.5,1.6-0.5l-0.1,1.3c-1,0-1.5,0.4-1.6,1.3
		c0.4,0.5,0.6,1.1,0.6,1.8c0,0.9-0.3,1.6-0.9,2.2c-0.6,0.6-1.4,0.8-2.4,0.8c-0.6,0-1.2-0.1-1.7-0.4c-0.2,0-0.4,0.2-0.6,0.3
		c-0.2,0.2-0.3,0.4-0.3,0.7c0,0.6,0.5,0.9,1.5,0.9h3.2c0.8,0,1.4,0.2,1.8,0.5s0.7,0.8,0.7,1.4c0,0.9-0.4,1.6-1.3,2.3
		c-0.9,0.6-2,1-3.3,1c-1.3,0-2.4-0.2-3.1-0.7c-0.8-0.5-1.1-1.1-1.1-1.9c0-0.5,0.1-0.9,0.4-1.2C412.4,14.1,412.7,13.9,413.2,13.8z
		 M413,15.6c0,0.4,0.2,0.8,0.7,1.1s1.2,0.5,2.1,0.5s1.8-0.2,2.4-0.6s1-0.9,1-1.5c0-0.3-0.1-0.5-0.3-0.7c-0.2-0.2-0.5-0.3-0.9-0.3
		h-3.3c-0.6,0-1,0.2-1.3,0.4C413.1,14.8,413,15.1,413,15.6z M418,8.6c0-0.6-0.2-1.1-0.5-1.4c-0.4-0.4-0.8-0.6-1.5-0.6
		s-1.1,0.2-1.5,0.6c-0.4,0.4-0.5,0.8-0.5,1.4c0,0.6,0.2,1.1,0.5,1.5c0.4,0.4,0.8,0.6,1.5,0.6c0.6,0,1.1-0.2,1.4-0.6
		C417.8,9.7,418,9.2,418,8.6z"/>
	<path d="M423.2,4c-0.3,0-0.5-0.1-0.6-0.2c-0.2-0.2-0.2-0.4-0.2-0.6s0.1-0.5,0.2-0.6c0.2-0.2,0.4-0.2,0.6-0.2s0.5,0.1,0.7,0.2
		c0.2,0.2,0.2,0.4,0.2,0.6s-0.1,0.5-0.2,0.6C423.7,3.9,423.5,4,423.2,4z M422.6,5.9h1.3V14h-1.3V5.9z"/>
	<path d="M430.5,5.7c1.1,0,2,0.4,2.7,1.1c0.7,0.7,1,1.8,1,3.2c0,1.4-0.3,2.4-1,3.1c-0.7,0.7-1.6,1.1-2.7,1.1c-1.1,0-2-0.4-2.7-1.1
		s-1-1.8-1-3.1c0-1.4,0.3-2.4,1-3.2C428.4,6.1,429.4,5.7,430.5,5.7z M432.9,9.9c0-1-0.2-1.7-0.6-2.3s-1-0.8-1.8-0.8
		c-0.8,0-1.4,0.3-1.8,0.8s-0.6,1.3-0.6,2.3s0.2,1.7,0.6,2.3c0.4,0.5,1,0.8,1.8,0.8c0.8,0,1.4-0.3,1.8-0.8
		C432.7,11.7,432.9,10.9,432.9,9.9z"/>
	<path d="M438.1,7.5c0.5-1.2,1.4-1.8,2.7-1.8c1,0,1.7,0.3,2.3,1c0.5,0.6,0.8,1.5,0.8,2.6V14h-1.3V9.2c0-0.8-0.2-1.4-0.6-1.8
		c-0.4-0.4-0.9-0.6-1.6-0.6s-1.2,0.3-1.6,0.8c-0.4,0.6-0.6,1.3-0.7,2.3v4h-1.3V5.9h1.2L438.1,7.5z"/>
	<path d="M452.1,8.8c0-0.7-0.2-1.3-0.5-1.6s-0.8-0.5-1.3-0.5c-0.6,0-1.1,0.1-1.4,0.3s-0.5,0.6-0.5,1.1h-1.5c0-1.2,0.7-2,2-2.3
		c0.4-0.1,0.9-0.1,1.3-0.1c1,0,1.8,0.3,2.4,0.8c0.6,0.5,0.9,1.3,0.9,2.3V14h-1.2l-0.1-1.4c-0.5,1-1.4,1.5-2.7,1.5
		c-0.9,0-1.6-0.2-2.1-0.7s-0.8-1.1-0.8-1.8c0-0.7,0.3-1.3,0.9-1.7c0.6-0.4,1.3-0.6,2.2-0.6c0.9,0,1.7,0.1,2.5,0.4V8.8z M452.1,10.6
		c-0.8-0.2-1.5-0.3-2.1-0.3c-0.6,0-1.1,0.1-1.5,0.3c-0.4,0.2-0.6,0.6-0.6,1c0,1,0.6,1.5,1.7,1.5c0.7,0,1.2-0.2,1.7-0.7
		C451.9,12,452.1,11.4,452.1,10.6z"/>
	<path d="M456.6,2.4h1.3V14h-1.3V2.4z"/>
	<path d="M468.2,13.1c1.1,0,1.8-0.5,1.9-1.5h1.4c-0.1,0.8-0.5,1.4-1.1,1.9c-0.6,0.4-1.3,0.7-2.2,0.7c-1.1,0-2-0.4-2.7-1.2
		c-0.7-0.8-1-1.8-1-3.1s0.3-2.3,1-3.1s1.6-1.2,2.7-1.2c1.1,0,2,0.4,2.5,1.3s0.8,2,0.6,3.2h-5.6c0,0.8,0.2,1.5,0.6,2.1
		C466.9,12.9,467.5,13.1,468.2,13.1z M469.2,7c-0.3-0.1-0.6-0.2-1-0.2c-0.7,0-1.2,0.2-1.6,0.7c-0.4,0.5-0.6,1.1-0.7,1.8h4.3
		C470.2,8.1,469.9,7.3,469.2,7z"/>
	<path d="M475.5,7.5c0.5-1.2,1.4-1.8,2.7-1.8c0.7,0,1.3,0.2,1.8,0.5s0.8,0.8,1,1.4c0.5-1.3,1.5-2,2.8-2c1,0,1.7,0.3,2.3,1
		s0.8,1.5,0.8,2.6V14h-1.3V9.2c0-0.8-0.2-1.4-0.6-1.8s-0.9-0.6-1.6-0.6s-1.2,0.3-1.6,0.8c-0.4,0.6-0.6,1.3-0.6,2.3V14h-1.3V9.2
		c0-0.8-0.2-1.4-0.6-1.8c-0.4-0.4-0.9-0.6-1.6-0.6s-1.2,0.3-1.6,0.8c-0.4,0.6-0.6,1.3-0.7,2.3v4h-1.3V5.9h1.2L475.5,7.5z"/>
	<path d="M490.8,4c-0.3,0-0.5-0.1-0.6-0.2C490,3.6,490,3.4,490,3.1s0.1-0.5,0.2-0.6c0.2-0.2,0.4-0.2,0.6-0.2s0.5,0.1,0.7,0.2
		c0.2,0.2,0.2,0.4,0.2,0.6s-0.1,0.5-0.2,0.6C491.3,3.9,491.1,4,490.8,4z M490.2,5.9h1.3V14h-1.3V5.9z"/>
	<path d="M495.6,6.3c0.6-0.4,1.3-0.6,2.3-0.6c1,0,1.7,0.2,2.3,0.6s0.8,0.9,0.9,1.5h-1.3c-0.1-0.7-0.7-1.1-1.9-1.1
		c-0.6,0-1,0.1-1.3,0.4c-0.3,0.2-0.5,0.5-0.5,0.8s0.1,0.5,0.3,0.7c0.2,0.2,0.6,0.4,1.1,0.5l1.6,0.5c0.7,0.2,1.2,0.5,1.6,0.8
		c0.4,0.3,0.6,0.8,0.6,1.4c0,0.6-0.3,1.1-0.9,1.6c-0.6,0.5-1.4,0.7-2.5,0.7s-1.9-0.2-2.5-0.7c-0.6-0.5-0.9-1.1-1-1.9h1.3
		c0,0.5,0.2,0.9,0.6,1.1c0.4,0.3,0.9,0.4,1.5,0.4s1.1-0.1,1.5-0.4c0.4-0.2,0.6-0.5,0.6-0.9s-0.1-0.6-0.3-0.8
		c-0.2-0.2-0.6-0.3-1.1-0.5l-1.6-0.5c-1.4-0.4-2.1-1.2-2.1-2.2C494.7,7.2,495,6.7,495.6,6.3z"/>
	<path d="M504.5,6.3c0.6-0.4,1.3-0.6,2.3-0.6c1,0,1.7,0.2,2.3,0.6s0.8,0.9,0.9,1.5h-1.3c-0.1-0.7-0.7-1.1-1.9-1.1
		c-0.6,0-1,0.1-1.3,0.4c-0.3,0.2-0.5,0.5-0.5,0.8s0.1,0.5,0.3,0.7c0.2,0.2,0.6,0.4,1.1,0.5l1.6,0.5c0.7,0.2,1.2,0.5,1.6,0.8
		c0.4,0.3,0.6,0.8,0.6,1.4c0,0.6-0.3,1.1-0.9,1.6c-0.6,0.5-1.4,0.7-2.5,0.7c-1.1,0-1.9-0.2-2.5-0.7c-0.6-0.5-0.9-1.1-1-1.9h1.3
		c0,0.5,0.2,0.9,0.6,1.1c0.4,0.3,0.9,0.4,1.5,0.4c0.6,0,1.1-0.1,1.5-0.4c0.4-0.2,0.6-0.5,0.6-0.9s-0.1-0.6-0.3-0.8
		c-0.2-0.2-0.6-0.3-1.1-0.5l-1.6-0.5c-1.4-0.4-2.1-1.2-2.1-2.2C503.7,7.2,504,6.7,504.5,6.3z"/>
	<path d="M513.8,4c-0.3,0-0.5-0.1-0.6-0.2c-0.2-0.2-0.2-0.4-0.2-0.6s0.1-0.5,0.2-0.6c0.2-0.2,0.4-0.2,0.6-0.2c0.3,0,0.5,0.1,0.7,0.2
		c0.2,0.2,0.2,0.4,0.2,0.6s-0.1,0.5-0.2,0.6C514.3,3.9,514.1,4,513.8,4z M513.1,5.9h1.3V14h-1.3V5.9z"/>
	<path d="M521,5.7c1.1,0,2,0.4,2.7,1.1c0.7,0.7,1,1.8,1,3.2c0,1.4-0.3,2.4-1,3.1s-1.6,1.1-2.7,1.1c-1.1,0-2-0.4-2.7-1.1
		c-0.7-0.7-1-1.8-1-3.1c0-1.4,0.3-2.4,1-3.2C519,6.1,519.9,5.7,521,5.7z M523.5,9.9c0-1-0.2-1.7-0.6-2.3s-1-0.8-1.8-0.8
		c-0.8,0-1.4,0.3-1.8,0.8c-0.4,0.5-0.6,1.3-0.6,2.3s0.2,1.7,0.6,2.3c0.4,0.5,1,0.8,1.8,0.8s1.4-0.3,1.8-0.8
		C523.3,11.7,523.5,10.9,523.5,9.9z"/>
	<path d="M528.7,7.5c0.5-1.2,1.4-1.8,2.7-1.8c1,0,1.7,0.3,2.3,1s0.8,1.5,0.8,2.6V14h-1.3V9.2c0-0.8-0.2-1.4-0.6-1.8
		c-0.4-0.4-0.9-0.6-1.6-0.6c-0.7,0-1.2,0.3-1.6,0.8c-0.4,0.6-0.6,1.3-0.7,2.3v4h-1.3V5.9h1.2L528.7,7.5z"/>
	<path d="M538.1,6.3c0.6-0.4,1.3-0.6,2.3-0.6s1.7,0.2,2.3,0.6s0.8,0.9,0.9,1.5h-1.3c-0.1-0.7-0.7-1.1-1.9-1.1c-0.6,0-1,0.1-1.3,0.4
		c-0.3,0.2-0.5,0.5-0.5,0.8s0.1,0.5,0.3,0.7c0.2,0.2,0.6,0.4,1.1,0.5l1.6,0.5c0.7,0.2,1.2,0.5,1.6,0.8c0.4,0.3,0.6,0.8,0.6,1.4
		c0,0.6-0.3,1.1-0.9,1.6c-0.6,0.5-1.4,0.7-2.5,0.7c-1.1,0-1.9-0.2-2.5-0.7s-0.9-1.1-1-1.9h1.3c0,0.5,0.2,0.9,0.6,1.1
		c0.4,0.3,0.9,0.4,1.5,0.4c0.6,0,1.1-0.1,1.5-0.4c0.4-0.2,0.6-0.5,0.6-0.9s-0.1-0.6-0.3-0.8s-0.6-0.3-1.1-0.5l-1.6-0.5
		c-1.4-0.4-2.1-1.2-2.1-2.2C537.2,7.2,537.5,6.7,538.1,6.3z"/>
</g>
</svg>
