<?xml version="1.0" encoding="utf-8"?>
<!-- Generator: Adobe Illustrator 21.1.0, SVG Export Plug-In . SVG Version: 6.00 Build 0)  -->
<svg version="1.1" id="Layer_1" xmlns="http://www.w3.org/2000/svg" xmlns:xlink="http://www.w3.org/1999/xlink" x="0px" y="0px"
	 viewBox="0 0 722.5 226.8" style="enable-background:new 0 0 722.5 226.8;" xml:space="preserve">
<style type="text/css">
	.st0{fill:none;stroke:#231F20;stroke-miterlimit:10;}
	.st1{enable-background:new    ;}
</style>
<title>annotation-3</title>
<line class="st0" x1="722.5" y1="181.8" x2="110.6" y2="181.8"/>
<line class="st0" x1="110.6" y1="181.8" x2="110.6" y2="226.8"/>
<g class="st1">
	<path d="M132.6,200.5c0,1.1-0.6,1.9-1.9,2.4c0.7,0.2,1.2,0.5,1.6,1c0.4,0.4,0.6,1,0.6,1.7c0,0.9-0.4,1.7-1.1,2.3
		c-0.7,0.6-1.7,0.9-2.8,0.9c-1.2,0-2.2-0.3-3-0.9c-0.8-0.6-1.2-1.5-1.2-2.6h1.4c0,0.7,0.3,1.3,0.8,1.7s1.2,0.6,2,0.6
		c0.8,0,1.4-0.2,1.8-0.6c0.4-0.4,0.7-0.8,0.7-1.4c0-0.6-0.2-1-0.6-1.4s-1.1-0.5-2-0.5h-1.2v-1.1h0.8c0.8,0,1.5-0.2,1.9-0.5
		c0.5-0.3,0.7-0.8,0.7-1.3s-0.2-1-0.6-1.3s-0.9-0.5-1.5-0.5s-1.2,0.1-1.6,0.3s-0.7,0.6-0.9,1.2h-1.4c0.1-0.9,0.5-1.6,1.2-2.1
		c0.7-0.5,1.5-0.7,2.5-0.7s1.9,0.3,2.6,0.8C132.3,199,132.6,199.7,132.6,200.5z"/>
	<path d="M135.6,208.6c-0.3,0-0.5-0.1-0.7-0.3c-0.2-0.2-0.3-0.4-0.3-0.7s0.1-0.5,0.3-0.7c0.2-0.2,0.4-0.3,0.7-0.3
		c0.3,0,0.5,0.1,0.7,0.3s0.3,0.4,0.3,0.7s-0.1,0.5-0.3,0.7S135.9,208.6,135.6,208.6z"/>
	<path d="M146.6,197.6c1.1,0,2.1,0.3,2.8,0.9c0.7,0.6,1.2,1.3,1.4,2.2l-1.4,0.3c-0.2-0.7-0.6-1.2-1.1-1.6c-0.5-0.4-1-0.6-1.7-0.6
		c-0.9,0-1.6,0.4-2.2,1.1s-0.9,1.8-0.9,3.1s0.3,2.4,0.8,3.2s1.3,1.2,2.3,1.2c0.9,0,1.5-0.2,2-0.7s0.7-1,0.7-1.8h1.4
		c0,1.1-0.4,2-1.1,2.7c-0.8,0.7-1.8,1-3.1,1s-2.4-0.5-3.2-1.5s-1.2-2.4-1.2-4.1c0-1.7,0.4-3,1.3-4S145.3,197.6,146.6,197.6z"/>
	<path d="M158.4,203.2c0-0.7-0.2-1.3-0.5-1.6c-0.3-0.3-0.8-0.5-1.3-0.5c-0.6,0-1.1,0.1-1.4,0.3s-0.5,0.6-0.5,1.1h-1.5
		c0-1.2,0.7-2,2-2.3c0.4-0.1,0.9-0.1,1.3-0.1c1,0,1.8,0.3,2.4,0.8c0.6,0.5,0.9,1.3,0.9,2.3v5.2h-1.2l-0.1-1.4
		c-0.5,1-1.4,1.5-2.7,1.5c-0.9,0-1.6-0.2-2.1-0.7s-0.8-1.1-0.8-1.8s0.3-1.3,0.9-1.7c0.6-0.4,1.3-0.6,2.2-0.6c0.9,0,1.7,0.1,2.5,0.4
		v-0.9H158.4z M158.4,205.1c-0.8-0.2-1.5-0.3-2.1-0.3s-1.1,0.1-1.5,0.3s-0.6,0.6-0.6,1c0,1,0.6,1.5,1.7,1.5c0.7,0,1.2-0.2,1.7-0.7
		C158.1,206.4,158.4,205.8,158.4,205.1z"/>
	<path d="M166.2,201.5c-1.3,0-1.9,1-2,3v4h-1.3v-8.1h1.3v1.6c0.4-1.1,1.1-1.7,2.2-1.7c0.3,0,0.6,0.1,0.9,0.2l-0.1,1.3
		C166.9,201.5,166.5,201.5,166.2,201.5z"/>
	<path d="M170.7,201.6c0.5-0.9,1.3-1.4,2.4-1.4c1,0,1.9,0.4,2.6,1.2s1,1.8,1,3.1s-0.4,2.3-1.1,3.1c-0.7,0.8-1.6,1.2-2.6,1.2
		c-0.5,0-1-0.1-1.5-0.4c-0.4-0.3-0.8-0.7-1-1.2l-0.3,1.4h-0.9V197h1.3L170.7,201.6L170.7,201.6z M173,201.3c-0.6,0-1.2,0.2-1.6,0.6
		c-0.4,0.4-0.7,1-0.7,1.7v1.3c0,0.7,0.2,1.3,0.7,1.8c0.4,0.4,1,0.7,1.6,0.7s1.2-0.3,1.6-0.8c0.5-0.6,0.7-1.3,0.7-2.2
		s-0.2-1.7-0.7-2.2C174.2,201.6,173.6,201.3,173,201.3z"/>
	<path d="M182.2,200.1c1.1,0,2,0.4,2.7,1.1c0.7,0.7,1,1.8,1,3.2s-0.3,2.4-1,3.1c-0.7,0.7-1.6,1.1-2.7,1.1s-2-0.4-2.7-1.1
		s-1-1.8-1-3.1c0-1.4,0.3-2.4,1-3.2C180.1,200.5,181,200.1,182.2,200.1z M184.6,204.4c0-1-0.2-1.7-0.6-2.3s-1-0.8-1.8-0.8
		s-1.4,0.3-1.8,0.8s-0.6,1.3-0.6,2.3s0.2,1.7,0.6,2.3c0.4,0.5,1,0.8,1.8,0.8s1.4-0.3,1.8-0.8C184.4,206.1,184.6,205.4,184.6,204.4z"
		/>
	<path d="M189.8,201.9c0.5-1.2,1.4-1.8,2.7-1.8c1,0,1.7,0.3,2.3,1c0.5,0.6,0.8,1.5,0.8,2.6v4.8h-1.3v-4.8c0-0.8-0.2-1.4-0.6-1.8
		c-0.4-0.4-0.9-0.6-1.6-0.6s-1.2,0.3-1.6,0.8c-0.4,0.6-0.6,1.3-0.7,2.3v4h-1.3v-8.1h1.2L189.8,201.9z"/>
	<path d="M206.5,197.6c1.1,0,2.1,0.3,2.8,0.9c0.7,0.6,1.2,1.3,1.4,2.2l-1.4,0.3c-0.2-0.7-0.6-1.2-1.1-1.6c-0.5-0.4-1-0.6-1.7-0.6
		c-0.9,0-1.6,0.4-2.2,1.1c-0.6,0.7-0.9,1.8-0.9,3.1s0.3,2.4,0.8,3.2s1.3,1.2,2.3,1.2c0.9,0,1.5-0.2,2-0.7s0.7-1,0.7-1.8h1.4
		c0,1.1-0.4,2-1.1,2.7c-0.8,0.7-1.8,1-3.1,1c-1.3,0-2.4-0.5-3.2-1.5c-0.8-1-1.2-2.4-1.2-4.1c0-1.7,0.4-3,1.3-4
		C204.2,198,205.2,197.6,206.5,197.6z"/>
	<path d="M218.3,203.2c0-0.7-0.2-1.3-0.5-1.6s-0.8-0.5-1.3-0.5c-0.6,0-1.1,0.1-1.4,0.3c-0.3,0.2-0.5,0.6-0.5,1.1h-1.5
		c0-1.2,0.7-2,2-2.3c0.4-0.1,0.9-0.1,1.3-0.1c1,0,1.8,0.3,2.4,0.8c0.6,0.5,0.9,1.3,0.9,2.3v5.2h-1.2l-0.1-1.4
		c-0.5,1-1.4,1.5-2.7,1.5c-0.9,0-1.6-0.2-2.1-0.7s-0.8-1.1-0.8-1.8s0.3-1.3,0.9-1.7s1.3-0.6,2.2-0.6s1.7,0.1,2.5,0.4L218.3,203.2
		L218.3,203.2z M218.3,205.1c-0.8-0.2-1.5-0.3-2.1-0.3c-0.6,0-1.1,0.1-1.5,0.3s-0.6,0.6-0.6,1c0,1,0.6,1.5,1.7,1.5
		c0.7,0,1.2-0.2,1.7-0.7C218.1,206.4,218.3,205.8,218.3,205.1z"/>
	<path d="M225.2,204.2l-1.1,0.9v3.4h-1.3v-11.6h1.3v6.7l3.9-3.3h1.9l-3.7,3l3.9,5.1h-1.6L225.2,204.2z"/>
	<path d="M235.2,207.6c1.1,0,1.8-0.5,1.9-1.5h1.4c-0.1,0.8-0.5,1.4-1.1,1.9c-0.6,0.4-1.3,0.7-2.2,0.7c-1.1,0-2-0.4-2.7-1.2
		s-1-1.8-1-3.1s0.3-2.3,1-3.1s1.6-1.2,2.7-1.2c1.1,0,2,0.4,2.5,1.3s0.8,2,0.6,3.2h-5.6c0,0.8,0.2,1.5,0.6,2.1
		C233.9,207.3,234.4,207.6,235.2,207.6z M236.2,201.4c-0.3-0.1-0.6-0.2-1-0.2c-0.7,0-1.2,0.2-1.6,0.7c-0.4,0.5-0.6,1.1-0.7,1.8h4.3
		C237.2,202.5,236.8,201.8,236.2,201.4z"/>
	<path d="M241.4,202.9c-0.3,0-0.5-0.1-0.7-0.3s-0.3-0.4-0.3-0.7s0.1-0.5,0.3-0.7s0.4-0.3,0.7-0.3s0.5,0.1,0.7,0.3s0.3,0.4,0.3,0.7
		s-0.1,0.5-0.3,0.7C241.9,202.8,241.6,202.9,241.4,202.9z M241.4,208.1c-0.3,0-0.5-0.1-0.7-0.3s-0.3-0.4-0.3-0.7s0.1-0.5,0.3-0.7
		s0.4-0.3,0.7-0.3s0.5,0.1,0.7,0.3s0.3,0.4,0.3,0.7s-0.1,0.5-0.3,0.7S241.6,208.1,241.4,208.1z"/>
</g>
<g class="st1">
	<path d="M247.5,197.4h8.8v1.7h-3.4v9.3h-2v-9.3h-3.4L247.5,197.4L247.5,197.4z"/>
	<path d="M262.2,197.2c0.7,0,1.4,0.1,2,0.4c0.6,0.2,1.1,0.6,1.6,1.1c0.9,1,1.4,2.4,1.4,4.3c0,1.9-0.5,3.3-1.4,4.3
		c-0.9,1-2.1,1.4-3.6,1.4s-2.7-0.5-3.6-1.5c-0.9-1-1.4-2.4-1.4-4.3c0-1.9,0.5-3.3,1.4-4.3C259.5,197.7,260.7,197.2,262.2,197.2z
		 M265.2,203c0-1.3-0.3-2.2-0.8-2.9s-1.2-1-2.1-1c-0.9,0-1.6,0.3-2.1,1s-0.8,1.7-0.8,2.9s0.3,2.2,0.8,2.9s1.2,1,2.1,1
		c0.9,0,1.6-0.3,2.1-1S265.2,204.2,265.2,203z"/>
</g>
<g class="st1">
	<path d="M268.1,197.4h8.8v1.7h-3.4v9.3h-2v-9.3h-3.4L268.1,197.4L268.1,197.4z"/>
</g>
<g class="st1">
	<path d="M280.4,197.4h2.5l3.6,11h-2.1l-0.8-2.4h-4.1l-0.8,2.4h-2.1L280.4,197.4z M280.1,204.6h3.1l-1.5-4.7L280.1,204.6z"/>
	<path d="M290.5,206.7h4.5v1.8h-6.5v-11h2V206.7z"/>
</g>
<g class="st1">
	<path d="M304.1,200.1c1,0,1.7,0.2,2.3,0.7c0.6,0.5,0.9,1.1,1.1,1.8l-1.4,0.1c-0.1-0.5-0.4-0.8-0.7-1.1s-0.7-0.4-1.1-0.4
		c-0.7,0-1.3,0.3-1.8,0.8s-0.7,1.3-0.7,2.2s0.2,1.7,0.7,2.3c0.4,0.6,1,0.8,1.6,0.8c0.7,0,1.1-0.2,1.5-0.5c0.3-0.3,0.5-0.7,0.5-1.3
		h1.4c0,0.9-0.3,1.6-0.9,2.1c-0.6,0.5-1.4,0.8-2.4,0.8s-1.9-0.4-2.6-1.2s-1.1-1.8-1.1-3.1s0.4-2.3,1.1-3.1
		C302.3,200.5,303.1,200.1,304.1,200.1z"/>
	<path d="M315.6,206.9c-0.6,1.2-1.5,1.8-2.7,1.8c-0.9,0-1.7-0.3-2.2-0.8c-0.6-0.5-0.8-1.3-0.8-2.4v-5.2h1.3v5.1
		c0,1.4,0.6,2.1,1.9,2.1c0.7,0,1.3-0.3,1.8-0.9c0.5-0.6,0.7-1.3,0.7-2.2v-4.1h1.3v8.1h-1.3V206.9z"/>
	<path d="M321.7,201.9c0.5-1.2,1.4-1.8,2.7-1.8c0.7,0,1.3,0.2,1.8,0.5s0.8,0.8,1,1.4c0.5-1.3,1.5-2,2.8-2c1,0,1.7,0.3,2.3,1
		c0.6,0.7,0.8,1.5,0.8,2.6v4.8h-1.3v-4.8c0-0.8-0.2-1.4-0.6-1.8c-0.4-0.4-0.9-0.6-1.6-0.6s-1.2,0.3-1.6,0.8
		c-0.4,0.6-0.6,1.3-0.6,2.3v3.9h-1.3v-4.8c0-0.8-0.2-1.4-0.6-1.8c-0.4-0.4-0.9-0.6-1.6-0.6s-1.2,0.3-1.6,0.8
		c-0.4,0.6-0.6,1.3-0.7,2.3v4h-1.3V200h1.2L321.7,201.9z"/>
	<path d="M341.8,206.9c-0.6,1.2-1.5,1.8-2.7,1.8c-0.9,0-1.7-0.3-2.2-0.8c-0.6-0.5-0.8-1.3-0.8-2.4v-5.2h1.3v5.1
		c0,1.4,0.6,2.1,1.9,2.1c0.7,0,1.3-0.3,1.8-0.9c0.5-0.6,0.7-1.3,0.7-2.2v-4.1h1.3v8.1h-1.3V206.9z"/>
	<path d="M346.6,196.9h1.3v11.6h-1.3V196.9z"/>
	<path d="M356.4,203.2c0-0.7-0.2-1.3-0.5-1.6s-0.8-0.5-1.3-0.5c-0.6,0-1.1,0.1-1.4,0.3s-0.5,0.6-0.5,1.1h-1.5c0-1.2,0.7-2,2-2.3
		c0.4-0.1,0.9-0.1,1.3-0.1c1,0,1.8,0.3,2.4,0.8s0.9,1.3,0.9,2.3v5.2h-1.2l-0.1-1.4c-0.5,1-1.4,1.5-2.7,1.5c-0.9,0-1.6-0.2-2.1-0.7
		s-0.8-1.1-0.8-1.8s0.3-1.3,0.9-1.7s1.3-0.6,2.2-0.6c0.9,0,1.7,0.1,2.5,0.4L356.4,203.2L356.4,203.2z M356.4,205.1
		c-0.8-0.2-1.5-0.3-2.1-0.3s-1.1,0.1-1.5,0.3s-0.6,0.6-0.6,1c0,1,0.6,1.5,1.7,1.5c0.7,0,1.2-0.2,1.7-0.7
		C356.2,206.4,356.4,205.8,356.4,205.1z"/>
	<path d="M365.2,208.2c-1,0.5-1.9,0.5-2.7,0.3c-0.6-0.2-1-0.6-1.2-1.1c-0.1-0.3-0.2-0.6-0.2-1v-5h-1.3v-1h1.3v-2.3h1.3v2.3h2.6v1
		h-2.6v5c0,0.8,0.4,1.2,1.2,1.2c0.4,0,0.9-0.1,1.4-0.3L365.2,208.2z"/>
	<path d="M368,198.4c-0.3,0-0.5-0.1-0.6-0.2c-0.2-0.2-0.2-0.4-0.2-0.6s0.1-0.5,0.2-0.6c0.2-0.2,0.4-0.2,0.6-0.2s0.5,0.1,0.7,0.2
		c0.2,0.2,0.2,0.4,0.2,0.6s-0.1,0.5-0.2,0.6C368.5,198.3,368.3,198.4,368,198.4z M367.4,200.3h1.3v8.1h-1.3V200.3z"/>
	<path d="M372.5,200.3l2.4,6.7l2.5-6.7h1.5l-3.2,8.1h-1.5l-3.2-8.1H372.5z"/>
	<path d="M383.7,207.6c1.1,0,1.8-0.5,1.9-1.5h1.4c-0.1,0.8-0.5,1.4-1.1,1.9c-0.6,0.4-1.3,0.7-2.2,0.7c-1.1,0-2-0.4-2.7-1.2
		s-1-1.8-1-3.1s0.3-2.3,1-3.1s1.6-1.2,2.7-1.2s2,0.4,2.5,1.3s0.8,2,0.6,3.2h-5.6c0,0.8,0.2,1.5,0.6,2.1
		C382.4,207.3,383,207.6,383.7,207.6z M384.7,201.4c-0.3-0.1-0.6-0.2-1-0.2c-0.7,0-1.2,0.2-1.6,0.7s-0.6,1.1-0.7,1.8h4.3
		C385.8,202.5,385.4,201.8,384.7,201.4z"/>
	<path d="M396.5,207.6c1.1,0,1.8-0.5,1.9-1.5h1.4c-0.1,0.8-0.5,1.4-1.1,1.9c-0.6,0.4-1.3,0.7-2.2,0.7c-1.1,0-2-0.4-2.7-1.2
		s-1-1.8-1-3.1s0.3-2.3,1-3.1s1.6-1.2,2.7-1.2s2,0.4,2.5,1.3s0.8,2,0.6,3.2H394c0,0.8,0.2,1.5,0.6,2.1
		C395.2,207.3,395.8,207.6,396.5,207.6z M397.5,201.4c-0.3-0.1-0.6-0.2-1-0.2c-0.7,0-1.2,0.2-1.6,0.7s-0.6,1.1-0.7,1.8h4.3
		C398.6,202.5,398.2,201.8,397.5,201.4z"/>
	<path d="M403.8,201.9c0.5-1.2,1.4-1.8,2.7-1.8c0.7,0,1.3,0.2,1.8,0.5s0.8,0.8,1,1.4c0.5-1.3,1.5-2,2.8-2c1,0,1.7,0.3,2.3,1
		c0.5,0.6,0.8,1.5,0.8,2.6v4.8h-1.3v-4.8c0-0.8-0.2-1.4-0.6-1.8s-0.9-0.6-1.6-0.6s-1.2,0.3-1.6,0.8c-0.4,0.6-0.6,1.3-0.6,2.3v3.9
		h-1.3v-4.8c0-0.8-0.2-1.4-0.6-1.8s-0.9-0.6-1.6-0.6s-1.2,0.3-1.6,0.8c-0.4,0.6-0.6,1.3-0.7,2.3v4h-1.3V200h1.2L403.8,201.9z"/>
	<path d="M419.1,198.4c-0.3,0-0.5-0.1-0.6-0.2s-0.2-0.4-0.2-0.6s0.1-0.5,0.2-0.6c0.2-0.2,0.4-0.2,0.6-0.2c0.3,0,0.5,0.1,0.7,0.2
		c0.2,0.2,0.2,0.4,0.2,0.6s-0.1,0.5-0.2,0.6S419.4,198.4,419.1,198.4z M418.5,200.3h1.3v8.1h-1.3V200.3z"/>
	<path d="M423.9,200.7c0.6-0.4,1.3-0.6,2.3-0.6s1.7,0.2,2.3,0.6s0.8,0.9,0.9,1.5H428c-0.1-0.7-0.7-1.1-1.9-1.1c-0.6,0-1,0.1-1.3,0.4
		c-0.3,0.2-0.5,0.5-0.5,0.8s0.1,0.5,0.3,0.7c0.2,0.2,0.6,0.4,1.1,0.5l1.6,0.5c0.7,0.2,1.2,0.5,1.6,0.8s0.6,0.8,0.6,1.4
		c0,0.6-0.3,1.1-0.9,1.6s-1.4,0.7-2.5,0.7s-1.9-0.2-2.5-0.7s-0.9-1.1-1-1.9h1.3c0,0.5,0.2,0.9,0.6,1.1c0.4,0.3,0.9,0.4,1.5,0.4
		s1.1-0.1,1.5-0.4c0.4-0.2,0.6-0.5,0.6-0.9s-0.1-0.6-0.3-0.8s-0.6-0.3-1.1-0.5l-1.6-0.5c-1.4-0.4-2.1-1.2-2.1-2.2
		C423,201.7,423.3,201.1,423.9,200.7z"/>
	<path d="M432.8,200.7c0.6-0.4,1.3-0.6,2.3-0.6s1.7,0.2,2.3,0.6s0.8,0.9,0.9,1.5H437c-0.1-0.7-0.7-1.1-1.9-1.1c-0.6,0-1,0.1-1.3,0.4
		c-0.3,0.2-0.5,0.5-0.5,0.8s0.1,0.5,0.3,0.7s0.6,0.4,1.1,0.5l1.6,0.5c0.7,0.2,1.2,0.5,1.6,0.8s0.6,0.8,0.6,1.4
		c0,0.6-0.3,1.1-0.9,1.6s-1.4,0.7-2.5,0.7s-1.9-0.2-2.5-0.7s-0.9-1.1-1-1.9h1.3c0,0.5,0.2,0.9,0.6,1.1c0.4,0.3,0.9,0.4,1.5,0.4
		s1.1-0.1,1.5-0.4c0.4-0.2,0.6-0.5,0.6-0.9s-0.1-0.6-0.3-0.8c-0.2-0.2-0.6-0.3-1.1-0.5l-1.6-0.5c-1.4-0.4-2.1-1.2-2.1-2.2
		C432,201.7,432.3,201.1,432.8,200.7z"/>
	<path d="M442.1,198.4c-0.3,0-0.5-0.1-0.6-0.2s-0.2-0.4-0.2-0.6s0.1-0.5,0.2-0.6c0.2-0.2,0.4-0.2,0.6-0.2c0.3,0,0.5,0.1,0.7,0.2
		c0.2,0.2,0.2,0.4,0.2,0.6s-0.1,0.5-0.2,0.6S442.4,198.4,442.1,198.4z M441.4,200.3h1.3v8.1h-1.3V200.3z"/>
	<path d="M449.4,200.1c1.1,0,2,0.4,2.7,1.1c0.7,0.7,1,1.8,1,3.2s-0.3,2.4-1,3.1s-1.6,1.1-2.7,1.1s-2-0.4-2.7-1.1
		c-0.7-0.7-1-1.8-1-3.1c0-1.4,0.3-2.4,1-3.2C447.3,200.5,448.2,200.1,449.4,200.1z M451.8,204.4c0-1-0.2-1.7-0.6-2.3s-1-0.8-1.8-0.8
		s-1.4,0.3-1.8,0.8s-0.6,1.3-0.6,2.3s0.2,1.7,0.6,2.3c0.4,0.5,1,0.8,1.8,0.8s1.4-0.3,1.8-0.8C451.6,206.1,451.8,205.4,451.8,204.4z"
		/>
	<path d="M457,201.9c0.5-1.2,1.4-1.8,2.7-1.8c1,0,1.7,0.3,2.3,1c0.5,0.6,0.8,1.5,0.8,2.6v4.8h-1.3v-4.8c0-0.8-0.2-1.4-0.6-1.8
		s-0.9-0.6-1.6-0.6s-1.2,0.3-1.6,0.8c-0.4,0.6-0.6,1.3-0.7,2.3v4h-1.3v-8.1h1.2L457,201.9z"/>
	<path d="M466.4,200.7c0.6-0.4,1.3-0.6,2.3-0.6s1.7,0.2,2.3,0.6s0.8,0.9,0.9,1.5h-1.3c-0.1-0.7-0.7-1.1-1.9-1.1
		c-0.6,0-1,0.1-1.3,0.4c-0.3,0.2-0.5,0.5-0.5,0.8s0.1,0.5,0.3,0.7c0.2,0.2,0.6,0.4,1.1,0.5l1.6,0.5c0.7,0.2,1.2,0.5,1.6,0.8
		s0.6,0.8,0.6,1.4c0,0.6-0.3,1.1-0.9,1.6s-1.4,0.7-2.5,0.7s-1.9-0.2-2.5-0.7s-0.9-1.1-1-1.9h1.3c0,0.5,0.2,0.9,0.6,1.1
		c0.4,0.3,0.9,0.4,1.5,0.4s1.1-0.1,1.5-0.4c0.4-0.2,0.6-0.5,0.6-0.9s-0.1-0.6-0.3-0.8s-0.6-0.3-1.1-0.5l-1.6-0.5
		c-1.4-0.4-2.1-1.2-2.1-2.2C465.5,201.7,465.8,201.1,466.4,200.7z"/>
	<path d="M483.2,208.2c-1,0.5-1.9,0.5-2.7,0.3c-0.6-0.2-1-0.6-1.2-1.1c-0.1-0.3-0.2-0.6-0.2-1v-5h-1.3v-1h1.3v-2.3h1.3v2.3h2.6v1
		h-2.6v5c0,0.8,0.4,1.2,1.2,1.2c0.4,0,0.9-0.1,1.4-0.3L483.2,208.2z"/>
	<path d="M488.3,200.1c1.1,0,2,0.4,2.7,1.1c0.7,0.7,1,1.8,1,3.2s-0.3,2.4-1,3.1c-0.7,0.7-1.6,1.1-2.7,1.1s-2-0.4-2.7-1.1
		c-0.7-0.7-1-1.8-1-3.1c0-1.4,0.3-2.4,1-3.2C486.2,200.5,487.1,200.1,488.3,200.1z M490.7,204.4c0-1-0.2-1.7-0.6-2.3s-1-0.8-1.8-0.8
		s-1.4,0.3-1.8,0.8s-0.6,1.3-0.6,2.3s0.2,1.7,0.6,2.3c0.4,0.5,1,0.8,1.8,0.8s1.4-0.3,1.8-0.8C490.5,206.1,490.7,205.4,490.7,204.4z"
		/>
	<path d="M501.4,200.1c1,0,1.7,0.2,2.3,0.7c0.6,0.5,0.9,1.1,1.1,1.8l-1.4,0.1c-0.1-0.5-0.4-0.8-0.7-1.1s-0.7-0.4-1.1-0.4
		c-0.7,0-1.3,0.3-1.8,0.8c-0.4,0.5-0.7,1.3-0.7,2.2s0.2,1.7,0.7,2.3c0.4,0.6,1,0.8,1.6,0.8s1.1-0.2,1.5-0.5c0.3-0.3,0.5-0.7,0.5-1.3
		h1.4c0,0.9-0.3,1.6-0.9,2.1s-1.4,0.8-2.4,0.8s-1.9-0.4-2.6-1.2s-1.1-1.8-1.1-3.1s0.4-2.3,1.1-3.1
		C499.6,200.5,500.4,200.1,501.4,200.1z"/>
	<path d="M510.3,200.1c1.1,0,2,0.4,2.7,1.1c0.7,0.7,1,1.8,1,3.2s-0.3,2.4-1,3.1s-1.6,1.1-2.7,1.1s-2-0.4-2.7-1.1
		c-0.7-0.7-1-1.8-1-3.1c0-1.4,0.3-2.4,1-3.2C508.3,200.5,509.2,200.1,510.3,200.1z M512.8,204.4c0-1-0.2-1.7-0.6-2.3
		c-0.4-0.6-1-0.8-1.8-0.8s-1.4,0.3-1.8,0.8s-0.6,1.3-0.6,2.3s0.2,1.7,0.6,2.3c0.4,0.5,1,0.8,1.8,0.8s1.4-0.3,1.8-0.8
		C512.6,206.1,512.8,205.4,512.8,204.4z"/>
	<path d="M518,201.9c0.5-1.2,1.4-1.8,2.7-1.8c0.7,0,1.3,0.2,1.8,0.5s0.8,0.8,1,1.4c0.5-1.3,1.5-2,2.8-2c1,0,1.7,0.3,2.3,1
		c0.5,0.6,0.8,1.5,0.8,2.6v4.8h-1.3v-4.8c0-0.8-0.2-1.4-0.6-1.8c-0.4-0.4-0.9-0.6-1.6-0.6s-1.2,0.3-1.6,0.8
		c-0.4,0.5-0.6,1.3-0.6,2.3v3.9h-1.3v-4.8c0-0.8-0.2-1.4-0.6-1.8c-0.4-0.4-0.9-0.6-1.6-0.6s-1.2,0.3-1.6,0.8
		c-0.4,0.6-0.6,1.3-0.7,2.3v4h-1.3V200h1.2L518,201.9z"/>
	<path d="M533.9,201.6c0.5-1,1.3-1.4,2.4-1.4s1.9,0.4,2.7,1.2s1.1,1.8,1.1,3.1s-0.4,2.3-1.1,3.1s-1.6,1.2-2.6,1.2s-1.8-0.4-2.3-1.2
		v5h-1.3v-12.1h1.1V201.6z M536.2,207.5c0.6,0,1.2-0.3,1.7-0.8s0.7-1.3,0.7-2.2s-0.2-1.7-0.7-2.3s-1-0.8-1.7-0.8s-1.2,0.2-1.6,0.6
		c-0.4,0.4-0.6,1-0.7,1.7v1.5c0,0.7,0.2,1.3,0.6,1.7S535.5,207.5,536.2,207.5z"/>
	<path d="M542.7,196.9h1.3v11.6h-1.3V196.9z"/>
	<path d="M545.8,210.8c0.6,0.4,1.1,0.6,1.8,0.6c0.5,0,0.8-0.2,1.2-0.7c0.2-0.3,0.5-0.8,0.6-1.5l0.2-0.8l-3.3-8.1h1.5l2.5,6.5
		l1.9-6.5h1.4l-3,9.7c-0.3,0.8-0.6,1.5-1,1.9c-0.4,0.4-1,0.7-1.6,0.7s-1.3-0.2-2-0.6v-1.2H545.8z"/>
	<path d="M559.7,200.3l2,6.5l1.9-6.1h1.1l1.9,6.2l2-6.5h1.3l-2.7,8.1H566l-1.9-5.7l-1.8,5.7H561l-2.7-8.1L559.7,200.3L559.7,200.3z"
		/>
	<path d="M572.8,198.4c-0.3,0-0.5-0.1-0.6-0.2c-0.1-0.1-0.2-0.4-0.2-0.6s0.1-0.5,0.2-0.6c0.2-0.2,0.4-0.2,0.6-0.2
		c0.3,0,0.5,0.1,0.7,0.2c0.2,0.2,0.2,0.4,0.2,0.6s-0.1,0.5-0.2,0.6S573.1,198.4,572.8,198.4z M572.1,200.3h1.3v8.1h-1.3V200.3z"/>
	<path d="M581.4,208.2c-1,0.5-1.9,0.5-2.7,0.3c-0.6-0.2-1-0.6-1.2-1.1c-0.1-0.3-0.2-0.6-0.2-1v-5H576v-1h1.3v-2.3h1.3v2.3h2.5v1
		h-2.5v5c0,0.8,0.4,1.2,1.2,1.2c0.4,0,0.9-0.1,1.4-0.3L581.4,208.2z"/>
	<path d="M584.9,201.8c0.5-1.1,1.4-1.7,2.7-1.7c1,0,1.7,0.3,2.3,1c0.5,0.6,0.8,1.5,0.8,2.6v4.8h-1.3v-4.8c0-0.8-0.2-1.4-0.6-1.8
		s-0.9-0.6-1.6-0.6c-0.7,0-1.2,0.3-1.7,0.9c-0.4,0.6-0.6,1.4-0.6,2.4v3.8h-1.3v-11.6h1.3L584.9,201.8L584.9,201.8z"/>
	<path d="M602.9,203.2c0-0.7-0.2-1.3-0.5-1.6s-0.8-0.5-1.3-0.5c-0.6,0-1.1,0.1-1.4,0.3c-0.4,0.2-0.5,0.6-0.5,1.1h-1.5
		c0-1.2,0.7-2,2-2.3c0.4-0.1,0.9-0.1,1.3-0.1c1,0,1.8,0.3,2.4,0.8c0.6,0.5,0.8,1.3,0.8,2.3v5.2H603l-0.1-1.4c-0.5,1-1.4,1.5-2.7,1.5
		c-0.9,0-1.6-0.2-2.1-0.7s-0.8-1.1-0.8-1.8s0.3-1.3,0.9-1.7s1.3-0.6,2.2-0.6s1.7,0.1,2.5,0.4V203.2z M602.9,205.1
		c-0.8-0.2-1.5-0.3-2.1-0.3s-1.1,0.1-1.5,0.3s-0.6,0.6-0.6,1c0,1,0.6,1.5,1.7,1.5c0.7,0,1.2-0.2,1.7-0.7
		C602.6,206.4,602.9,205.8,602.9,205.1z"/>
	<path d="M614.1,200.1c1,0,1.7,0.2,2.3,0.7s0.9,1.1,1.1,1.8l-1.4,0.1c-0.1-0.5-0.4-0.8-0.7-1.1s-0.7-0.4-1.1-0.4
		c-0.7,0-1.3,0.3-1.8,0.8c-0.4,0.5-0.7,1.3-0.7,2.2s0.2,1.7,0.7,2.3c0.4,0.6,1,0.8,1.6,0.8s1.1-0.2,1.5-0.5c0.3-0.3,0.5-0.7,0.5-1.3
		h1.4c0,0.9-0.3,1.6-0.9,2.1s-1.4,0.8-2.4,0.8s-1.9-0.4-2.6-1.2c-0.7-0.8-1.1-1.8-1.1-3.1s0.4-2.3,1.1-3.1
		C612.3,200.5,613.2,200.1,614.1,200.1z"/>
	<path d="M620.2,196.9h1.3v11.6h-1.3V196.9z"/>
	<path d="M625.7,198.4c-0.3,0-0.5-0.1-0.6-0.2s-0.2-0.4-0.2-0.6s0.1-0.5,0.2-0.6c0.2-0.2,0.4-0.2,0.6-0.2c0.3,0,0.5,0.1,0.7,0.2
		c0.2,0.2,0.2,0.4,0.2,0.6s-0.1,0.5-0.2,0.6S625.9,198.4,625.7,198.4z M625,200.3h1.3v8.1H625V200.3z"/>
	<path d="M631.3,201.9c0.5-1.2,1.4-1.8,2.7-1.8c0.7,0,1.3,0.2,1.8,0.5s0.8,0.8,1,1.4c0.5-1.3,1.5-2,2.8-2c1,0,1.7,0.3,2.3,1
		c0.5,0.6,0.8,1.5,0.8,2.6v4.8h-1.3v-4.8c0-0.8-0.2-1.4-0.6-1.8s-0.9-0.6-1.6-0.6s-1.2,0.3-1.6,0.8s-0.6,1.3-0.6,2.3v3.9h-1.3v-4.8
		c0-0.8-0.2-1.4-0.6-1.8c-0.4-0.4-0.9-0.6-1.6-0.6c-0.7,0-1.2,0.3-1.6,0.8c-0.4,0.6-0.6,1.3-0.7,2.3v4H630V200h1.2L631.3,201.9z"/>
	<path d="M650.9,203.2c0-0.7-0.2-1.3-0.5-1.6s-0.8-0.5-1.3-0.5c-0.6,0-1.1,0.1-1.4,0.3c-0.4,0.2-0.5,0.6-0.5,1.1h-1.5
		c0-1.2,0.7-2,2-2.3c0.4-0.1,0.9-0.1,1.3-0.1c1,0,1.8,0.3,2.4,0.8c0.6,0.5,0.8,1.3,0.8,2.3v5.2H651l-0.1-1.4c-0.5,1-1.4,1.5-2.7,1.5
		c-0.9,0-1.6-0.2-2.1-0.7s-0.8-1.1-0.8-1.8s0.3-1.3,0.9-1.7c0.6-0.4,1.3-0.6,2.2-0.6s1.7,0.1,2.5,0.4L650.9,203.2L650.9,203.2z
		 M650.9,205.1c-0.8-0.2-1.5-0.3-2.1-0.3s-1.1,0.1-1.5,0.3s-0.6,0.6-0.6,1c0,1,0.6,1.5,1.7,1.5c0.7,0,1.2-0.2,1.7-0.7
		C650.7,206.4,650.9,205.8,650.9,205.1z"/>
	<path d="M659.7,208.2c-1,0.5-1.9,0.5-2.7,0.3c-0.6-0.2-1-0.6-1.2-1.1c-0.1-0.3-0.2-0.6-0.2-1v-5h-1.3v-1h1.3v-2.3h1.3v2.3h2.5v1
		h-2.5v5c0,0.8,0.4,1.2,1.2,1.2c0.4,0,0.9-0.1,1.4-0.3L659.7,208.2z"/>
	<path d="M664.6,207.6c1.1,0,1.8-0.5,1.9-1.5h1.4c-0.1,0.8-0.5,1.4-1.1,1.9s-1.3,0.7-2.2,0.7c-1.1,0-2-0.4-2.7-1.2s-1-1.8-1-3.1
		s0.3-2.3,1-3.1s1.6-1.2,2.7-1.2s2,0.4,2.5,1.3c0.6,0.9,0.8,2,0.6,3.2h-5.6c0,0.8,0.2,1.5,0.6,2.1
		C663.3,207.3,663.9,207.6,664.6,207.6z M665.6,201.4c-0.3-0.1-0.6-0.2-1-0.2c-0.7,0-1.2,0.2-1.6,0.7c-0.4,0.5-0.6,1.1-0.7,1.8h4.3
		C666.6,202.5,666.3,201.8,665.6,201.4z"/>
	<path d="M678.9,208.2c-1,0.5-1.9,0.5-2.7,0.3c-0.6-0.2-1-0.6-1.2-1.1c-0.1-0.3-0.2-0.6-0.2-1v-5h-1.3v-1h1.3v-2.3h1.3v2.3h2.5v1
		h-2.5v5c0,0.8,0.4,1.2,1.2,1.2c0.4,0,0.9-0.1,1.4-0.3L678.9,208.2z"/>
	<path d="M686,203.2c0-0.7-0.2-1.3-0.5-1.6s-0.8-0.5-1.3-0.5c-0.6,0-1.1,0.1-1.4,0.3c-0.4,0.2-0.5,0.6-0.5,1.1h-1.5
		c0-1.2,0.7-2,2-2.3c0.4-0.1,0.9-0.1,1.3-0.1c1,0,1.8,0.3,2.4,0.8c0.6,0.5,0.8,1.3,0.8,2.3v5.2h-1.2L686,207c-0.5,1-1.4,1.5-2.7,1.5
		c-0.9,0-1.6-0.2-2.1-0.7s-0.8-1.1-0.8-1.8s0.3-1.3,0.9-1.7c0.6-0.4,1.3-0.6,2.2-0.6s1.7,0.1,2.5,0.4L686,203.2L686,203.2z
		 M686,205.1c-0.8-0.2-1.5-0.3-2.1-0.3s-1.1,0.1-1.5,0.3s-0.6,0.6-0.6,1c0,1,0.6,1.5,1.7,1.5c0.7,0,1.2-0.2,1.7-0.7
		C685.8,206.4,686,205.8,686,205.1z"/>
</g>
<g class="st1">
	<path d="M693.8,201.5c-1.3,0-1.9,1-2,3v4h-1.3v-8.1h1.3v1.6c0.4-1.1,1.1-1.7,2.2-1.7c0.3,0,0.6,0.1,0.9,0.2l-0.1,1.3
		C694.5,201.5,694.2,201.5,693.8,201.5z"/>
</g>
<g class="st1">
	<path d="M697,208.2c-0.7-0.3-1-0.8-1-1.5c0-0.4,0.1-0.7,0.4-0.9c0.3-0.3,0.6-0.4,1-0.5c-0.6-0.5-0.9-1.3-0.9-2.1s0.3-1.6,0.9-2.1
		s1.4-0.8,2.2-0.8s1.6,0.2,2.2,0.6c0.1-0.6,0.3-1.1,0.7-1.4c0.4-0.4,0.9-0.5,1.6-0.5l-0.1,1.3c-1,0-1.5,0.4-1.6,1.3
		c0.4,0.5,0.6,1.1,0.6,1.8c0,0.9-0.3,1.6-0.9,2.2c-0.6,0.6-1.4,0.8-2.4,0.8c-0.6,0-1.2-0.1-1.7-0.4c-0.2,0-0.4,0.2-0.6,0.3
		c-0.2,0.2-0.3,0.4-0.3,0.7c0,0.6,0.5,0.9,1.5,0.9h3.2c0.8,0,1.4,0.2,1.8,0.5c0.4,0.3,0.7,0.8,0.7,1.4c0,0.9-0.4,1.6-1.3,2.3
		c-0.9,0.6-2,1-3.3,1s-2.4-0.2-3.1-0.7c-0.8-0.5-1.1-1.1-1.1-1.9c0-0.5,0.1-0.9,0.4-1.2C696.1,208.6,696.5,208.3,697,208.2z
		 M696.8,210c0,0.4,0.2,0.8,0.7,1.1s1.2,0.5,2.1,0.5c1,0,1.8-0.2,2.4-0.6c0.6-0.4,1-0.9,1-1.5c0-0.3-0.1-0.5-0.3-0.7
		s-0.5-0.3-0.9-0.3h-3.3c-0.6,0-1,0.2-1.3,0.4C696.9,209.2,696.8,209.6,696.8,210z M701.8,203.1c0-0.6-0.2-1.1-0.5-1.4
		s-0.8-0.6-1.5-0.6c-0.6,0-1.1,0.2-1.5,0.6c-0.4,0.4-0.5,0.8-0.5,1.4c0,0.6,0.2,1.1,0.5,1.5c0.4,0.4,0.8,0.6,1.5,0.6
		c0.6,0,1.1-0.2,1.4-0.6C701.6,204.2,701.8,203.7,701.8,203.1z"/>
	<path d="M709.1,207.6c1.1,0,1.8-0.5,1.9-1.5h1.4c-0.1,0.8-0.5,1.4-1.1,1.9c-0.6,0.4-1.3,0.7-2.2,0.7c-1.1,0-2-0.4-2.7-1.2
		s-1-1.8-1-3.1s0.3-2.3,1-3.1s1.6-1.2,2.7-1.2c1.1,0,2,0.4,2.5,1.3c0.6,0.9,0.8,2,0.6,3.2h-5.6c0,0.8,0.2,1.5,0.6,2.1
		C707.8,207.3,708.3,207.6,709.1,207.6z M710.1,201.4c-0.3-0.1-0.6-0.2-1-0.2c-0.7,0-1.2,0.2-1.6,0.7c-0.4,0.5-0.6,1.1-0.7,1.8h4.3
		C711.1,202.5,710.8,201.8,710.1,201.4z"/>
	<path d="M719.3,208.2c-1,0.5-1.9,0.5-2.7,0.3c-0.6-0.2-1-0.6-1.2-1.1c-0.1-0.3-0.2-0.6-0.2-1v-5h-1.3v-1h1.3v-2.3h1.3v2.3h2.6v1
		h-2.6v5c0,0.8,0.4,1.2,1.2,1.2c0.4,0,0.9-0.1,1.4-0.3L719.3,208.2z"/>
</g>
<line class="st0" x1="128.8" y1="22.7" x2="274.5" y2="22.7"/>
<line class="st0" x1="128.8" y1="0" x2="128.8" y2="22.7"/>
<line class="st0" x1="274.5" y1="22.7" x2="274.5" y2="0"/>
<line class="st0" x1="128.8" y1="128" x2="207.4" y2="128"/>
<line class="st0" x1="128.8" y1="105.3" x2="128.8" y2="128"/>
<line class="st0" x1="207.4" y1="128" x2="207.4" y2="105.3"/>
<line class="st0" x1="255.5" y1="22.7" x2="255.5" y2="181.8"/>
<line class="st0" x1="187.5" y1="128" x2="187.5" y2="181.8"/>
</svg>
