<?xml version="1.0" encoding="utf-8"?>
<!-- Generator: Adobe Illustrator 21.1.0, SVG Export Plug-In . SVG Version: 6.00 Build 0)  -->
<svg version="1.1" id="Layer_1" xmlns="http://www.w3.org/2000/svg" xmlns:xlink="http://www.w3.org/1999/xlink" x="0px" y="0px"
	 viewBox="0 0 1007 84.3" style="enable-background:new 0 0 1007 84.3;" xml:space="preserve">
<style type="text/css">
	.st0{fill:none;stroke:#231F20;stroke-miterlimit:10;}
	.st1{enable-background:new    ;}
</style>
<title>annotation-1</title>
<line class="st0" x1="0" y1="24.4" x2="1006.5" y2="24.4"/>
<line class="st0" x1="1006.5" y1="24.4" x2="1006.5" y2="84.3"/>
<g class="st1">
	<path d="M0.8,4.2c0.8-0.1,1.4-0.4,2-0.9h1.1V14H2.6V4.9C2,5.3,1.4,5.5,0.8,5.5V4.2z"/>
	<path d="M7.1,14.2c-0.3,0-0.5-0.1-0.7-0.3c-0.2-0.2-0.3-0.4-0.3-0.7c0-0.3,0.1-0.5,0.3-0.7c0.2-0.2,0.4-0.3,0.7-0.3
		s0.5,0.1,0.7,0.3c0.2,0.2,0.3,0.4,0.3,0.7c0,0.3-0.1,0.5-0.3,0.7C7.7,14.1,7.4,14.2,7.1,14.2z"/>
	<path d="M16.8,3.3h1.6L22,14h-1.4l-0.9-2.7h-4.2L14.6,14h-1.4L16.8,3.3z M15.8,10.2h3.6L17.6,5L15.8,10.2z"/>
	<path d="M24.2,2.4h1.3V14h-1.3V2.4z"/>
	<path d="M29,2.4h1.3V14H29V2.4z"/>
	<path d="M36.7,5.7c1.1,0,2,0.4,2.7,1.1c0.7,0.7,1,1.8,1,3.2c0,1.4-0.3,2.4-1,3.1c-0.7,0.7-1.6,1.1-2.7,1.1c-1.1,0-2-0.4-2.7-1.1
		s-1-1.8-1-3.1c0-1.4,0.3-2.4,1-3.2C34.6,6.1,35.5,5.7,36.7,5.7z M39.1,9.9c0-1-0.2-1.7-0.6-2.3s-1-0.8-1.8-0.8
		c-0.8,0-1.4,0.3-1.8,0.8S34.2,9,34.2,9.9s0.2,1.7,0.6,2.3c0.4,0.5,1,0.8,1.8,0.8c0.8,0,1.4-0.3,1.8-0.8
		C38.9,11.7,39.1,10.9,39.1,9.9z"/>
	<path d="M45.7,5.7c1,0,1.7,0.2,2.3,0.7s0.9,1.1,1.1,1.8l-1.4,0.1c-0.1-0.5-0.4-0.8-0.7-1.1C46.7,7,46.3,6.9,46,6.9
		c-0.7,0-1.3,0.3-1.8,0.8S43.5,9,43.5,9.9s0.2,1.7,0.7,2.3c0.4,0.6,1,0.8,1.6,0.8c0.7,0,1.1-0.2,1.5-0.5c0.3-0.3,0.5-0.7,0.5-1.3
		h1.4c0,0.9-0.3,1.6-0.9,2.1c-0.6,0.5-1.4,0.8-2.4,0.8c-1,0-1.9-0.4-2.6-1.2c-0.7-0.8-1.1-1.8-1.1-3.1s0.4-2.3,1.1-3.1
		C43.9,6.1,44.8,5.7,45.7,5.7z"/>
	<path d="M56.8,8.8c0-0.7-0.2-1.3-0.5-1.6S55.6,6.7,55,6.7c-0.6,0-1.1,0.1-1.4,0.3s-0.5,0.6-0.5,1.1h-1.5c0-1.2,0.7-2,2-2.3
		c0.4-0.1,0.9-0.1,1.3-0.1c1,0,1.8,0.3,2.4,0.8c0.6,0.5,0.9,1.3,0.9,2.3V14H57l-0.1-1.4c-0.5,1-1.4,1.5-2.7,1.5
		c-0.9,0-1.6-0.2-2.1-0.7s-0.8-1.1-0.8-1.8c0-0.7,0.3-1.3,0.9-1.7c0.6-0.4,1.3-0.6,2.2-0.6c0.9,0,1.7,0.1,2.5,0.4V8.8z M56.8,10.6
		c-0.8-0.2-1.5-0.3-2.1-0.3c-0.6,0-1.1,0.1-1.5,0.3c-0.4,0.2-0.6,0.6-0.6,1c0,1,0.6,1.5,1.7,1.5c0.7,0,1.2-0.2,1.7-0.7
		C56.6,12,56.8,11.4,56.8,10.6z"/>
	<path d="M65.5,13.8c-1,0.5-1.9,0.5-2.7,0.3c-0.6-0.2-1-0.6-1.2-1.1c-0.1-0.3-0.2-0.6-0.2-1v-5h-1.3v-1h1.3V3.6h1.3v2.3h2.6v1h-2.6
		v5c0,0.8,0.4,1.2,1.2,1.2c0.4,0,0.9-0.1,1.4-0.3L65.5,13.8z"/>
	<path d="M68.4,4c-0.3,0-0.5-0.1-0.6-0.2c-0.2-0.2-0.2-0.4-0.2-0.6s0.1-0.5,0.2-0.6c0.2-0.2,0.4-0.2,0.6-0.2s0.5,0.1,0.7,0.2
		c0.2,0.2,0.2,0.4,0.2,0.6s-0.1,0.5-0.2,0.6C68.9,3.9,68.7,4,68.4,4z M67.8,5.9h1.3V14h-1.3V5.9z"/>
	<path d="M75.7,5.7c1.1,0,2,0.4,2.7,1.1c0.7,0.7,1,1.8,1,3.2c0,1.4-0.3,2.4-1,3.1c-0.7,0.7-1.6,1.1-2.7,1.1c-1.1,0-2-0.4-2.7-1.1
		s-1-1.8-1-3.1c0-1.4,0.3-2.4,1-3.2C73.6,6.1,74.5,5.7,75.7,5.7z M78.1,9.9c0-1-0.2-1.7-0.6-2.3s-1-0.8-1.8-0.8
		c-0.8,0-1.4,0.3-1.8,0.8S73.3,9,73.3,9.9s0.2,1.7,0.6,2.3c0.4,0.5,1,0.8,1.8,0.8c0.8,0,1.4-0.3,1.8-0.8
		C77.9,11.7,78.1,10.9,78.1,9.9z"/>
	<path d="M83.3,7.5c0.5-1.2,1.4-1.8,2.7-1.8c1,0,1.7,0.3,2.3,1c0.5,0.6,0.8,1.5,0.8,2.6V14h-1.3V9.2c0-0.8-0.2-1.4-0.6-1.8
		c-0.4-0.4-0.9-0.6-1.6-0.6S84.4,7.2,84,7.7C83.6,8.3,83.4,9,83.4,10v4H82V5.9h1.2L83.3,7.5z"/>
	<path d="M103.8,6.4c0,0.9-0.2,1.6-0.7,2.1s-1.2,0.9-2.1,1.1l3.1,4.4h-1.7l-2.8-4.4h-1.9V14h-1.3V3.3h3.7c1.2,0,2.1,0.3,2.8,0.9
		C103.5,4.8,103.8,5.5,103.8,6.4z M100,8.7c0.8,0,1.4-0.2,1.8-0.6c0.4-0.4,0.6-0.9,0.6-1.5s-0.2-1.2-0.6-1.5c-0.4-0.4-1-0.6-1.7-0.6
		h-2.4v4.2H100z"/>
	<path d="M112.3,12.4c-0.6,1.2-1.5,1.8-2.7,1.8c-0.9,0-1.7-0.3-2.2-0.8c-0.6-0.5-0.8-1.3-0.8-2.4V5.9h1.3v5.1c0,1.4,0.6,2.1,1.9,2.1
		c0.7,0,1.3-0.3,1.8-0.9c0.5-0.6,0.7-1.3,0.7-2.2V5.9h1.3V14h-1.3V12.4z"/>
	<path d="M117.1,2.4h1.3V14h-1.3V2.4z"/>
	<path d="M124.6,13.1c1.1,0,1.8-0.5,1.9-1.5h1.4c-0.1,0.8-0.5,1.4-1.1,1.9c-0.6,0.4-1.3,0.7-2.2,0.7c-1.1,0-2-0.4-2.7-1.2
		c-0.7-0.8-1-1.8-1-3.1s0.3-2.3,1-3.1s1.6-1.2,2.7-1.2c1.1,0,2,0.4,2.5,1.3s0.8,2,0.6,3.2h-5.6c0,0.8,0.2,1.5,0.6,2.1
		C123.3,12.9,123.9,13.1,124.6,13.1z M125.6,7c-0.3-0.1-0.6-0.2-1-0.2c-0.7,0-1.2,0.2-1.6,0.7c-0.4,0.5-0.6,1.1-0.7,1.8h4.3
		C126.6,8.1,126.3,7.3,125.6,7z"/>
	<path d="M131,6.3c0.6-0.4,1.3-0.6,2.3-0.6c1,0,1.7,0.2,2.3,0.6s0.8,0.9,0.9,1.5h-1.3c-0.1-0.7-0.7-1.1-1.9-1.1
		c-0.6,0-1,0.1-1.3,0.4c-0.3,0.2-0.5,0.5-0.5,0.8s0.1,0.5,0.3,0.7c0.2,0.2,0.6,0.4,1.1,0.5l1.6,0.5c0.7,0.2,1.2,0.5,1.6,0.8
		c0.4,0.3,0.6,0.8,0.6,1.4c0,0.6-0.3,1.1-0.9,1.6c-0.6,0.5-1.4,0.7-2.5,0.7s-1.9-0.2-2.5-0.7c-0.6-0.5-0.9-1.1-1-1.9h1.3
		c0,0.5,0.2,0.9,0.6,1.1c0.4,0.3,0.9,0.4,1.5,0.4s1.1-0.1,1.5-0.4c0.4-0.2,0.6-0.5,0.6-0.9s-0.1-0.6-0.3-0.8
		c-0.2-0.2-0.6-0.3-1.1-0.5l-1.6-0.5c-1.4-0.4-2.1-1.2-2.1-2.2C130.2,7.2,130.4,6.7,131,6.3z"/>
	<path d="M139.7,8.4c-0.3,0-0.5-0.1-0.7-0.3c-0.2-0.2-0.3-0.4-0.3-0.7c0-0.3,0.1-0.5,0.3-0.7c0.2-0.2,0.4-0.3,0.7-0.3
		c0.3,0,0.5,0.1,0.7,0.3c0.2,0.2,0.3,0.4,0.3,0.7c0,0.3-0.1,0.5-0.3,0.7C140.3,8.3,140,8.4,139.7,8.4z M139.7,13.6
		c-0.3,0-0.5-0.1-0.7-0.3c-0.2-0.2-0.3-0.4-0.3-0.7c0-0.3,0.1-0.5,0.3-0.7c0.2-0.2,0.4-0.3,0.7-0.3c0.3,0,0.5,0.1,0.7,0.3
		c0.2,0.2,0.3,0.4,0.3,0.7c0,0.3-0.1,0.5-0.3,0.7C140.3,13.5,140,13.6,139.7,13.6z"/>
</g>
<g class="st1">
	<path d="M149.4,3v4.6h4.8V3h2v11h-2V9.3h-4.8V14h-2V3H149.4z"/>
	<path d="M163.6,2.8c0.7,0,1.4,0.1,2,0.4c0.6,0.2,1.1,0.6,1.6,1.1c0.9,1,1.4,2.4,1.4,4.3c0,1.9-0.5,3.3-1.4,4.3
		c-0.9,1-2.1,1.4-3.6,1.4c-1.5,0-2.7-0.5-3.6-1.5c-0.9-1-1.4-2.4-1.4-4.3c0-1.9,0.5-3.3,1.4-4.3C160.8,3.2,162,2.8,163.6,2.8z
		 M166.5,8.5c0-1.3-0.3-2.2-0.8-2.9c-0.5-0.7-1.2-1-2.1-1c-0.9,0-1.6,0.3-2.1,1c-0.5,0.7-0.8,1.7-0.8,2.9s0.3,2.2,0.8,2.9
		c0.5,0.7,1.2,1,2.1,1c0.9,0,1.6-0.3,2.1-1C166.2,10.8,166.5,9.8,166.5,8.5z"/>
	<path d="M172,3l2.4,8.4l2.4-7.6h1.4l2.5,7.7l2.6-8.4h2.3l-3.8,11h-2.1l-2.1-6.2l-2.1,6.2h-2.1l-3.6-11H172z"/>
</g>
<g class="st1">
	<path d="M194.6,13.1c1.1,0,1.8-0.5,1.9-1.5h1.4c-0.1,0.8-0.5,1.4-1.1,1.9c-0.6,0.4-1.3,0.7-2.2,0.7c-1.1,0-2-0.4-2.7-1.2
		c-0.7-0.8-1-1.8-1-3.1s0.3-2.3,1-3.1s1.6-1.2,2.7-1.2c1.1,0,2,0.4,2.5,1.3s0.8,2,0.6,3.2h-5.6c0,0.8,0.2,1.5,0.6,2.1
		C193.3,12.9,193.9,13.1,194.6,13.1z M195.6,7c-0.3-0.1-0.6-0.2-1-0.2c-0.7,0-1.2,0.2-1.6,0.7c-0.4,0.5-0.6,1.1-0.7,1.8h4.3
		C196.7,8.1,196.3,7.3,195.6,7z"/>
	<path d="M201.9,7.5c0.5-1.2,1.4-1.8,2.7-1.8c0.7,0,1.3,0.2,1.8,0.5s0.8,0.8,1,1.4c0.5-1.3,1.5-2,2.8-2c1,0,1.7,0.3,2.3,1
		s0.8,1.5,0.8,2.6V14H212V9.2c0-0.8-0.2-1.4-0.6-1.8s-0.9-0.6-1.6-0.6s-1.2,0.3-1.6,0.8c-0.4,0.6-0.6,1.3-0.6,2.3V14h-1.3V9.2
		c0-0.8-0.2-1.4-0.6-1.8c-0.4-0.4-0.9-0.6-1.6-0.6s-1.2,0.3-1.6,0.8c-0.4,0.6-0.6,1.3-0.7,2.3v4h-1.3V5.9h1.2L201.9,7.5z"/>
	<path d="M217.2,4c-0.3,0-0.5-0.1-0.6-0.2c-0.2-0.2-0.2-0.4-0.2-0.6s0.1-0.5,0.2-0.6c0.2-0.2,0.4-0.2,0.6-0.2s0.5,0.1,0.7,0.2
		c0.2,0.2,0.2,0.4,0.2,0.6s-0.1,0.5-0.2,0.6C217.7,3.9,217.5,4,217.2,4z M216.6,5.9h1.3V14h-1.3V5.9z"/>
	<path d="M222,6.3c0.6-0.4,1.3-0.6,2.3-0.6c1,0,1.7,0.2,2.3,0.6s0.8,0.9,0.9,1.5h-1.3c-0.1-0.7-0.7-1.1-1.9-1.1
		c-0.6,0-1,0.1-1.3,0.4c-0.3,0.2-0.5,0.5-0.5,0.8s0.1,0.5,0.3,0.7c0.2,0.2,0.6,0.4,1.1,0.5l1.6,0.5c0.7,0.2,1.2,0.5,1.6,0.8
		c0.4,0.3,0.6,0.8,0.6,1.4c0,0.6-0.3,1.1-0.9,1.6c-0.6,0.5-1.4,0.7-2.5,0.7s-1.9-0.2-2.5-0.7c-0.6-0.5-0.9-1.1-1-1.9h1.3
		c0,0.5,0.2,0.9,0.6,1.1c0.4,0.3,0.9,0.4,1.5,0.4s1.1-0.1,1.5-0.4c0.4-0.2,0.6-0.5,0.6-0.9s-0.1-0.6-0.3-0.8
		c-0.2-0.2-0.6-0.3-1.1-0.5l-1.6-0.5c-1.4-0.4-2.1-1.2-2.1-2.2C221.1,7.2,221.4,6.7,222,6.3z"/>
	<path d="M230.9,6.3c0.6-0.4,1.3-0.6,2.3-0.6c1,0,1.7,0.2,2.3,0.6s0.8,0.9,0.9,1.5h-1.3c-0.1-0.7-0.7-1.1-1.9-1.1
		c-0.6,0-1,0.1-1.3,0.4c-0.3,0.2-0.5,0.5-0.5,0.8s0.1,0.5,0.3,0.7c0.2,0.2,0.6,0.4,1.1,0.5l1.6,0.5c0.7,0.2,1.2,0.5,1.6,0.8
		c0.4,0.3,0.6,0.8,0.6,1.4c0,0.6-0.3,1.1-0.9,1.6c-0.6,0.5-1.4,0.7-2.5,0.7s-1.9-0.2-2.5-0.7c-0.6-0.5-0.9-1.1-1-1.9h1.3
		c0,0.5,0.2,0.9,0.6,1.1c0.4,0.3,0.9,0.4,1.5,0.4s1.1-0.1,1.5-0.4c0.4-0.2,0.6-0.5,0.6-0.9s-0.1-0.6-0.3-0.8
		c-0.2-0.2-0.6-0.3-1.1-0.5l-1.6-0.5c-1.4-0.4-2.1-1.2-2.1-2.2C230.1,7.2,230.4,6.7,230.9,6.3z"/>
	<path d="M240.2,4c-0.3,0-0.5-0.1-0.6-0.2c-0.2-0.2-0.2-0.4-0.2-0.6s0.1-0.5,0.2-0.6c0.2-0.2,0.4-0.2,0.6-0.2s0.5,0.1,0.7,0.2
		c0.2,0.2,0.2,0.4,0.2,0.6s-0.1,0.5-0.2,0.6C240.7,3.9,240.5,4,240.2,4z M239.5,5.9h1.3V14h-1.3V5.9z"/>
	<path d="M247.5,5.7c1.1,0,2,0.4,2.7,1.1c0.7,0.7,1,1.8,1,3.2c0,1.4-0.3,2.4-1,3.1c-0.7,0.7-1.6,1.1-2.7,1.1c-1.1,0-2-0.4-2.7-1.1
		s-1-1.8-1-3.1c0-1.4,0.3-2.4,1-3.2C245.4,6.1,246.3,5.7,247.5,5.7z M249.9,9.9c0-1-0.2-1.7-0.6-2.3s-1-0.8-1.8-0.8
		c-0.8,0-1.4,0.3-1.8,0.8S245,9,245,9.9s0.2,1.7,0.6,2.3c0.4,0.5,1,0.8,1.8,0.8c0.8,0,1.4-0.3,1.8-0.8
		C249.7,11.7,249.9,10.9,249.9,9.9z"/>
	<path d="M255.1,7.5c0.5-1.2,1.4-1.8,2.7-1.8c1,0,1.7,0.3,2.3,1c0.5,0.6,0.8,1.5,0.8,2.6V14h-1.3V9.2c0-0.8-0.2-1.4-0.6-1.8
		c-0.4-0.4-0.9-0.6-1.6-0.6s-1.2,0.3-1.6,0.8c-0.4,0.6-0.6,1.3-0.7,2.3v4h-1.3V5.9h1.2L255.1,7.5z"/>
	<path d="M264.5,6.3c0.6-0.4,1.3-0.6,2.3-0.6c1,0,1.7,0.2,2.3,0.6s0.8,0.9,0.9,1.5h-1.3c-0.1-0.7-0.7-1.1-1.9-1.1
		c-0.6,0-1,0.1-1.3,0.4c-0.3,0.2-0.5,0.5-0.5,0.8s0.1,0.5,0.3,0.7c0.2,0.2,0.6,0.4,1.1,0.5l1.6,0.5c0.7,0.2,1.2,0.5,1.6,0.8
		c0.4,0.3,0.6,0.8,0.6,1.4c0,0.6-0.3,1.1-0.9,1.6c-0.6,0.5-1.4,0.7-2.5,0.7s-1.9-0.2-2.5-0.7c-0.6-0.5-0.9-1.1-1-1.9h1.3
		c0,0.5,0.2,0.9,0.6,1.1c0.4,0.3,0.9,0.4,1.5,0.4s1.1-0.1,1.5-0.4c0.4-0.2,0.6-0.5,0.6-0.9s-0.1-0.6-0.3-0.8
		c-0.2-0.2-0.6-0.3-1.1-0.5l-1.6-0.5c-1.4-0.4-2.1-1.2-2.1-2.2C263.6,7.2,263.9,6.7,264.5,6.3z"/>
	<path d="M282.1,8.8c0-0.7-0.2-1.3-0.5-1.6s-0.8-0.5-1.3-0.5c-0.6,0-1.1,0.1-1.4,0.3s-0.5,0.6-0.5,1.1h-1.5c0-1.2,0.7-2,2-2.3
		c0.4-0.1,0.9-0.1,1.3-0.1c1,0,1.8,0.3,2.4,0.8c0.6,0.5,0.9,1.3,0.9,2.3V14h-1.2l-0.1-1.4c-0.5,1-1.4,1.5-2.7,1.5
		c-0.9,0-1.6-0.2-2.1-0.7s-0.8-1.1-0.8-1.8c0-0.7,0.3-1.3,0.9-1.7c0.6-0.4,1.3-0.6,2.2-0.6c0.9,0,1.7,0.1,2.5,0.4V8.8z M282.1,10.6
		c-0.8-0.2-1.5-0.3-2.1-0.3c-0.6,0-1.1,0.1-1.5,0.3c-0.4,0.2-0.6,0.6-0.6,1c0,1,0.6,1.5,1.7,1.5c0.7,0,1.2-0.2,1.7-0.7
		C281.8,12,282.1,11.4,282.1,10.6z"/>
	<path d="M289.9,7c-1.3,0-1.9,1-2,3v4h-1.3V5.9h1.3v1.6c0.4-1.1,1.1-1.7,2.2-1.7c0.3,0,0.6,0.1,0.9,0.2l-0.1,1.3
		C290.6,7.1,290.2,7,289.9,7z"/>
	<path d="M295.8,13.1c1.1,0,1.8-0.5,1.9-1.5h1.4c-0.1,0.8-0.5,1.4-1.1,1.9c-0.6,0.4-1.3,0.7-2.2,0.7c-1.1,0-2-0.4-2.7-1.2
		c-0.7-0.8-1-1.8-1-3.1s0.3-2.3,1-3.1s1.6-1.2,2.7-1.2c1.1,0,2,0.4,2.5,1.3s0.8,2,0.6,3.2h-5.6c0,0.8,0.2,1.5,0.6,2.1
		C294.5,12.9,295.1,13.1,295.8,13.1z M296.8,7c-0.3-0.1-0.6-0.2-1-0.2c-0.7,0-1.2,0.2-1.6,0.7c-0.4,0.5-0.6,1.1-0.7,1.8h4.3
		C297.9,8.1,297.5,7.3,296.8,7z"/>
	<path d="M311.2,7.1V2.4h1.3V14h-1.1l-0.2-1.4c-0.3,0.5-0.6,0.9-1,1.2s-0.9,0.4-1.4,0.4c-1,0-1.9-0.4-2.6-1.2c-0.7-0.8-1-1.8-1-3.1
		s0.3-2.3,1-3.1s1.6-1.2,2.6-1.2S310.6,6.2,311.2,7.1z M308.9,6.9c-0.7,0-1.2,0.3-1.7,0.8c-0.4,0.6-0.7,1.3-0.7,2.2
		c0,0.9,0.2,1.7,0.7,2.2c0.5,0.6,1,0.8,1.6,0.8s1.2-0.2,1.6-0.6s0.7-1,0.7-1.7V9.3c0-0.8-0.2-1.4-0.7-1.8
		C310.1,7.1,309.5,6.9,308.9,6.9z"/>
	<path d="M316.7,4c-0.3,0-0.5-0.1-0.6-0.2c-0.2-0.2-0.2-0.4-0.2-0.6s0.1-0.5,0.2-0.6c0.2-0.2,0.4-0.2,0.6-0.2s0.5,0.1,0.7,0.2
		c0.2,0.2,0.2,0.4,0.2,0.6s-0.1,0.5-0.2,0.6C317.2,3.9,317,4,316.7,4z M316,5.9h1.3V14H316V5.9z"/>
	<path d="M321.5,6.3c0.6-0.4,1.3-0.6,2.3-0.6c1,0,1.7,0.2,2.3,0.6s0.8,0.9,0.9,1.5h-1.3c-0.1-0.7-0.7-1.1-1.9-1.1
		c-0.6,0-1,0.1-1.3,0.4c-0.3,0.2-0.5,0.5-0.5,0.8s0.1,0.5,0.3,0.7c0.2,0.2,0.6,0.4,1.1,0.5l1.6,0.5c0.7,0.2,1.2,0.5,1.6,0.8
		c0.4,0.3,0.6,0.8,0.6,1.4c0,0.6-0.3,1.1-0.9,1.6c-0.6,0.5-1.4,0.7-2.5,0.7s-1.9-0.2-2.5-0.7c-0.6-0.5-0.9-1.1-1-1.9h1.3
		c0,0.5,0.2,0.9,0.6,1.1c0.4,0.3,0.9,0.4,1.5,0.4s1.1-0.1,1.5-0.4c0.4-0.2,0.6-0.5,0.6-0.9s-0.1-0.6-0.3-0.8
		c-0.2-0.2-0.6-0.3-1.1-0.5l-1.6-0.5c-1.4-0.4-2.1-1.2-2.1-2.2C320.6,7.2,320.9,6.7,321.5,6.3z"/>
	<path d="M334.2,13.8c-1,0.5-1.9,0.5-2.7,0.3c-0.6-0.2-1-0.6-1.2-1.1c-0.1-0.3-0.2-0.6-0.2-1v-5h-1.3v-1h1.3V3.6h1.3v2.3h2.6v1h-2.6
		v5c0,0.8,0.4,1.2,1.2,1.2c0.4,0,0.9-0.1,1.4-0.3L334.2,13.8z"/>
	<path d="M339.7,7c-1.3,0-1.9,1-2,3v4h-1.3V5.9h1.3v1.6c0.4-1.1,1.1-1.7,2.2-1.7c0.3,0,0.6,0.1,0.9,0.2l-0.1,1.3
		C340.4,7.1,340,7,339.7,7z"/>
	<path d="M343.6,4c-0.3,0-0.5-0.1-0.6-0.2c-0.2-0.2-0.2-0.4-0.2-0.6s0.1-0.5,0.2-0.6c0.2-0.2,0.4-0.2,0.6-0.2s0.5,0.1,0.7,0.2
		c0.2,0.2,0.2,0.4,0.2,0.6s-0.1,0.5-0.2,0.6C344.1,3.9,343.9,4,343.6,4z M342.9,5.9h1.3V14h-1.3V5.9z"/>
	<path d="M349.3,7.1c0.5-0.9,1.3-1.4,2.4-1.4c1,0,1.9,0.4,2.6,1.2c0.7,0.8,1,1.8,1,3.1c0,1.3-0.4,2.3-1.1,3.1
		c-0.7,0.8-1.6,1.2-2.6,1.2c-0.5,0-1-0.1-1.5-0.4c-0.4-0.3-0.8-0.7-1-1.2l-0.3,1.4h-0.9V2.4h1.3V7.1z M351.6,6.9
		c-0.6,0-1.2,0.2-1.6,0.6c-0.4,0.4-0.7,1-0.7,1.7v1.3c0,0.7,0.2,1.3,0.7,1.8c0.4,0.4,1,0.7,1.6,0.7s1.2-0.3,1.6-0.8
		c0.5-0.6,0.7-1.3,0.7-2.2c0-0.9-0.2-1.7-0.7-2.2C352.8,7.2,352.2,6.9,351.6,6.9z"/>
	<path d="M363.4,12.4c-0.6,1.2-1.5,1.8-2.7,1.8c-0.9,0-1.7-0.3-2.2-0.8c-0.6-0.5-0.8-1.3-0.8-2.4V5.9h1.3v5.1c0,1.4,0.6,2.1,1.9,2.1
		c0.7,0,1.3-0.3,1.8-0.9c0.5-0.6,0.7-1.3,0.7-2.2V5.9h1.3V14h-1.3V12.4z"/>
	<path d="M372.4,13.8c-1,0.5-1.9,0.5-2.7,0.3c-0.6-0.2-1-0.6-1.2-1.1c-0.1-0.3-0.2-0.6-0.2-1v-5H367v-1h1.3V3.6h1.3v2.3h2.6v1h-2.6
		v5c0,0.8,0.4,1.2,1.2,1.2c0.4,0,0.9-0.1,1.4-0.3L372.4,13.8z"/>
	<path d="M377.3,13.1c1.1,0,1.8-0.5,1.9-1.5h1.4c-0.1,0.8-0.5,1.4-1.1,1.9c-0.6,0.4-1.3,0.7-2.2,0.7c-1.1,0-2-0.4-2.7-1.2
		c-0.7-0.8-1-1.8-1-3.1s0.3-2.3,1-3.1s1.6-1.2,2.7-1.2c1.1,0,2,0.4,2.5,1.3s0.8,2,0.6,3.2H375c0,0.8,0.2,1.5,0.6,2.1
		C376,12.9,376.6,13.1,377.3,13.1z M378.3,7c-0.3-0.1-0.6-0.2-1-0.2c-0.7,0-1.2,0.2-1.6,0.7c-0.4,0.5-0.6,1.1-0.7,1.8h4.3
		C379.4,8.1,379,7.3,378.3,7z"/>
	<path d="M388.6,7.1V2.4h1.3V14h-1.1l-0.2-1.4c-0.3,0.5-0.6,0.9-1,1.2s-0.9,0.4-1.4,0.4c-1,0-1.9-0.4-2.6-1.2c-0.7-0.8-1-1.8-1-3.1
		s0.3-2.3,1-3.1s1.6-1.2,2.6-1.2S388.1,6.2,388.6,7.1z M386.3,6.9c-0.7,0-1.2,0.3-1.7,0.8C384.2,8.3,384,9,384,9.9
		c0,0.9,0.2,1.7,0.7,2.2c0.5,0.6,1,0.8,1.6,0.8s1.2-0.2,1.6-0.6s0.7-1,0.7-1.7V9.3c0-0.8-0.2-1.4-0.7-1.8
		C387.5,7.1,387,6.9,386.3,6.9z"/>
	<path d="M402.5,8.8c0-0.7-0.2-1.3-0.5-1.6s-0.8-0.5-1.3-0.5c-0.6,0-1.1,0.1-1.4,0.3s-0.5,0.6-0.5,1.1h-1.5c0-1.2,0.7-2,2-2.3
		c0.4-0.1,0.9-0.1,1.3-0.1c1,0,1.8,0.3,2.4,0.8c0.6,0.5,0.9,1.3,0.9,2.3V14h-1.2l-0.1-1.4c-0.5,1-1.4,1.5-2.7,1.5
		c-0.9,0-1.6-0.2-2.1-0.7s-0.8-1.1-0.8-1.8c0-0.7,0.3-1.3,0.9-1.7c0.6-0.4,1.3-0.6,2.2-0.6c0.9,0,1.7,0.1,2.5,0.4V8.8z M402.5,10.6
		c-0.8-0.2-1.5-0.3-2.1-0.3c-0.6,0-1.1,0.1-1.5,0.3c-0.4,0.2-0.6,0.6-0.6,1c0,1,0.6,1.5,1.7,1.5c0.7,0,1.2-0.2,1.7-0.7
		C402.2,12,402.5,11.4,402.5,10.6z"/>
	<path d="M409.7,5.7c1,0,1.7,0.2,2.3,0.7s0.9,1.1,1.1,1.8l-1.4,0.1c-0.1-0.5-0.4-0.8-0.7-1.1c-0.3-0.3-0.7-0.4-1.1-0.4
		c-0.7,0-1.3,0.3-1.8,0.8s-0.7,1.3-0.7,2.2s0.2,1.7,0.7,2.3c0.4,0.6,1,0.8,1.6,0.8c0.7,0,1.1-0.2,1.5-0.5c0.3-0.3,0.5-0.7,0.5-1.3
		h1.4c0,0.9-0.3,1.6-0.9,2.1c-0.6,0.5-1.4,0.8-2.4,0.8c-1,0-1.9-0.4-2.6-1.2c-0.7-0.8-1.1-1.8-1.1-3.1s0.4-2.3,1.1-3.1
		C407.9,6.1,408.7,5.7,409.7,5.7z"/>
	<path d="M419,7c-1.3,0-1.9,1-2,3v4h-1.3V5.9h1.3v1.6c0.4-1.1,1.1-1.7,2.2-1.7c0.3,0,0.6,0.1,0.9,0.2l-0.1,1.3
		C419.7,7.1,419.4,7,419,7z"/>
	<path d="M425.1,5.7c1.1,0,2,0.4,2.7,1.1c0.7,0.7,1,1.8,1,3.2c0,1.4-0.3,2.4-1,3.1c-0.7,0.7-1.6,1.1-2.7,1.1c-1.1,0-2-0.4-2.7-1.1
		s-1-1.8-1-3.1c0-1.4,0.3-2.4,1-3.2C423.1,6.1,424,5.7,425.1,5.7z M427.5,9.9c0-1-0.2-1.7-0.6-2.3s-1-0.8-1.8-0.8
		c-0.8,0-1.4,0.3-1.8,0.8s-0.6,1.3-0.6,2.3s0.2,1.7,0.6,2.3c0.4,0.5,1,0.8,1.8,0.8c0.8,0,1.4-0.3,1.8-0.8
		C427.3,11.7,427.5,10.9,427.5,9.9z"/>
	<path d="M431.9,6.3c0.6-0.4,1.3-0.6,2.3-0.6c1,0,1.7,0.2,2.3,0.6s0.8,0.9,0.9,1.5h-1.3c-0.1-0.7-0.7-1.1-1.9-1.1
		c-0.6,0-1,0.1-1.3,0.4c-0.3,0.2-0.5,0.5-0.5,0.8s0.1,0.5,0.3,0.7c0.2,0.2,0.6,0.4,1.1,0.5l1.6,0.5c0.7,0.2,1.2,0.5,1.6,0.8
		c0.4,0.3,0.6,0.8,0.6,1.4c0,0.6-0.3,1.1-0.9,1.6c-0.6,0.5-1.4,0.7-2.5,0.7s-1.9-0.2-2.5-0.7c-0.6-0.5-0.9-1.1-1-1.9h1.3
		c0,0.5,0.2,0.9,0.6,1.1c0.4,0.3,0.9,0.4,1.5,0.4s1.1-0.1,1.5-0.4c0.4-0.2,0.6-0.5,0.6-0.9s-0.1-0.6-0.3-0.8
		c-0.2-0.2-0.6-0.3-1.1-0.5l-1.6-0.5c-1.4-0.4-2.1-1.2-2.1-2.2C431,7.2,431.3,6.7,431.9,6.3z"/>
	<path d="M440.8,6.3c0.6-0.4,1.3-0.6,2.3-0.6c1,0,1.7,0.2,2.3,0.6s0.8,0.9,0.9,1.5H445c-0.1-0.7-0.7-1.1-1.9-1.1
		c-0.6,0-1,0.1-1.3,0.4c-0.3,0.2-0.5,0.5-0.5,0.8s0.1,0.5,0.3,0.7c0.2,0.2,0.6,0.4,1.1,0.5l1.6,0.5c0.7,0.2,1.2,0.5,1.6,0.8
		c0.4,0.3,0.6,0.8,0.6,1.4c0,0.6-0.3,1.1-0.9,1.6c-0.6,0.5-1.4,0.7-2.5,0.7s-1.9-0.2-2.5-0.7c-0.6-0.5-0.9-1.1-1-1.9h1.3
		c0,0.5,0.2,0.9,0.6,1.1c0.4,0.3,0.9,0.4,1.5,0.4s1.1-0.1,1.5-0.4c0.4-0.2,0.6-0.5,0.6-0.9s-0.1-0.6-0.3-0.8
		c-0.2-0.2-0.6-0.3-1.1-0.5l-1.6-0.5c-1.4-0.4-2.1-1.2-2.1-2.2C440,7.2,440.3,6.7,440.8,6.3z"/>
	<path d="M456.7,7c-1.3,0-1.9,1-2,3v4h-1.3V5.9h1.3v1.6c0.4-1.1,1.1-1.7,2.2-1.7c0.3,0,0.6,0.1,0.9,0.2l-0.1,1.3
		C457.4,7.1,457.1,7,456.7,7z"/>
	<path d="M462.7,13.1c1.1,0,1.8-0.5,1.9-1.5h1.4c-0.1,0.8-0.5,1.4-1.1,1.9c-0.6,0.4-1.3,0.7-2.2,0.7c-1.1,0-2-0.4-2.7-1.2
		c-0.7-0.8-1-1.8-1-3.1s0.3-2.3,1-3.1s1.6-1.2,2.7-1.2c1.1,0,2,0.4,2.5,1.3s0.8,2,0.6,3.2h-5.6c0,0.8,0.2,1.5,0.6,2.1
		C461.4,12.9,461.9,13.1,462.7,13.1z M463.7,7c-0.3-0.1-0.6-0.2-1-0.2c-0.7,0-1.2,0.2-1.6,0.7c-0.4,0.5-0.6,1.1-0.7,1.8h4.3
		C464.7,8.1,464.4,7.3,463.7,7z"/>
	<path d="M469,13.8c-0.7-0.3-1-0.8-1-1.5c0-0.4,0.1-0.7,0.4-0.9c0.3-0.3,0.6-0.4,1-0.5c-0.6-0.5-0.9-1.3-0.9-2.1s0.3-1.6,0.9-2.1
		s1.4-0.8,2.2-0.8s1.6,0.2,2.2,0.6c0.1-0.6,0.3-1.1,0.7-1.4c0.4-0.4,0.9-0.5,1.6-0.5L476,5.6c-1,0-1.5,0.4-1.6,1.3
		c0.4,0.5,0.6,1.1,0.6,1.8c0,0.9-0.3,1.6-0.9,2.2c-0.6,0.6-1.4,0.8-2.4,0.8c-0.6,0-1.2-0.1-1.7-0.4c-0.2,0-0.4,0.2-0.6,0.3
		c-0.2,0.2-0.3,0.4-0.3,0.7c0,0.6,0.5,0.9,1.5,0.9h3.2c0.8,0,1.4,0.2,1.8,0.5s0.7,0.8,0.7,1.4c0,0.9-0.4,1.6-1.3,2.3
		c-0.9,0.6-2,1-3.3,1c-1.3,0-2.4-0.2-3.1-0.7c-0.8-0.5-1.1-1.1-1.1-1.9c0-0.5,0.1-0.9,0.4-1.2C468.1,14.1,468.5,13.9,469,13.8z
		 M468.7,15.6c0,0.4,0.2,0.8,0.7,1.1s1.2,0.5,2.1,0.5s1.8-0.2,2.4-0.6s1-0.9,1-1.5c0-0.3-0.1-0.5-0.3-0.7c-0.2-0.2-0.5-0.3-0.9-0.3
		h-3.3c-0.6,0-1,0.2-1.3,0.4C468.9,14.8,468.7,15.1,468.7,15.6z M473.7,8.6c0-0.6-0.2-1.1-0.5-1.4c-0.4-0.4-0.8-0.6-1.5-0.6
		s-1.1,0.2-1.5,0.6c-0.4,0.4-0.5,0.8-0.5,1.4c0,0.6,0.2,1.1,0.5,1.5c0.4,0.4,0.8,0.6,1.5,0.6c0.6,0,1.1-0.2,1.4-0.6
		C473.5,9.7,473.7,9.2,473.7,8.6z"/>
	<path d="M479,4c-0.3,0-0.5-0.1-0.6-0.2c-0.2-0.2-0.2-0.4-0.2-0.6s0.1-0.5,0.2-0.6c0.2-0.2,0.4-0.2,0.6-0.2s0.5,0.1,0.7,0.2
		c0.2,0.2,0.2,0.4,0.2,0.6s-0.1,0.5-0.2,0.6C479.5,3.9,479.3,4,479,4z M478.3,5.9h1.3V14h-1.3V5.9z"/>
	<path d="M486.2,5.7c1.1,0,2,0.4,2.7,1.1c0.7,0.7,1,1.8,1,3.2c0,1.4-0.3,2.4-1,3.1c-0.7,0.7-1.6,1.1-2.7,1.1c-1.1,0-2-0.4-2.7-1.1
		s-1-1.8-1-3.1c0-1.4,0.3-2.4,1-3.2C484.2,6.1,485.1,5.7,486.2,5.7z M488.7,9.9c0-1-0.2-1.7-0.6-2.3s-1-0.8-1.8-0.8
		c-0.8,0-1.4,0.3-1.8,0.8s-0.6,1.3-0.6,2.3s0.2,1.7,0.6,2.3c0.4,0.5,1,0.8,1.8,0.8c0.8,0,1.4-0.3,1.8-0.8
		C488.5,11.7,488.7,10.9,488.7,9.9z"/>
	<path d="M493.9,7.5c0.5-1.2,1.4-1.8,2.7-1.8c1,0,1.7,0.3,2.3,1c0.5,0.6,0.8,1.5,0.8,2.6V14h-1.3V9.2c0-0.8-0.2-1.4-0.6-1.8
		c-0.4-0.4-0.9-0.6-1.6-0.6s-1.2,0.3-1.6,0.8c-0.4,0.6-0.6,1.3-0.7,2.3v4h-1.3V5.9h1.2L493.9,7.5z"/>
	<path d="M503.3,6.3c0.6-0.4,1.3-0.6,2.3-0.6c1,0,1.7,0.2,2.3,0.6s0.8,0.9,0.9,1.5h-1.3c-0.1-0.7-0.7-1.1-1.9-1.1
		c-0.6,0-1,0.1-1.3,0.4c-0.3,0.2-0.5,0.5-0.5,0.8s0.1,0.5,0.3,0.7s0.6,0.4,1.1,0.5l1.6,0.5c0.7,0.2,1.2,0.5,1.6,0.8
		c0.4,0.3,0.6,0.8,0.6,1.4c0,0.6-0.3,1.1-0.9,1.6c-0.6,0.5-1.4,0.7-2.5,0.7c-1.1,0-1.9-0.2-2.5-0.7c-0.6-0.5-0.9-1.1-1-1.9h1.3
		c0,0.5,0.2,0.9,0.6,1.1c0.4,0.3,0.9,0.4,1.5,0.4c0.6,0,1.1-0.1,1.5-0.4c0.4-0.2,0.6-0.5,0.6-0.9s-0.1-0.6-0.3-0.8
		c-0.2-0.2-0.6-0.3-1.1-0.5l-1.6-0.5c-1.4-0.4-2.1-1.2-2.1-2.2C502.4,7.2,502.7,6.7,503.3,6.3z"/>
</g>
</svg>
