<?xml version="1.0" encoding="utf-8"?>
<!-- Generator: Adobe Illustrator 21.1.0, SVG Export Plug-In . SVG Version: 6.00 Build 0)  -->
<svg version="1.1" id="Layer_1" xmlns="http://www.w3.org/2000/svg" xmlns:xlink="http://www.w3.org/1999/xlink" x="0px" y="0px"
	 viewBox="0 0 240 268.5" style="enable-background:new 0 0 240 268.5;" xml:space="preserve">
<style type="text/css">
	.st0{fill:none;stroke:#231F20;stroke-miterlimit:10;}
	.st1{enable-background:new    ;}
</style>
<title>annotation-4</title>
<line class="st0" x1="237.4" y1="45" x2="0.5" y2="45"/>
<line class="st0" x1="0.5" y1="0" x2="0.5" y2="45"/>
<g class="st1">
	<path d="M21.2,3.8v7.1h1.9v1.2h-1.9v2.6h-1.3v-2.6h-5.5v-1L20,3.8H21.2z M16,11h4V5.9L16,11z"/>
	<path d="M25,14.8c-0.3,0-0.5-0.1-0.7-0.3c-0.2-0.2-0.3-0.4-0.3-0.7c0-0.3,0.1-0.5,0.3-0.7c0.2-0.2,0.4-0.3,0.7-0.3s0.5,0.1,0.7,0.3
		c0.2,0.2,0.3,0.4,0.3,0.7c0,0.3-0.1,0.5-0.3,0.7C25.5,14.7,25.2,14.8,25,14.8z"/>
	<path d="M36,3.8c1.1,0,2.1,0.3,2.8,0.9c0.7,0.6,1.2,1.3,1.4,2.2l-1.4,0.3c-0.2-0.7-0.6-1.2-1.1-1.6C37.2,5.2,36.6,5,36,5
		c-0.9,0-1.6,0.4-2.2,1.1s-0.9,1.8-0.9,3.1c0,1.3,0.3,2.4,0.8,3.2s1.3,1.2,2.3,1.2c0.9,0,1.5-0.2,2-0.7s0.7-1,0.7-1.8h1.4
		c0,1.1-0.4,2-1.1,2.7c-0.8,0.7-1.8,1-3.1,1c-1.3,0-2.4-0.5-3.2-1.5c-0.8-1-1.2-2.4-1.2-4.1c0-1.7,0.4-3,1.3-4S34.6,3.8,36,3.8z"/>
	<path d="M42.7,3.1H44v11.6h-1.3V3.1z"/>
	<path d="M48.2,4.6c-0.3,0-0.5-0.1-0.6-0.2c-0.2-0.2-0.2-0.4-0.2-0.6s0.1-0.5,0.2-0.6c0.2-0.2,0.4-0.2,0.6-0.2s0.5,0.1,0.7,0.2
		c0.2,0.2,0.2,0.4,0.2,0.6S49,4.2,48.8,4.4C48.7,4.5,48.5,4.6,48.2,4.6z M47.5,6.5h1.3v8.1h-1.3V6.5z"/>
	<path d="M53.8,8.1c0.5-1.2,1.4-1.8,2.7-1.8c0.7,0,1.3,0.2,1.8,0.5s0.8,0.8,1,1.4c0.5-1.3,1.5-2,2.8-2c1,0,1.7,0.3,2.3,1
		s0.8,1.5,0.8,2.6v4.8h-1.3V9.9c0-0.8-0.2-1.4-0.6-1.8s-0.9-0.6-1.6-0.6s-1.2,0.3-1.6,0.8c-0.4,0.6-0.6,1.3-0.6,2.3v3.9h-1.3V9.9
		c0-0.8-0.2-1.4-0.6-1.8c-0.4-0.4-0.9-0.6-1.6-0.6s-1.2,0.3-1.6,0.8c-0.4,0.6-0.6,1.3-0.7,2.3v4h-1.3V6.5h1.2L53.8,8.1z"/>
	<path d="M73.4,9.4c0-0.7-0.2-1.3-0.5-1.6s-0.8-0.5-1.3-0.5c-0.6,0-1.1,0.1-1.4,0.3s-0.5,0.6-0.5,1.1h-1.5c0-1.2,0.7-2,2-2.3
		c0.4-0.1,0.9-0.1,1.3-0.1c1,0,1.8,0.3,2.4,0.8c0.6,0.5,0.9,1.3,0.9,2.3v5.2h-1.2l-0.1-1.4c-0.5,1-1.4,1.5-2.7,1.5
		c-0.9,0-1.6-0.2-2.1-0.7s-0.8-1.1-0.8-1.8c0-0.7,0.3-1.3,0.9-1.7c0.6-0.4,1.3-0.6,2.2-0.6c0.9,0,1.7,0.1,2.5,0.4V9.4z M73.4,11.3
		c-0.8-0.2-1.5-0.3-2.1-0.3c-0.6,0-1.1,0.1-1.5,0.3c-0.4,0.2-0.6,0.6-0.6,1c0,1,0.6,1.5,1.7,1.5c0.7,0,1.2-0.2,1.7-0.7
		C73.2,12.6,73.4,12,73.4,11.3z"/>
	<path d="M82.2,14.4c-1,0.5-1.9,0.5-2.7,0.3c-0.6-0.2-1-0.6-1.2-1.1c-0.1-0.3-0.2-0.6-0.2-1v-5h-1.3v-1h1.3V4.3h1.3v2.3H82v1h-2.6v5
		c0,0.8,0.4,1.2,1.2,1.2c0.4,0,0.9-0.1,1.4-0.3L82.2,14.4z"/>
	<path d="M87.1,13.8c1.1,0,1.8-0.5,1.9-1.5h1.4c-0.1,0.8-0.5,1.4-1.1,1.9c-0.6,0.4-1.3,0.7-2.2,0.7c-1.1,0-2-0.4-2.7-1.2
		c-0.7-0.8-1-1.8-1-3.1s0.3-2.3,1-3.1s1.6-1.2,2.7-1.2c1.1,0,2,0.4,2.5,1.3s0.8,2,0.6,3.2h-5.6c0,0.8,0.2,1.5,0.6,2.1
		C85.8,13.5,86.4,13.8,87.1,13.8z M88.1,7.6c-0.3-0.1-0.6-0.2-1-0.2c-0.7,0-1.2,0.2-1.6,0.7c-0.4,0.5-0.6,1.1-0.7,1.8h4.3
		C89.2,8.7,88.8,8,88.1,7.6z"/>
	<path d="M103.2,4.9c0.6,0.6,0.9,1.4,0.9,2.4s-0.3,1.8-0.9,2.4c-0.6,0.6-1.5,0.9-2.7,0.9h-2.1v4.1h-1.3V4h3.5
		C101.7,4,102.6,4.3,103.2,4.9z M100.5,9.4c0.7,0,1.3-0.2,1.7-0.6c0.4-0.4,0.6-0.9,0.6-1.5c0-0.7-0.2-1.2-0.6-1.6
		c-0.4-0.4-0.9-0.6-1.7-0.6h-2.1v4.2H100.5z"/>
	<path d="M109.5,6.3c1.1,0,2,0.4,2.7,1.1c0.7,0.7,1,1.8,1,3.2c0,1.4-0.3,2.4-1,3.1c-0.7,0.7-1.6,1.1-2.7,1.1c-1.1,0-2-0.4-2.7-1.1
		s-1-1.8-1-3.1c0-1.4,0.3-2.4,1-3.2C107.4,6.7,108.3,6.3,109.5,6.3z M111.9,10.6c0-1-0.2-1.7-0.6-2.3s-1-0.8-1.8-0.8
		c-0.8,0-1.4,0.3-1.8,0.8s-0.6,1.3-0.6,2.3s0.2,1.7,0.6,2.3c0.4,0.5,1,0.8,1.8,0.8c0.8,0,1.4-0.3,1.8-0.8
		C111.7,12.3,111.9,11.6,111.9,10.6z"/>
	<path d="M115.8,3.1h1.3v11.6h-1.3V3.1z"/>
	<path d="M121.3,4.6c-0.3,0-0.5-0.1-0.6-0.2c-0.2-0.2-0.2-0.4-0.2-0.6s0.1-0.5,0.2-0.6c0.2-0.2,0.4-0.2,0.6-0.2
		c0.3,0,0.5,0.1,0.7,0.2c0.2,0.2,0.2,0.4,0.2,0.6s-0.1,0.5-0.2,0.6C121.8,4.5,121.6,4.6,121.3,4.6z M120.7,6.5h1.3v8.1h-1.3V6.5z"/>
	<path d="M128.4,6.3c1,0,1.7,0.2,2.3,0.7c0.6,0.5,0.9,1.1,1.1,1.8L130.4,9c-0.1-0.5-0.4-0.8-0.7-1.1s-0.7-0.4-1.1-0.4
		c-0.7,0-1.3,0.3-1.8,0.8c-0.4,0.5-0.7,1.3-0.7,2.2s0.2,1.7,0.7,2.3c0.4,0.6,1,0.8,1.6,0.8s1.1-0.2,1.5-0.5c0.3-0.3,0.5-0.7,0.5-1.3
		h1.4c0,0.9-0.3,1.6-0.9,2.1s-1.4,0.8-2.4,0.8c-1,0-1.9-0.4-2.6-1.2c-0.7-0.8-1.1-1.8-1.1-3.1s0.4-2.3,1.1-3.1
		C126.6,6.7,127.4,6.3,128.4,6.3z"/>
	<path d="M132.8,17c0.6,0.4,1.1,0.6,1.8,0.6c0.5,0,0.8-0.2,1.2-0.7c0.2-0.3,0.5-0.8,0.6-1.5l0.2-0.8l-3.3-8.1h1.5l2.5,6.5l1.9-6.5
		h1.4l-3,9.7c-0.3,0.8-0.6,1.5-1,1.9c-0.4,0.4-1,0.7-1.6,0.7c-0.7,0-1.3-0.2-2-0.6V17z"/>
	<path d="M142.9,9.1c-0.3,0-0.5-0.1-0.7-0.3c-0.2-0.2-0.3-0.4-0.3-0.7c0-0.3,0.1-0.5,0.3-0.7c0.2-0.2,0.4-0.3,0.7-0.3
		s0.5,0.1,0.7,0.3c0.2,0.2,0.3,0.4,0.3,0.7c0,0.3-0.1,0.5-0.3,0.7C143.4,9,143.2,9.1,142.9,9.1z M142.9,14.3c-0.3,0-0.5-0.1-0.7-0.3
		c-0.2-0.2-0.3-0.4-0.3-0.7c0-0.3,0.1-0.5,0.3-0.7c0.2-0.2,0.4-0.3,0.7-0.3s0.5,0.1,0.7,0.3c0.2,0.2,0.3,0.4,0.3,0.7
		c0,0.3-0.1,0.5-0.3,0.7C143.4,14.2,143.2,14.3,142.9,14.3z"/>
</g>
<g class="st1">
	<path d="M16.5,24l2.4,8.4l2.4-7.6h1.4l2.5,7.7l2.6-8.4H30l-3.8,11h-2.1l-2.1-6.2L20,35.1h-2.1l-3.6-11H16.5z"/>
	<path d="M34,24v4.6h4.8V24h2v11h-2v-4.7H34v4.7h-2V24H34z"/>
	<path d="M44,24h2v11h-2V24z"/>
	<path d="M53.1,23.8c0.7,0,1.3,0.1,1.8,0.2c0.5,0.2,0.9,0.4,1.3,0.7c0.7,0.6,1.2,1.4,1.4,2.4l-2.1,0.4c-0.2-0.6-0.5-1-0.8-1.4
		c-0.4-0.4-0.9-0.5-1.4-0.5c-0.8,0-1.4,0.3-1.9,1c-0.5,0.7-0.8,1.7-0.8,2.9c0,1.2,0.2,2.2,0.7,2.9c0.5,0.7,1.1,1,1.9,1
		c0.8,0,1.4-0.2,1.8-0.6c0.4-0.4,0.6-0.9,0.6-1.5h2.2c0,1.2-0.4,2.2-1.2,2.9c-0.8,0.7-1.9,1-3.2,1c-1.5,0-2.6-0.5-3.5-1.5
		c-0.9-1-1.3-2.5-1.3-4.2c0-1.8,0.4-3.2,1.3-4.2C50.5,24.3,51.7,23.8,53.1,23.8z"/>
	<path d="M61.9,24v4.6h4.8V24h2v11h-2v-4.7h-4.8v4.7h-2V24H61.9z"/>
</g>
<g class="st1">
	<path d="M80.6,34.8c-1,0.5-1.9,0.5-2.7,0.3c-0.6-0.2-1-0.6-1.2-1.1c-0.1-0.3-0.2-0.6-0.2-1v-5h-1.3v-1h1.3v-2.3h1.3v2.3h2.6v1h-2.6
		v5c0,0.8,0.4,1.2,1.2,1.2c0.4,0,0.9-0.1,1.4-0.3L80.6,34.8z"/>
	<path d="M85.5,34.2c1.1,0,1.8-0.5,1.9-1.5h1.4c-0.1,0.8-0.5,1.4-1.1,1.9c-0.6,0.4-1.3,0.7-2.2,0.7c-1.1,0-2-0.4-2.7-1.2
		c-0.7-0.8-1-1.8-1-3.1s0.3-2.3,1-3.1s1.6-1.2,2.7-1.2c1.1,0,2,0.4,2.5,1.3s0.8,2,0.6,3.2h-5.6c0,0.8,0.2,1.5,0.6,2.1
		C84.2,33.9,84.8,34.2,85.5,34.2z M86.5,28c-0.3-0.1-0.6-0.2-1-0.2c-0.7,0-1.2,0.2-1.6,0.7c-0.4,0.5-0.6,1.1-0.7,1.8h4.3
		C87.6,29.1,87.2,28.4,86.5,28z"/>
	<path d="M92.8,28.5c0.5-1.2,1.4-1.8,2.7-1.8c0.7,0,1.3,0.2,1.8,0.5s0.8,0.8,1,1.4c0.5-1.3,1.5-2,2.8-2c1,0,1.7,0.3,2.3,1
		s0.8,1.5,0.8,2.6v4.8h-1.3v-4.8c0-0.8-0.2-1.4-0.6-1.8s-0.9-0.6-1.6-0.6s-1.2,0.3-1.6,0.8c-0.4,0.6-0.6,1.3-0.6,2.3v3.9h-1.3v-4.8
		c0-0.8-0.2-1.4-0.6-1.8c-0.4-0.4-0.9-0.6-1.6-0.6s-1.2,0.3-1.6,0.8c-0.4,0.6-0.6,1.3-0.7,2.3v4h-1.3v-8.1h1.2L92.8,28.5z"/>
	<path d="M108.6,28.2c0.5-1,1.3-1.4,2.4-1.4s1.9,0.4,2.7,1.2c0.7,0.8,1.1,1.8,1.1,3.1c0,1.3-0.4,2.3-1.1,3.1
		c-0.7,0.8-1.6,1.2-2.6,1.2c-1,0-1.8-0.4-2.3-1.2v5h-1.3V26.9h1.1L108.6,28.2z M111,34.1c0.6,0,1.2-0.3,1.7-0.8
		c0.5-0.5,0.7-1.3,0.7-2.2s-0.2-1.7-0.7-2.3c-0.5-0.6-1-0.8-1.7-0.8s-1.2,0.2-1.6,0.6c-0.4,0.4-0.6,1-0.7,1.7v1.5
		c0,0.7,0.2,1.3,0.6,1.7S110.3,34.1,111,34.1z"/>
	<path d="M120.3,34.2c1.1,0,1.8-0.5,1.9-1.5h1.4c-0.1,0.8-0.5,1.4-1.1,1.9s-1.3,0.7-2.2,0.7c-1.1,0-2-0.4-2.7-1.2
		c-0.7-0.8-1-1.8-1-3.1s0.3-2.3,1-3.1s1.6-1.2,2.7-1.2c1.1,0,2,0.4,2.5,1.3c0.6,0.9,0.8,2,0.6,3.2H118c0,0.8,0.2,1.5,0.6,2.1
		C119,33.9,119.5,34.2,120.3,34.2z M121.3,28c-0.3-0.1-0.6-0.2-1-0.2c-0.7,0-1.2,0.2-1.6,0.7c-0.4,0.5-0.6,1.1-0.7,1.8h4.3
		C122.3,29.1,122,28.4,121.3,28z"/>
	<path d="M129.5,28.1c-1.3,0-1.9,1-2,3v4h-1.3v-8.1h1.3v1.6c0.4-1.1,1.1-1.7,2.2-1.7c0.3,0,0.6,0.1,0.9,0.2l-0.1,1.3
		C130.2,28.1,129.9,28.1,129.5,28.1z"/>
	<path d="M137.7,29.8c0-0.7-0.2-1.3-0.5-1.6c-0.3-0.3-0.8-0.5-1.3-0.5c-0.6,0-1.1,0.1-1.4,0.3c-0.4,0.2-0.5,0.6-0.5,1.1h-1.5
		c0-1.2,0.7-2,2-2.3c0.4-0.1,0.9-0.1,1.3-0.1c1,0,1.8,0.3,2.4,0.8c0.6,0.5,0.8,1.3,0.8,2.3v5.2h-1.2l-0.1-1.4
		c-0.5,1-1.4,1.5-2.7,1.5c-0.9,0-1.6-0.2-2.1-0.7c-0.5-0.5-0.8-1.1-0.8-1.8c0-0.7,0.3-1.3,0.9-1.7c0.6-0.4,1.3-0.6,2.2-0.6
		s1.7,0.1,2.5,0.4V29.8z M137.7,31.7c-0.8-0.2-1.5-0.3-2.1-0.3c-0.6,0-1.1,0.1-1.5,0.3c-0.4,0.2-0.6,0.6-0.6,1c0,1,0.6,1.5,1.7,1.5
		c0.7,0,1.2-0.2,1.7-0.7C137.5,33,137.7,32.4,137.7,31.7z"/>
	<path d="M146.5,34.8c-1,0.5-1.9,0.5-2.7,0.3c-0.6-0.2-1-0.6-1.2-1.1c-0.1-0.3-0.2-0.6-0.2-1v-5h-1.3v-1h1.3v-2.3h1.3v2.3h2.5v1
		h-2.5v5c0,0.8,0.4,1.2,1.2,1.2c0.4,0,0.9-0.1,1.4-0.3L146.5,34.8z"/>
	<path d="M154.1,33.5c-0.6,1.2-1.5,1.8-2.7,1.8c-0.9,0-1.7-0.3-2.2-0.8c-0.6-0.5-0.8-1.3-0.8-2.4v-5.2h1.3V32c0,1.4,0.6,2.1,1.9,2.1
		c0.7,0,1.3-0.3,1.8-0.9c0.5-0.6,0.7-1.3,0.7-2.2v-4.1h1.3v8.1h-1.3V33.5z"/>
	<path d="M162.2,28.1c-1.3,0-1.9,1-2,3v4h-1.3v-8.1h1.3v1.6c0.4-1.1,1.1-1.7,2.2-1.7c0.3,0,0.6,0.1,0.9,0.2l-0.1,1.3
		C162.9,28.1,162.6,28.1,162.2,28.1z"/>
	<path d="M168.2,34.2c1.1,0,1.8-0.5,1.9-1.5h1.4c-0.1,0.8-0.5,1.4-1.1,1.9c-0.6,0.4-1.3,0.7-2.2,0.7c-1.1,0-2-0.4-2.7-1.2
		s-1-1.8-1-3.1s0.3-2.3,1-3.1s1.6-1.2,2.7-1.2c1.1,0,2,0.4,2.5,1.3c0.6,0.9,0.8,2,0.6,3.2h-5.6c0,0.8,0.2,1.5,0.6,2.1
		C166.9,33.9,167.5,34.2,168.2,34.2z M169.2,28c-0.3-0.1-0.6-0.2-1-0.2c-0.7,0-1.2,0.2-1.6,0.7c-0.4,0.5-0.6,1.1-0.7,1.8h4.3
		C170.2,29.1,169.9,28.4,169.2,28z"/>
	<path d="M178.9,25c-0.3,0-0.5-0.1-0.6-0.2s-0.2-0.4-0.2-0.6s0.1-0.5,0.2-0.6c0.2-0.2,0.4-0.2,0.6-0.2c0.3,0,0.5,0.1,0.7,0.2
		c0.2,0.2,0.2,0.4,0.2,0.6s-0.1,0.5-0.2,0.6S179.2,25,178.9,25z M178.3,26.9h1.3v8.1h-1.3V26.9z"/>
	<path d="M184.6,28.5c0.5-1.2,1.4-1.8,2.7-1.8c1,0,1.7,0.3,2.3,1c0.5,0.6,0.8,1.5,0.8,2.6v4.8H189v-4.8c0-0.8-0.2-1.4-0.6-1.8
		s-0.9-0.6-1.6-0.6c-0.7,0-1.2,0.3-1.6,0.8c-0.4,0.6-0.6,1.3-0.7,2.3v4h-1.3v-8.1h1.2L184.6,28.5z"/>
	<path d="M198.3,33.8h6.2v1.2H197v-1.6c0-1.3,0.5-2.2,1.4-2.8c0.3-0.2,0.6-0.4,1-0.5l2.1-0.8c1.1-0.4,1.6-1.1,1.6-2.1
		c0-0.5-0.2-1-0.6-1.3c-0.4-0.3-0.9-0.5-1.6-0.5c-0.7,0-1.2,0.1-1.6,0.4c-0.4,0.3-0.7,0.7-0.7,1.3h-1.5c0.1-0.9,0.4-1.6,1.1-2.1
		s1.6-0.7,2.7-0.7s2,0.3,2.6,0.9c0.7,0.6,1,1.3,1,2.2s-0.2,1.6-0.7,2.1c-0.4,0.5-1.1,0.9-1.8,1.2l-2.2,0.9c-0.5,0.2-0.9,0.5-1.2,0.8
		c-0.3,0.3-0.4,0.7-0.4,1.1V33.8z"/>
	<path d="M206.6,25.2c0.8-0.1,1.4-0.4,2-0.9h1.1v10.7h-1.3v-9.1c-0.6,0.4-1.2,0.6-1.8,0.6V25.2z"/>
	<path d="M216.4,24.2c1.3,0,2.3,0.5,3.1,1.4s1.1,2.3,1.1,4.1s-0.4,3.2-1.1,4.1s-1.8,1.4-3.1,1.4s-2.3-0.5-3.1-1.4
		c-0.8-0.9-1.1-2.3-1.1-4.1s0.4-3.2,1.1-4.1S215.1,24.2,216.4,24.2z M219.2,29.7c0-1.4-0.2-2.5-0.7-3.2c-0.5-0.7-1.2-1.1-2.1-1.1
		c-0.9,0-1.6,0.4-2.1,1.1c-0.5,0.7-0.7,1.8-0.7,3.2c0,1.4,0.2,2.5,0.7,3.2c0.5,0.7,1.2,1.1,2.1,1.1c0.9,0,1.6-0.4,2.1-1.1
		C219,32.2,219.2,31.1,219.2,29.7z"/>
	<path d="M226.5,24.2c1.3,0,2.3,0.5,3.1,1.4s1.1,2.3,1.1,4.1s-0.4,3.2-1.1,4.1s-1.8,1.4-3.1,1.4s-2.3-0.5-3.1-1.4
		c-0.8-0.9-1.1-2.3-1.1-4.1s0.4-3.2,1.1-4.1S225.2,24.2,226.5,24.2z M229.3,29.7c0-1.4-0.2-2.5-0.7-3.2c-0.5-0.7-1.2-1.1-2.1-1.1
		c-0.9,0-1.6,0.4-2.1,1.1c-0.5,0.7-0.7,1.8-0.7,3.2c0,1.4,0.2,2.5,0.7,3.2c0.5,0.7,1.2,1.1,2.1,1.1c0.9,0,1.6-0.4,2.1-1.1
		C229.1,32.2,229.3,31.1,229.3,29.7z"/>
	<path d="M235.8,25.4c-1.3,0-2.1,0.5-2.3,1.6h-1.4c0.1-0.8,0.4-1.5,1-2c0.6-0.5,1.5-0.8,2.6-0.8c1.1,0,2,0.3,2.6,0.8
		c0.6,0.5,1,1.2,1,2c0,0.6-0.1,1.1-0.4,1.5c-0.3,0.4-0.8,0.8-1.4,1.1c-0.3,0.2-0.5,0.3-0.7,0.4s-0.3,0.3-0.5,0.4
		c-0.2,0.3-0.3,0.7-0.3,1.2v0.7h-1.3v-0.8c0-0.7,0.1-1.3,0.4-1.6s0.7-0.7,1.3-1.1s1-0.6,1.3-0.9c0.2-0.3,0.3-0.6,0.3-1
		s-0.2-0.8-0.5-1.1C236.9,25.6,236.4,25.4,235.8,25.4z M235.2,33.3c0.3,0,0.5,0.1,0.7,0.3c0.2,0.2,0.3,0.4,0.3,0.7
		c0,0.3-0.1,0.5-0.3,0.7c-0.2,0.2-0.4,0.3-0.7,0.3c-0.3,0-0.5-0.1-0.7-0.3c-0.2-0.2-0.3-0.4-0.3-0.7c0-0.3,0.1-0.5,0.3-0.7
		C234.7,33.4,234.9,33.3,235.2,33.3z"/>
</g>
<line class="st0" x1="35.4" y1="45" x2="35.4" y2="268"/>
<line class="st0" x1="35.4" y1="82" x2="51.5" y2="82"/>
<line class="st0" x1="35.4" y1="171" x2="51.5" y2="171"/>
<line class="st0" x1="35.4" y1="268" x2="51.5" y2="268"/>
</svg>
