<?xml version="1.0" encoding="utf-8"?>
<!-- Generator: Adobe Illustrator 21.1.0, SVG Export Plug-In . SVG Version: 6.00 Build 0)  -->
<svg version="1.1" id="Layer_1" xmlns="http://www.w3.org/2000/svg" xmlns:xlink="http://www.w3.org/1999/xlink" x="0px" y="0px"
	 viewBox="0 0 579.5 69.3" style="enable-background:new 0 0 579.5 69.3;" xml:space="preserve">
<style type="text/css">
	.st0{fill:none;stroke:#231F20;stroke-miterlimit:10;}
	.st1{enable-background:new    ;}
</style>
<title>annotation-2</title>
<line class="st0" x1="579.5" y1="24.4" x2="0.5" y2="24.4"/>
<line class="st0" x1="0.5" y1="24.4" x2="0.5" y2="69.3"/>
<g class="st1">
	<path d="M233.4,12.8h6.2V14H232v-1.6c0-1.3,0.5-2.2,1.4-2.8c0.3-0.2,0.6-0.4,1-0.5l2.1-0.8c1.1-0.4,1.6-1.1,1.6-2.1
		c0-0.5-0.2-1-0.6-1.3c-0.4-0.3-0.9-0.5-1.6-0.5s-1.2,0.1-1.6,0.4C234,5,233.8,5.5,233.7,6h-1.5c0.1-0.9,0.4-1.6,1.1-2.1
		s1.6-0.7,2.7-0.7c1.1,0,2,0.3,2.6,0.9c0.7,0.6,1,1.3,1,2.2s-0.2,1.6-0.7,2.1s-1.1,0.9-1.8,1.2l-2.2,0.9c-0.5,0.2-0.9,0.5-1.2,0.8
		c-0.3,0.3-0.4,0.7-0.4,1.1V12.8z"/>
	<path d="M242.3,14.2c-0.3,0-0.5-0.1-0.7-0.3c-0.2-0.2-0.3-0.4-0.3-0.7c0-0.3,0.1-0.5,0.3-0.7c0.2-0.2,0.4-0.3,0.7-0.3
		s0.5,0.1,0.7,0.3c0.2,0.2,0.3,0.4,0.3,0.7c0,0.3-0.1,0.5-0.3,0.7C242.8,14.1,242.6,14.2,242.3,14.2z"/>
	<path d="M257.1,6.4c0,0.9-0.2,1.6-0.7,2.1s-1.2,0.9-2.1,1.1l3.1,4.4h-1.7l-2.8-4.4H251V14h-1.3V3.3h3.7c1.2,0,2.1,0.3,2.8,0.9
		C256.7,4.8,257.1,5.5,257.1,6.4z M253.2,8.7c0.8,0,1.4-0.2,1.8-0.6c0.4-0.4,0.6-0.9,0.6-1.5s-0.2-1.2-0.6-1.5
		c-0.4-0.4-1-0.6-1.7-0.6H251v4.2H253.2z"/>
	<path d="M262.8,13.1c1.1,0,1.8-0.5,1.9-1.5h1.4c-0.1,0.8-0.5,1.4-1.1,1.9c-0.6,0.4-1.3,0.7-2.2,0.7c-1.1,0-2-0.4-2.7-1.2
		c-0.7-0.8-1-1.8-1-3.1s0.3-2.3,1-3.1s1.6-1.2,2.7-1.2c1.1,0,2,0.4,2.5,1.3s0.8,2,0.6,3.2h-5.6c0,0.8,0.2,1.5,0.6,2.1
		C261.5,12.9,262.1,13.1,262.8,13.1z M263.8,7c-0.3-0.1-0.6-0.2-1-0.2c-0.7,0-1.2,0.2-1.6,0.7c-0.4,0.5-0.6,1.1-0.7,1.8h4.3
		C264.9,8.1,264.5,7.3,263.8,7z"/>
	<path d="M269.1,13.8c-0.7-0.3-1-0.8-1-1.5c0-0.4,0.1-0.7,0.4-0.9c0.3-0.3,0.6-0.4,1-0.5c-0.6-0.5-0.9-1.3-0.9-2.1s0.3-1.6,0.9-2.1
		s1.4-0.8,2.2-0.8s1.6,0.2,2.2,0.6c0.1-0.6,0.3-1.1,0.7-1.4c0.4-0.4,0.9-0.5,1.6-0.5l-0.1,1.3c-1,0-1.5,0.4-1.6,1.3
		c0.4,0.5,0.6,1.1,0.6,1.8c0,0.9-0.3,1.6-0.9,2.2c-0.6,0.6-1.4,0.8-2.4,0.8c-0.6,0-1.2-0.1-1.7-0.4c-0.2,0-0.4,0.2-0.6,0.3
		c-0.2,0.2-0.3,0.4-0.3,0.7c0,0.6,0.5,0.9,1.5,0.9h3.2c0.8,0,1.4,0.2,1.8,0.5s0.7,0.8,0.7,1.4c0,0.9-0.4,1.6-1.3,2.3
		c-0.9,0.6-2,1-3.3,1c-1.3,0-2.4-0.2-3.1-0.7c-0.8-0.5-1.1-1.1-1.1-1.9c0-0.5,0.1-0.9,0.4-1.2C268.3,14.1,268.7,13.9,269.1,13.8z
		 M268.9,15.6c0,0.4,0.2,0.8,0.7,1.1s1.2,0.5,2.1,0.5s1.8-0.2,2.4-0.6s1-0.9,1-1.5c0-0.3-0.1-0.5-0.3-0.7c-0.2-0.2-0.5-0.3-0.9-0.3
		h-3.3c-0.6,0-1,0.2-1.3,0.4C269,14.8,268.9,15.1,268.9,15.6z M273.9,8.6c0-0.6-0.2-1.1-0.5-1.4c-0.4-0.4-0.8-0.6-1.5-0.6
		s-1.1,0.2-1.5,0.6c-0.4,0.4-0.5,0.8-0.5,1.4c0,0.6,0.2,1.1,0.5,1.5c0.4,0.4,0.8,0.6,1.5,0.6c0.6,0,1.1-0.2,1.4-0.6
		C273.7,9.7,273.9,9.2,273.9,8.6z"/>
	<path d="M279.1,4c-0.3,0-0.5-0.1-0.6-0.2c-0.2-0.2-0.2-0.4-0.2-0.6s0.1-0.5,0.2-0.6c0.2-0.2,0.4-0.2,0.6-0.2s0.5,0.1,0.7,0.2
		c0.2,0.2,0.2,0.4,0.2,0.6s-0.1,0.5-0.2,0.6C279.6,3.9,279.4,4,279.1,4z M278.5,5.9h1.3V14h-1.3V5.9z"/>
	<path d="M286.4,5.7c1.1,0,2,0.4,2.7,1.1c0.7,0.7,1,1.8,1,3.2c0,1.4-0.3,2.4-1,3.1c-0.7,0.7-1.6,1.1-2.7,1.1c-1.1,0-2-0.4-2.7-1.1
		s-1-1.8-1-3.1c0-1.4,0.3-2.4,1-3.2C284.4,6.1,285.3,5.7,286.4,5.7z M288.8,9.9c0-1-0.2-1.7-0.6-2.3s-1-0.8-1.8-0.8
		c-0.8,0-1.4,0.3-1.8,0.8S284,9,284,9.9s0.2,1.7,0.6,2.3c0.4,0.5,1,0.8,1.8,0.8c0.8,0,1.4-0.3,1.8-0.8
		C288.6,11.7,288.8,10.9,288.8,9.9z"/>
	<path d="M294.1,7.5c0.5-1.2,1.4-1.8,2.7-1.8c1,0,1.7,0.3,2.3,1s0.8,1.5,0.8,2.6V14h-1.3V9.2c0-0.8-0.2-1.4-0.6-1.8
		c-0.4-0.4-0.9-0.6-1.6-0.6c-0.7,0-1.2,0.3-1.6,0.8c-0.4,0.6-0.6,1.3-0.7,2.3v4h-1.3V5.9h1.2L294.1,7.5z"/>
	<path d="M303.2,8.4c-0.3,0-0.5-0.1-0.7-0.3c-0.2-0.2-0.3-0.4-0.3-0.7c0-0.3,0.1-0.5,0.3-0.7c0.2-0.2,0.4-0.3,0.7-0.3
		s0.5,0.1,0.7,0.3c0.2,0.2,0.3,0.4,0.3,0.7c0,0.3-0.1,0.5-0.3,0.7C303.8,8.3,303.5,8.4,303.2,8.4z M303.2,13.6
		c-0.3,0-0.5-0.1-0.7-0.3c-0.2-0.2-0.3-0.4-0.3-0.7c0-0.3,0.1-0.5,0.3-0.7c0.2-0.2,0.4-0.3,0.7-0.3s0.5,0.1,0.7,0.3
		c0.2,0.2,0.3,0.4,0.3,0.7c0,0.3-0.1,0.5-0.3,0.7C303.8,13.5,303.5,13.6,303.2,13.6z"/>
</g>
<g class="st1">
	<path d="M311.9,3l2.4,8.4l2.4-7.6h1.4l2.5,7.7l2.6-8.4h2.3l-3.8,11h-2.1l-2.1-6.2l-2.1,6.2h-2.1l-3.6-11H311.9z"/>
	<path d="M329.3,3v4.6h4.8V3h2v11h-2V9.3h-4.8V14h-2V3H329.3z"/>
	<path d="M339.3,3h7.1v1.7h-5.1v2.9h4.8v1.7h-4.8v2.9h5.1V14h-7.1V3z"/>
	<path d="M357.4,6.4c0,0.8-0.2,1.5-0.7,2c-0.4,0.6-1.1,0.9-1.9,1.2l3,4.5h-2.6l-2.4-4.3h-1.5V14h-2V3h4.1c1.3,0,2.3,0.3,3,0.9
		C357.1,4.5,357.4,5.3,357.4,6.4z M353.1,8.4c0.7,0,1.3-0.2,1.7-0.5s0.6-0.8,0.6-1.3s-0.2-1-0.5-1.3c-0.3-0.3-0.9-0.5-1.5-0.5h-2.1
		v3.7H353.1z"/>
	<path d="M360.2,3h7.1v1.7h-5.1v2.9h4.8v1.7h-4.8v2.9h5.1V14h-7.1V3z"/>
</g>
<g class="st1">
	<path d="M377.4,13.1c1.1,0,1.8-0.5,1.9-1.5h1.4c-0.1,0.8-0.5,1.4-1.1,1.9s-1.3,0.7-2.2,0.7c-1.1,0-2-0.4-2.7-1.2
		c-0.7-0.8-1-1.8-1-3.1s0.3-2.3,1-3.1s1.6-1.2,2.7-1.2s2,0.4,2.5,1.3c0.6,0.9,0.8,2,0.6,3.2h-5.6c0,0.8,0.2,1.5,0.6,2.1
		C376.1,12.9,376.6,13.1,377.4,13.1z M378.4,7c-0.3-0.1-0.6-0.2-1-0.2c-0.7,0-1.2,0.2-1.6,0.7c-0.4,0.5-0.6,1.1-0.7,1.8h4.3
		C379.4,8.1,379.1,7.3,378.4,7z"/>
	<path d="M384.6,7.5c0.5-1.2,1.4-1.8,2.7-1.8c0.7,0,1.3,0.2,1.8,0.5c0.5,0.3,0.8,0.8,1,1.4c0.5-1.3,1.5-2,2.8-2c1,0,1.7,0.3,2.3,1
		c0.5,0.6,0.8,1.5,0.8,2.6V14h-1.3V9.2c0-0.8-0.2-1.4-0.6-1.8s-0.9-0.6-1.6-0.6s-1.2,0.3-1.6,0.8s-0.6,1.3-0.6,2.3V14h-1.3V9.2
		c0-0.8-0.2-1.4-0.6-1.8c-0.4-0.4-0.9-0.6-1.6-0.6c-0.7,0-1.2,0.3-1.6,0.8c-0.4,0.6-0.6,1.3-0.7,2.3v4h-1.3V5.9h1.2L384.6,7.5z"/>
	<path d="M400,4c-0.3,0-0.5-0.1-0.6-0.2c-0.2-0.2-0.2-0.4-0.2-0.6s0.1-0.5,0.2-0.6c0.2-0.2,0.4-0.2,0.6-0.2c0.3,0,0.5,0.1,0.7,0.2
		c0.2,0.2,0.2,0.4,0.2,0.6s-0.1,0.5-0.2,0.6C400.5,3.9,400.2,4,400,4z M399.3,5.9h1.3V14h-1.3V5.9z"/>
	<path d="M404.7,6.3c0.6-0.4,1.3-0.6,2.3-0.6c1,0,1.7,0.2,2.3,0.6s0.8,0.9,0.9,1.5h-1.3c-0.1-0.7-0.7-1.1-1.9-1.1
		c-0.6,0-1,0.1-1.3,0.4c-0.3,0.2-0.5,0.5-0.5,0.8s0.1,0.5,0.3,0.7s0.6,0.4,1.1,0.5l1.6,0.5c0.7,0.2,1.2,0.5,1.6,0.8
		c0.4,0.3,0.6,0.8,0.6,1.4c0,0.6-0.3,1.1-0.9,1.6c-0.6,0.5-1.4,0.7-2.5,0.7c-1.1,0-1.9-0.2-2.5-0.7c-0.6-0.5-0.9-1.1-1-1.9h1.3
		c0,0.5,0.2,0.9,0.6,1.1c0.4,0.3,0.9,0.4,1.5,0.4c0.6,0,1.1-0.1,1.5-0.4c0.4-0.2,0.6-0.5,0.6-0.9s-0.1-0.6-0.3-0.8
		c-0.2-0.2-0.6-0.3-1.1-0.5l-1.6-0.5c-1.4-0.4-2.1-1.2-2.1-2.2C403.9,7.2,404.2,6.7,404.7,6.3z"/>
	<path d="M413.7,6.3c0.6-0.4,1.3-0.6,2.3-0.6s1.7,0.2,2.3,0.6s0.8,0.9,0.9,1.5h-1.3c-0.1-0.7-0.7-1.1-1.9-1.1c-0.6,0-1,0.1-1.3,0.4
		c-0.3,0.2-0.5,0.5-0.5,0.8s0.1,0.5,0.3,0.7c0.2,0.2,0.6,0.4,1.1,0.5l1.6,0.5c0.7,0.2,1.2,0.5,1.6,0.8c0.4,0.3,0.6,0.8,0.6,1.4
		c0,0.6-0.3,1.1-0.9,1.6c-0.6,0.5-1.4,0.7-2.5,0.7c-1.1,0-1.9-0.2-2.5-0.7s-0.9-1.1-1-1.9h1.3c0,0.5,0.2,0.9,0.6,1.1
		c0.4,0.3,0.9,0.4,1.5,0.4c0.6,0,1.1-0.1,1.5-0.4c0.4-0.2,0.6-0.5,0.6-0.9s-0.1-0.6-0.3-0.8s-0.6-0.3-1.1-0.5l-1.6-0.5
		c-1.4-0.4-2.1-1.2-2.1-2.2C412.8,7.2,413.1,6.7,413.7,6.3z"/>
	<path d="M422.9,4c-0.3,0-0.5-0.1-0.6-0.2s-0.2-0.4-0.2-0.6s0.1-0.5,0.2-0.6c0.2-0.2,0.4-0.2,0.6-0.2c0.3,0,0.5,0.1,0.7,0.2
		c0.2,0.2,0.2,0.4,0.2,0.6s-0.1,0.5-0.2,0.6S423.2,4,422.9,4z M422.3,5.9h1.3V14h-1.3V5.9z"/>
	<path d="M430.2,5.7c1.1,0,2,0.4,2.7,1.1c0.7,0.7,1,1.8,1,3.2c0,1.4-0.3,2.4-1,3.1c-0.7,0.7-1.6,1.1-2.7,1.1s-2-0.4-2.7-1.1
		c-0.7-0.7-1-1.8-1-3.1c0-1.4,0.3-2.4,1-3.2C428.2,6.1,429.1,5.7,430.2,5.7z M432.6,9.9c0-1-0.2-1.7-0.6-2.3s-1-0.8-1.8-0.8
		s-1.4,0.3-1.8,0.8c-0.4,0.5-0.6,1.3-0.6,2.3s0.2,1.7,0.6,2.3c0.4,0.5,1,0.8,1.8,0.8c0.8,0,1.4-0.3,1.8-0.8
		C432.4,11.7,432.6,10.9,432.6,9.9z"/>
	<path d="M437.8,7.5c0.5-1.2,1.4-1.8,2.7-1.8c1,0,1.7,0.3,2.3,1c0.5,0.6,0.8,1.5,0.8,2.6V14h-1.3V9.2c0-0.8-0.2-1.4-0.6-1.8
		s-0.9-0.6-1.6-0.6c-0.7,0-1.2,0.3-1.6,0.8c-0.4,0.6-0.6,1.3-0.7,2.3v4h-1.3V5.9h1.2L437.8,7.5z"/>
	<path d="M447.2,6.3c0.6-0.4,1.3-0.6,2.3-0.6c1,0,1.7,0.2,2.3,0.6s0.8,0.9,0.9,1.5h-1.3c-0.1-0.7-0.7-1.1-1.9-1.1
		c-0.6,0-1,0.1-1.3,0.4c-0.3,0.2-0.5,0.5-0.5,0.8s0.1,0.5,0.3,0.7s0.6,0.4,1.1,0.5l1.6,0.5c0.7,0.2,1.2,0.5,1.6,0.8
		c0.4,0.3,0.6,0.8,0.6,1.4c0,0.6-0.3,1.1-0.9,1.6c-0.6,0.5-1.4,0.7-2.5,0.7c-1.1,0-1.9-0.2-2.5-0.7c-0.6-0.5-0.9-1.1-1-1.9h1.3
		c0,0.5,0.2,0.9,0.6,1.1c0.4,0.3,0.9,0.4,1.5,0.4c0.6,0,1.1-0.1,1.5-0.4c0.4-0.2,0.6-0.5,0.6-0.9s-0.1-0.6-0.3-0.8
		c-0.2-0.2-0.6-0.3-1.1-0.5l-1.6-0.5c-1.4-0.4-2.1-1.2-2.1-2.2C446.4,7.2,446.7,6.7,447.2,6.3z"/>
	<path d="M460.2,6.3c0.6-0.4,1.3-0.6,2.3-0.6s1.7,0.2,2.3,0.6s0.8,0.9,0.9,1.5h-1.3c-0.1-0.7-0.7-1.1-1.9-1.1c-0.6,0-1,0.1-1.3,0.4
		c-0.3,0.2-0.5,0.5-0.5,0.8s0.1,0.5,0.3,0.7c0.2,0.2,0.6,0.4,1.1,0.5l1.6,0.5c0.7,0.2,1.2,0.5,1.6,0.8c0.4,0.3,0.6,0.8,0.6,1.4
		c0,0.6-0.3,1.1-0.9,1.6c-0.6,0.5-1.4,0.7-2.5,0.7c-1.1,0-1.9-0.2-2.5-0.7s-0.9-1.1-1-1.9h1.3c0,0.5,0.2,0.9,0.6,1.1
		c0.4,0.3,0.9,0.4,1.5,0.4c0.6,0,1.1-0.1,1.5-0.4c0.4-0.2,0.6-0.5,0.6-0.9s-0.1-0.6-0.3-0.8s-0.6-0.3-1.1-0.5l-1.6-0.5
		c-1.4-0.4-2.1-1.2-2.1-2.2C459.4,7.2,459.7,6.7,460.2,6.3z"/>
	<path d="M470.1,7.4c0.5-1.1,1.4-1.7,2.7-1.7c1,0,1.7,0.3,2.3,1s0.8,1.5,0.8,2.6V14h-1.3V9.2c0-0.8-0.2-1.4-0.6-1.8
		s-0.9-0.6-1.6-0.6s-1.2,0.3-1.7,0.9c-0.4,0.6-0.6,1.4-0.6,2.4V14h-1.3V2.4h1.3V7.4z"/>
	<path d="M481.9,5.7c1.1,0,2,0.4,2.7,1.1c0.7,0.7,1,1.8,1,3.2c0,1.4-0.3,2.4-1,3.1s-1.6,1.1-2.7,1.1c-1.1,0-2-0.4-2.7-1.1
		c-0.7-0.7-1-1.8-1-3.1c0-1.4,0.3-2.4,1-3.2C479.9,6.1,480.8,5.7,481.9,5.7z M484.4,9.9c0-1-0.2-1.7-0.6-2.3s-1-0.8-1.8-0.8
		c-0.8,0-1.4,0.3-1.8,0.8c-0.4,0.5-0.6,1.3-0.6,2.3s0.2,1.7,0.6,2.3c0.4,0.5,1,0.8,1.8,0.8s1.4-0.3,1.8-0.8
		C484.1,11.7,484.4,10.9,484.4,9.9z"/>
	<path d="M493.8,12.4c-0.6,1.2-1.5,1.8-2.7,1.8c-0.9,0-1.7-0.3-2.2-0.8c-0.6-0.5-0.8-1.3-0.8-2.4V5.9h1.3v5.1c0,1.4,0.6,2.1,1.9,2.1
		c0.7,0,1.3-0.3,1.8-0.9c0.5-0.6,0.7-1.3,0.7-2.2V5.9h1.3V14h-1.3V12.4z"/>
	<path d="M498.6,2.4h1.3V14h-1.3V2.4z"/>
	<path d="M508.7,7.1V2.4h1.3V14h-1.1l-0.2-1.4c-0.3,0.5-0.6,0.9-1,1.2s-0.9,0.4-1.4,0.4c-1,0-1.9-0.4-2.6-1.2c-0.7-0.8-1-1.8-1-3.1
		s0.3-2.3,1-3.1s1.6-1.2,2.6-1.2C507.3,5.7,508.1,6.2,508.7,7.1z M506.4,6.9c-0.7,0-1.2,0.3-1.7,0.8C504.3,8.3,504,9,504,9.9
		c0,0.9,0.2,1.7,0.7,2.2c0.5,0.6,1,0.8,1.6,0.8s1.2-0.2,1.6-0.6c0.4-0.4,0.7-1,0.7-1.7V9.3c0-0.8-0.2-1.4-0.7-1.8
		C507.6,7.1,507,6.9,506.4,6.9z"/>
	<path d="M518.8,7.4c0.5-1.1,1.4-1.7,2.7-1.7c1,0,1.7,0.3,2.3,1s0.8,1.5,0.8,2.6V14h-1.3V9.2c0-0.8-0.2-1.4-0.6-1.8
		s-0.9-0.6-1.6-0.6s-1.2,0.3-1.7,0.9c-0.4,0.6-0.6,1.4-0.6,2.4V14h-1.3V2.4h1.3V7.4z"/>
	<path d="M532.8,8.8c0-0.7-0.2-1.3-0.5-1.6c-0.3-0.3-0.8-0.5-1.3-0.5s-1.1,0.1-1.4,0.3c-0.4,0.2-0.5,0.6-0.5,1.1h-1.5
		c0-1.2,0.7-2,2-2.3c0.4-0.1,0.8-0.1,1.3-0.1c1,0,1.8,0.3,2.4,0.8c0.6,0.5,0.9,1.3,0.9,2.3V14H533l-0.1-1.4c-0.5,1-1.4,1.5-2.7,1.5
		c-0.9,0-1.6-0.2-2.1-0.7c-0.5-0.5-0.8-1.1-0.8-1.8c0-0.7,0.3-1.3,0.9-1.7c0.6-0.4,1.3-0.6,2.2-0.6c0.9,0,1.7,0.1,2.5,0.4V8.8z
		 M532.8,10.6c-0.8-0.2-1.5-0.3-2.1-0.3s-1.1,0.1-1.5,0.3c-0.4,0.2-0.6,0.6-0.6,1c0,1,0.6,1.5,1.7,1.5c0.7,0,1.2-0.2,1.7-0.7
		C532.6,12,532.8,11.4,532.8,10.6z"/>
	<path d="M538.5,7.1c0.5-1,1.3-1.4,2.4-1.4s1.9,0.4,2.7,1.2s1.1,1.8,1.1,3.1c0,1.3-0.4,2.3-1.1,3.1c-0.7,0.8-1.6,1.2-2.6,1.2
		s-1.8-0.4-2.3-1.2v5h-1.3V5.9h1.1L538.5,7.1z M540.9,13c0.6,0,1.2-0.3,1.7-0.8s0.7-1.3,0.7-2.2s-0.2-1.7-0.7-2.3
		c-0.5-0.6-1-0.8-1.7-0.8s-1.2,0.2-1.6,0.6c-0.4,0.4-0.6,1-0.7,1.7v1.5c0,0.7,0.2,1.3,0.6,1.7S540.2,13,540.9,13z"/>
	<path d="M548.6,7.1c0.5-1,1.3-1.4,2.4-1.4s1.9,0.4,2.7,1.2s1.1,1.8,1.1,3.1c0,1.3-0.4,2.3-1.1,3.1c-0.7,0.8-1.6,1.2-2.6,1.2
		s-1.8-0.4-2.3-1.2v5h-1.3V5.9h1.1L548.6,7.1z M551,13c0.6,0,1.2-0.3,1.7-0.8s0.7-1.3,0.7-2.2s-0.2-1.7-0.7-2.3
		c-0.5-0.6-1-0.8-1.7-0.8s-1.2,0.2-1.6,0.6c-0.4,0.4-0.6,1-0.7,1.7v1.5c0,0.7,0.2,1.3,0.6,1.7S550.3,13,551,13z"/>
	<path d="M560.3,13.1c1.1,0,1.8-0.5,1.9-1.5h1.4c-0.1,0.8-0.5,1.4-1.1,1.9s-1.3,0.7-2.2,0.7c-1.1,0-2-0.4-2.7-1.2
		c-0.7-0.8-1-1.8-1-3.1s0.3-2.3,1-3.1s1.6-1.2,2.7-1.2s2,0.4,2.5,1.3c0.6,0.9,0.8,2,0.6,3.2H558c0,0.8,0.2,1.5,0.6,2.1
		C559,12.9,559.5,13.1,560.3,13.1z M561.3,7c-0.3-0.1-0.6-0.2-1-0.2c-0.7,0-1.2,0.2-1.6,0.7c-0.4,0.5-0.6,1.1-0.7,1.8h4.3
		C562.3,8.1,562,7.3,561.3,7z"/>
	<path d="M567.5,7.5c0.5-1.2,1.4-1.8,2.7-1.8c1,0,1.7,0.3,2.3,1s0.8,1.5,0.8,2.6V14H572V9.2c0-0.8-0.2-1.4-0.6-1.8
		c-0.4-0.4-0.9-0.6-1.6-0.6c-0.7,0-1.2,0.3-1.6,0.8c-0.4,0.6-0.6,1.3-0.7,2.3v4h-1.3V5.9h1.2L567.5,7.5z"/>
</g>
</svg>
