<?xml version="1.0" encoding="utf-8"?>
<!-- Generator: Adobe Illustrator 22.1.0, SVG Export Plug-In . SVG Version: 6.00 Build 0)  -->
<svg version="1.1" id="Layer_1" xmlns="http://www.w3.org/2000/svg" xmlns:xlink="http://www.w3.org/1999/xlink" x="0px" y="0px"
	 viewBox="0 0 12 12" style="enable-background:new 0 0 12 12;" xml:space="preserve">
<style type="text/css">
	.st0{fill:#CCCCCC;}
</style>
<g>
	<g>
		<path class="st0" d="M3.1,12c-0.8,0-1.6-0.3-2.2-0.9C0.3,10.5,0,9.8,0,8.9c0-0.8,0.3-1.6,0.9-2.2l2-2c1.2-1.2,3.1-1.2,4.3,0
			c0.2,0.2,0.2,0.5,0,0.7C7,5.7,6.7,5.7,6.5,5.5c-0.8-0.8-2.1-0.8-2.9,0l-2,2C1.2,7.9,1,8.4,1,8.9c0,0.6,0.2,1.1,0.6,1.5
			c0.8,0.8,2.1,0.8,2.9,0l1-1c0.2-0.2,0.5-0.2,0.7,0s0.2,0.5,0,0.7l-1,1C4.6,11.7,3.8,12,3.1,12z"/>
	</g>
	<g>
		<path class="st0" d="M7,8.1c-0.8,0-1.6-0.3-2.2-0.9C4.6,7,4.6,6.7,4.8,6.5s0.5-0.2,0.7,0c0.8,0.8,2.1,0.8,2.9,0l2-2
			c0.8-0.8,0.8-2.1,0-2.9c-0.8-0.8-2.1-0.8-2.9,0l-1,1C6.3,2.8,6,2.8,5.8,2.6s-0.2-0.5,0-0.7l1-1c1.2-1.2,3.2-1.2,4.3,0
			c1.2,1.2,1.2,3.1,0,4.3l-2,2C8.5,7.8,7.7,8.1,7,8.1z"/>
	</g>
</g>
</svg>
