<?xml version="1.0" encoding="utf-8"?>
<!-- Generator: Adobe Illustrator 23.0.1, SVG Export Plug-In . SVG Version: 6.00 Build 0)  -->
<svg version="1.1" id="Layer_1" xmlns="http://www.w3.org/2000/svg" xmlns:xlink="http://www.w3.org/1999/xlink" x="0px" y="0px"
	 viewBox="0 0 300 20" style="enable-background:new 0 0 300 20;" xml:space="preserve">
<style type="text/css">
	.st0{fill:#EB4E30;}
	.st1{fill:#F4AA65;}
</style>
<g>
	<rect x="152.8" y="1.8" class="st0" width="11.7" height="16.2"/>
</g>
<g>
	<rect x="141.1" y="1.8" class="st1" width="11.7" height="16.2"/>
</g>
<g>
	<rect x="152.3" y="1.8" width="1" height="16.2"/>
</g>
<g>
	<path class="st1" d="M13.9,12c-0.3,1-1,1.4-2,1.4c-1,0-1.8-0.4-2.4-1.1s-0.9-1.7-0.9-2.8c0-1.2,0.3-2.1,1-2.8
		c0.7-0.7,1.5-1.1,2.5-1.1c0.6,0,1.1,0.1,1.6,0.4c0.4,0.2,0.8,0.6,1.1,1.2L14,7.5c-0.5-0.6-1.1-1-1.8-1c-0.7,0-1.3,0.3-1.8,0.9
		C9.9,7.9,9.6,8.7,9.6,9.6s0.2,1.6,0.6,2.2c0.4,0.6,1,0.8,1.7,0.8c0.6,0,1-0.2,1.4-0.6c0.4-0.4,0.5-1,0.5-1.7v0L12,10.2V9.6h2.8v3.7
		H14L13.9,12z"/>
	<path class="st1" d="M19.3,8.4c-0.9,0-1.4,0.7-1.4,2.1v2.8H17V7.6h0.9v1.1c0.3-0.8,0.8-1.2,1.5-1.2c0.2,0,0.5,0,0.7,0.1l0,0.9
		C19.8,8.4,19.6,8.4,19.3,8.4z"/>
	<path class="st1" d="M23.6,7.5c0.8,0,1.4,0.3,1.9,0.8c0.5,0.5,0.7,1.3,0.7,2.2c0,1-0.2,1.7-0.7,2.2c-0.5,0.5-1.1,0.8-1.9,0.8
		s-1.4-0.3-1.9-0.8c-0.5-0.5-0.7-1.3-0.7-2.2c0-1,0.2-1.7,0.7-2.2C22.2,7.7,22.8,7.5,23.6,7.5z M25.3,10.5c0-0.7-0.1-1.2-0.4-1.6
		c-0.3-0.4-0.7-0.6-1.3-0.6s-1,0.2-1.3,0.6c-0.3,0.4-0.4,0.9-0.4,1.6c0,0.7,0.1,1.2,0.4,1.6c0.3,0.4,0.7,0.6,1.3,0.6
		c0.6,0,1-0.2,1.3-0.6C25.2,11.7,25.3,11.1,25.3,10.5z"/>
	<path class="st1" d="M28.4,7.9c0.4-0.3,0.9-0.4,1.6-0.4s1.2,0.1,1.6,0.4c0.4,0.3,0.6,0.7,0.6,1.1h-0.9c-0.1-0.5-0.5-0.8-1.3-0.8
		c-0.4,0-0.7,0.1-0.9,0.3S28.8,8.8,28.8,9s0.1,0.4,0.2,0.5c0.2,0.1,0.4,0.3,0.8,0.4l1.2,0.4c0.5,0.2,0.9,0.3,1.1,0.6
		c0.3,0.2,0.4,0.6,0.4,1c0,0.4-0.2,0.8-0.6,1.1c-0.4,0.3-1,0.5-1.8,0.5c-0.8,0-1.4-0.2-1.8-0.5c-0.4-0.3-0.6-0.8-0.7-1.3h0.9
		c0,0.4,0.2,0.6,0.4,0.8c0.3,0.2,0.6,0.3,1,0.3s0.8-0.1,1-0.3s0.4-0.4,0.4-0.6s-0.1-0.4-0.2-0.6c-0.2-0.1-0.4-0.2-0.8-0.3l-1.1-0.4
		c-1-0.3-1.5-0.8-1.5-1.6C27.8,8.5,28,8.2,28.4,7.9z"/>
	<path class="st1" d="M34.7,7.9c0.4-0.3,0.9-0.4,1.6-0.4s1.2,0.1,1.6,0.4c0.4,0.3,0.6,0.7,0.6,1.1h-0.9c-0.1-0.5-0.5-0.8-1.3-0.8
		c-0.4,0-0.7,0.1-0.9,0.3S35.1,8.8,35.1,9s0.1,0.4,0.2,0.5c0.2,0.1,0.4,0.3,0.8,0.4l1.2,0.4c0.5,0.2,0.9,0.3,1.1,0.6
		c0.3,0.2,0.4,0.6,0.4,1c0,0.4-0.2,0.8-0.6,1.1c-0.4,0.3-1,0.5-1.8,0.5c-0.8,0-1.4-0.2-1.8-0.5c-0.4-0.3-0.6-0.8-0.7-1.3h0.9
		c0,0.4,0.2,0.6,0.4,0.8c0.3,0.2,0.6,0.3,1,0.3s0.8-0.1,1-0.3s0.4-0.4,0.4-0.6s-0.1-0.4-0.2-0.6c-0.2-0.1-0.4-0.2-0.8-0.3l-1.1-0.4
		c-1-0.3-1.5-0.8-1.5-1.6C34.1,8.5,34.3,8.2,34.7,7.9z"/>
	<path class="st1" d="M44.5,8.7c0.4-0.8,1-1.2,1.9-1.2c0.7,0,1.2,0.2,1.6,0.7s0.6,1.1,0.6,1.8v3.4h-0.9V10c0-0.6-0.1-1-0.4-1.2
		c-0.3-0.3-0.6-0.4-1.1-0.4S45.3,8.5,45,8.9c-0.3,0.4-0.5,0.9-0.5,1.6v2.8h-0.9V7.6h0.8L44.5,8.7z"/>
	<path class="st1" d="M52.8,12.7c0.8,0,1.2-0.3,1.4-1h1c-0.1,0.6-0.3,1-0.8,1.3c-0.4,0.3-0.9,0.5-1.6,0.5c-0.8,0-1.4-0.3-1.9-0.8
		c-0.5-0.5-0.7-1.3-0.7-2.2c0-0.9,0.2-1.6,0.7-2.2c0.5-0.5,1.1-0.8,1.9-0.8c0.8,0,1.4,0.3,1.8,0.9s0.5,1.4,0.4,2.3h-3.9
		c0,0.6,0.1,1.1,0.4,1.5S52.3,12.7,52.8,12.7z M53.5,8.4c-0.2-0.1-0.4-0.1-0.7-0.1c-0.5,0-0.9,0.2-1.2,0.5C51.4,9,51.2,9.5,51.2,10
		h3.1C54.2,9.2,54,8.6,53.5,8.4z"/>
	<path class="st1" d="M57.2,13.2c-0.5-0.2-0.7-0.6-0.7-1.1c0-0.2,0.1-0.5,0.3-0.7c0.2-0.2,0.4-0.3,0.7-0.4c-0.4-0.4-0.6-0.9-0.6-1.5
		s0.2-1.1,0.7-1.5c0.4-0.4,1-0.6,1.6-0.6s1.1,0.1,1.5,0.4c0.1-0.4,0.2-0.8,0.5-1c0.3-0.3,0.7-0.4,1.1-0.4l-0.1,0.9
		c-0.7,0-1.1,0.3-1.1,0.9c0.3,0.3,0.4,0.8,0.4,1.2c0,0.6-0.2,1.1-0.7,1.5c-0.4,0.4-1,0.6-1.7,0.6c-0.5,0-0.9-0.1-1.2-0.3
		c-0.2,0-0.3,0.1-0.4,0.2c-0.1,0.1-0.2,0.3-0.2,0.5c0,0.4,0.4,0.6,1.1,0.6h2.2c0.5,0,1,0.1,1.3,0.3c0.3,0.2,0.5,0.5,0.5,1
		c0,0.6-0.3,1.1-0.9,1.6c-0.6,0.5-1.4,0.7-2.3,0.7s-1.7-0.2-2.2-0.5c-0.5-0.3-0.8-0.8-0.8-1.3c0-0.3,0.1-0.6,0.3-0.8
		C56.6,13.4,56.9,13.2,57.2,13.2z M57.1,14.4c0,0.3,0.2,0.6,0.5,0.8c0.3,0.2,0.8,0.3,1.5,0.3c0.7,0,1.2-0.1,1.7-0.4
		c0.5-0.3,0.7-0.6,0.7-1c0-0.2-0.1-0.3-0.2-0.5c-0.1-0.1-0.3-0.2-0.6-0.2h-2.3c-0.4,0-0.7,0.1-0.9,0.3
		C57.2,13.9,57.1,14.1,57.1,14.4z M60.6,9.5c0-0.4-0.1-0.7-0.4-1c-0.2-0.3-0.6-0.4-1-0.4s-0.8,0.1-1,0.4s-0.4,0.6-0.4,1
		s0.1,0.8,0.4,1c0.3,0.3,0.6,0.4,1,0.4c0.4,0,0.8-0.1,1-0.4C60.5,10.3,60.6,10,60.6,9.5z"/>
	<path class="st1" d="M67.3,9.6c0-0.5-0.1-0.9-0.3-1.1s-0.5-0.3-0.9-0.3s-0.7,0.1-1,0.2s-0.4,0.4-0.4,0.8h-1c0-0.9,0.5-1.4,1.4-1.6
		c0.3-0.1,0.6-0.1,0.9-0.1c0.7,0,1.3,0.2,1.7,0.5c0.4,0.4,0.6,0.9,0.6,1.6v3.7h-0.8l-0.1-1c-0.4,0.7-1,1.1-1.9,1.1
		c-0.6,0-1.1-0.2-1.5-0.5s-0.6-0.8-0.6-1.3s0.2-0.9,0.6-1.2S65,10,65.6,10c0.6,0,1.2,0.1,1.8,0.3V9.6z M67.3,10.9
		c-0.6-0.2-1.1-0.2-1.5-0.2s-0.8,0.1-1,0.2c-0.3,0.2-0.4,0.4-0.4,0.7c0,0.7,0.4,1.1,1.2,1.1c0.5,0,0.9-0.2,1.2-0.5
		C67.2,11.9,67.3,11.5,67.3,10.9z"/>
	<path class="st1" d="M73.5,13.2c-0.7,0.3-1.3,0.4-1.9,0.2c-0.4-0.1-0.7-0.4-0.9-0.8c-0.1-0.2-0.1-0.4-0.1-0.7V8.3h-0.9V7.6h0.9V6
		h0.9v1.6h1.8v0.7h-1.8v3.5c0,0.6,0.3,0.9,0.8,0.9c0.3,0,0.6-0.1,1-0.2L73.5,13.2z"/>
	<path class="st1" d="M75.5,6.2c-0.2,0-0.3-0.1-0.5-0.2C75,6,74.9,5.8,74.9,5.7c0-0.2,0.1-0.3,0.2-0.4c0.1-0.1,0.3-0.2,0.5-0.2
		c0.2,0,0.3,0.1,0.5,0.2c0.1,0.1,0.2,0.3,0.2,0.4c0,0.2-0.1,0.3-0.2,0.4C75.9,6.2,75.7,6.2,75.5,6.2z M75.1,7.6H76v5.7h-0.9V7.6z"/>
	<path class="st1" d="M78.7,7.6l1.7,4.7l1.7-4.7h1.1l-2.3,5.7h-1l-2.3-5.7H78.7z"/>
	<path class="st1" d="M86.6,12.7c0.8,0,1.2-0.3,1.4-1h1c-0.1,0.6-0.3,1-0.8,1.3c-0.4,0.3-0.9,0.5-1.6,0.5c-0.8,0-1.4-0.3-1.9-0.8
		c-0.5-0.5-0.7-1.3-0.7-2.2c0-0.9,0.2-1.6,0.7-2.2c0.5-0.5,1.1-0.8,1.9-0.8c0.8,0,1.4,0.3,1.8,0.9s0.5,1.4,0.4,2.3H85
		c0,0.6,0.1,1.1,0.4,1.5S86.1,12.7,86.6,12.7z M87.3,8.4c-0.2-0.1-0.4-0.1-0.7-0.1c-0.5,0-0.9,0.2-1.2,0.5C85.2,9,85,9.5,85,10H88
		C88,9.2,87.8,8.6,87.3,8.4z"/>
	<path class="st1" d="M94.6,8.5c0.4-0.7,0.9-1,1.7-1c0.7,0,1.3,0.3,1.8,0.8c0.5,0.5,0.7,1.3,0.7,2.2c0,0.9-0.2,1.6-0.7,2.2
		c-0.5,0.6-1.1,0.8-1.8,0.8c-0.4,0-0.7-0.1-1-0.3c-0.3-0.2-0.6-0.5-0.7-0.9l-0.2,1h-0.7V5.2h0.9V8.5z M96.2,8.3
		c-0.5,0-0.8,0.1-1.1,0.4C94.8,9,94.6,9.4,94.6,10v0.9c0,0.5,0.2,0.9,0.5,1.3c0.3,0.3,0.7,0.5,1.1,0.5c0.4,0,0.8-0.2,1.2-0.6
		c0.3-0.4,0.5-0.9,0.5-1.6c0-0.7-0.2-1.2-0.5-1.6C97.1,8.5,96.7,8.3,96.2,8.3z"/>
	<path class="st1" d="M104.6,12.2c-0.4,0.8-1,1.2-1.9,1.2c-0.6,0-1.2-0.2-1.6-0.5c-0.4-0.4-0.6-0.9-0.6-1.7V7.6h0.9v3.6
		c0,1,0.4,1.5,1.3,1.5c0.5,0,0.9-0.2,1.3-0.6c0.3-0.4,0.5-0.9,0.5-1.5V7.6h0.9v5.7h-0.9V12.2z"/>
	<path class="st1" d="M111.7,8.5V5.2h0.9v8.2h-0.8l-0.1-1c-0.2,0.4-0.4,0.6-0.7,0.8c-0.3,0.2-0.6,0.3-1,0.3c-0.7,0-1.3-0.3-1.8-0.8
		c-0.5-0.6-0.7-1.3-0.7-2.2c0-0.9,0.2-1.6,0.7-2.2c0.5-0.5,1.1-0.8,1.8-0.8C110.8,7.5,111.3,7.8,111.7,8.5z M110.1,8.3
		c-0.5,0-0.9,0.2-1.2,0.6c-0.3,0.4-0.5,0.9-0.5,1.6c0,0.7,0.2,1.2,0.5,1.6c0.3,0.4,0.7,0.6,1.2,0.6c0.4,0,0.8-0.2,1.1-0.5
		c0.3-0.3,0.5-0.7,0.5-1.2V10c0-0.5-0.2-1-0.5-1.3C110.9,8.5,110.5,8.3,110.1,8.3z"/>
	<path class="st1" d="M115.3,13.2c-0.5-0.2-0.7-0.6-0.7-1.1c0-0.2,0.1-0.5,0.3-0.7c0.2-0.2,0.4-0.3,0.7-0.4
		c-0.4-0.4-0.6-0.9-0.6-1.5s0.2-1.1,0.7-1.5c0.4-0.4,1-0.6,1.6-0.6s1.1,0.1,1.5,0.4c0.1-0.4,0.2-0.8,0.5-1c0.3-0.3,0.7-0.4,1.1-0.4
		l-0.1,0.9c-0.7,0-1.1,0.3-1.1,0.9c0.3,0.3,0.4,0.8,0.4,1.2c0,0.6-0.2,1.1-0.7,1.5c-0.4,0.4-1,0.6-1.7,0.6c-0.5,0-0.9-0.1-1.2-0.3
		c-0.2,0-0.3,0.1-0.4,0.2c-0.1,0.1-0.2,0.3-0.2,0.5c0,0.4,0.4,0.6,1.1,0.6h2.2c0.5,0,1,0.1,1.3,0.3c0.3,0.2,0.5,0.5,0.5,1
		c0,0.6-0.3,1.1-0.9,1.6c-0.6,0.5-1.4,0.7-2.3,0.7s-1.7-0.2-2.2-0.5c-0.5-0.3-0.8-0.8-0.8-1.3c0-0.3,0.1-0.6,0.3-0.8
		C114.7,13.4,115,13.2,115.3,13.2z M115.1,14.4c0,0.3,0.2,0.6,0.5,0.8c0.3,0.2,0.8,0.3,1.5,0.3c0.7,0,1.2-0.1,1.7-0.4
		c0.5-0.3,0.7-0.6,0.7-1c0-0.2-0.1-0.3-0.2-0.5c-0.1-0.1-0.3-0.2-0.6-0.2h-2.3c-0.4,0-0.7,0.1-0.9,0.3
		C115.2,13.9,115.1,14.1,115.1,14.4z M118.7,9.5c0-0.4-0.1-0.7-0.4-1c-0.2-0.3-0.6-0.4-1-0.4s-0.8,0.1-1,0.4s-0.4,0.6-0.4,1
		s0.1,0.8,0.4,1c0.3,0.3,0.6,0.4,1,0.4c0.4,0,0.8-0.1,1-0.4C118.5,10.3,118.7,10,118.7,9.5z"/>
	<path class="st1" d="M123.8,12.7c0.8,0,1.2-0.3,1.4-1h1c-0.1,0.6-0.3,1-0.8,1.3c-0.4,0.3-0.9,0.5-1.6,0.5c-0.8,0-1.4-0.3-1.9-0.8
		c-0.5-0.5-0.7-1.3-0.7-2.2c0-0.9,0.2-1.6,0.7-2.2c0.5-0.5,1.1-0.8,1.9-0.8c0.8,0,1.4,0.3,1.8,0.9s0.5,1.4,0.4,2.3h-3.9
		c0,0.6,0.1,1.1,0.4,1.5S123.3,12.7,123.8,12.7z M124.5,8.4c-0.2-0.1-0.4-0.1-0.7-0.1c-0.5,0-0.9,0.2-1.2,0.5
		c-0.3,0.3-0.5,0.7-0.5,1.2h3.1C125.3,9.2,125,8.6,124.5,8.4z"/>
	<path class="st1" d="M131,13.2c-0.7,0.3-1.3,0.4-1.9,0.2c-0.4-0.1-0.7-0.4-0.9-0.8c-0.1-0.2-0.1-0.4-0.1-0.7V8.3h-0.9V7.6h0.9V6
		h0.9v1.6h1.8v0.7h-1.8v3.5c0,0.6,0.3,0.9,0.8,0.9c0.3,0,0.6-0.1,1-0.2L131,13.2z"/>
</g>
<g>
	<path class="st0" d="M180.4,12c-0.3,1-1,1.4-2,1.4c-1,0-1.8-0.4-2.4-1.1s-0.9-1.7-0.9-2.8c0-1.2,0.3-2.1,1-2.8
		c0.7-0.7,1.5-1.1,2.5-1.1c0.6,0,1.1,0.1,1.6,0.4c0.4,0.2,0.8,0.6,1.1,1.2l-0.9,0.3c-0.5-0.6-1.1-1-1.8-1s-1.3,0.3-1.8,0.9
		s-0.7,1.3-0.7,2.2s0.2,1.6,0.6,2.2c0.4,0.6,1,0.8,1.7,0.8c0.6,0,1-0.2,1.4-0.6c0.4-0.4,0.5-1,0.5-1.7v0l-1.9-0.1V9.6h2.8v3.7h-0.8
		L180.4,12z"/>
	<path class="st0" d="M185.8,8.4c-0.9,0-1.4,0.7-1.4,2.1v2.8h-0.9V7.6h0.9v1.1c0.3-0.8,0.8-1.2,1.5-1.2c0.2,0,0.5,0,0.7,0.1l0,0.9
		C186.3,8.4,186,8.4,185.8,8.4z"/>
	<path class="st0" d="M190.1,7.5c0.8,0,1.4,0.3,1.9,0.8c0.5,0.5,0.7,1.3,0.7,2.2c0,1-0.2,1.7-0.7,2.2c-0.5,0.5-1.1,0.8-1.9,0.8
		s-1.4-0.3-1.9-0.8c-0.5-0.5-0.7-1.3-0.7-2.2c0-1,0.2-1.7,0.7-2.2C188.7,7.7,189.3,7.5,190.1,7.5z M191.8,10.5
		c0-0.7-0.1-1.2-0.4-1.6c-0.3-0.4-0.7-0.6-1.3-0.6c-0.6,0-1,0.2-1.3,0.6c-0.3,0.4-0.4,0.9-0.4,1.6s0.1,1.2,0.4,1.6
		c0.3,0.4,0.7,0.6,1.3,0.6c0.6,0,1-0.2,1.3-0.6C191.7,11.7,191.8,11.1,191.8,10.5z"/>
	<path class="st0" d="M194.9,7.9c0.4-0.3,1-0.4,1.6-0.4s1.2,0.1,1.6,0.4s0.6,0.7,0.6,1.1h-0.9c-0.1-0.5-0.5-0.8-1.3-0.8
		c-0.4,0-0.7,0.1-0.9,0.3s-0.3,0.4-0.3,0.6s0.1,0.4,0.2,0.5c0.2,0.1,0.4,0.3,0.8,0.4l1.2,0.4c0.5,0.2,0.9,0.3,1.1,0.6
		c0.3,0.2,0.4,0.6,0.4,1c0,0.4-0.2,0.8-0.6,1.1c-0.4,0.3-1,0.5-1.8,0.5s-1.4-0.2-1.8-0.5s-0.6-0.8-0.7-1.3h0.9
		c0,0.4,0.2,0.6,0.4,0.8c0.3,0.2,0.6,0.3,1,0.3s0.8-0.1,1-0.3s0.4-0.4,0.4-0.6s-0.1-0.4-0.2-0.6c-0.2-0.1-0.4-0.2-0.8-0.3l-1.1-0.4
		c-1-0.3-1.5-0.8-1.5-1.6C194.3,8.5,194.5,8.2,194.9,7.9z"/>
	<path class="st0" d="M201.2,7.9c0.4-0.3,1-0.4,1.6-0.4c0.7,0,1.2,0.1,1.6,0.4c0.4,0.3,0.6,0.7,0.6,1.1h-0.9
		c-0.1-0.5-0.5-0.8-1.3-0.8c-0.4,0-0.7,0.1-0.9,0.3c-0.2,0.2-0.3,0.4-0.3,0.6s0.1,0.4,0.2,0.5c0.2,0.1,0.4,0.3,0.8,0.4l1.2,0.4
		c0.5,0.2,0.9,0.3,1.1,0.6c0.3,0.2,0.4,0.6,0.4,1c0,0.4-0.2,0.8-0.6,1.1c-0.4,0.3-1,0.5-1.8,0.5s-1.4-0.2-1.8-0.5
		c-0.4-0.3-0.6-0.8-0.7-1.3h0.9c0,0.4,0.2,0.6,0.4,0.8c0.3,0.2,0.6,0.3,1,0.3s0.8-0.1,1-0.3c0.3-0.2,0.4-0.4,0.4-0.6
		s-0.1-0.4-0.2-0.6c-0.2-0.1-0.4-0.2-0.8-0.3l-1.1-0.4c-1-0.3-1.5-0.8-1.5-1.6C200.6,8.5,200.8,8.2,201.2,7.9z"/>
	<path class="st0" d="M211,8.5c0.4-0.7,0.9-1,1.7-1s1.4,0.3,1.9,0.8c0.5,0.6,0.8,1.3,0.8,2.2c0,0.9-0.3,1.6-0.8,2.2
		c-0.5,0.5-1.1,0.8-1.9,0.8s-1.3-0.3-1.6-0.8v3.5h-0.9V7.6h0.8L211,8.5z M212.6,12.6c0.4,0,0.8-0.2,1.2-0.6s0.5-0.9,0.5-1.6
		s-0.2-1.2-0.5-1.6c-0.3-0.4-0.7-0.6-1.2-0.6c-0.5,0-0.8,0.1-1.1,0.4C211.2,9,211,9.4,211,9.9V11c0,0.5,0.2,0.9,0.5,1.2
		C211.8,12.5,212.1,12.6,212.6,12.6z"/>
	<path class="st0" d="M219.3,7.5c0.8,0,1.4,0.3,1.9,0.8c0.5,0.5,0.7,1.3,0.7,2.2c0,1-0.2,1.7-0.7,2.2c-0.5,0.5-1.1,0.8-1.9,0.8
		s-1.4-0.3-1.9-0.8c-0.5-0.5-0.7-1.3-0.7-2.2c0-1,0.2-1.7,0.7-2.2C217.8,7.7,218.5,7.5,219.3,7.5z M221,10.5c0-0.7-0.1-1.2-0.4-1.6
		c-0.3-0.4-0.7-0.6-1.3-0.6c-0.6,0-1,0.2-1.3,0.6c-0.3,0.4-0.4,0.9-0.4,1.6s0.1,1.2,0.4,1.6c0.3,0.4,0.7,0.6,1.3,0.6
		c0.6,0,1-0.2,1.3-0.6C220.8,11.7,221,11.1,221,10.5z"/>
	<path class="st0" d="M224.1,7.9c0.4-0.3,0.9-0.4,1.6-0.4s1.2,0.1,1.6,0.4c0.4,0.3,0.6,0.7,0.6,1.1H227c-0.1-0.5-0.5-0.8-1.3-0.8
		c-0.4,0-0.7,0.1-0.9,0.3s-0.3,0.4-0.3,0.6s0.1,0.4,0.2,0.5c0.2,0.1,0.4,0.3,0.8,0.4l1.2,0.4c0.5,0.2,0.9,0.3,1.1,0.6
		c0.3,0.2,0.4,0.6,0.4,1c0,0.4-0.2,0.8-0.6,1.1s-1,0.5-1.8,0.5c-0.8,0-1.4-0.2-1.8-0.5c-0.4-0.3-0.6-0.8-0.7-1.3h0.9
		c0,0.4,0.2,0.6,0.4,0.8s0.6,0.3,1,0.3s0.8-0.1,1-0.3s0.4-0.4,0.4-0.6s-0.1-0.4-0.2-0.6c-0.2-0.1-0.4-0.2-0.8-0.3l-1.1-0.4
		c-1-0.3-1.5-0.8-1.5-1.6C223.4,8.5,223.6,8.2,224.1,7.9z"/>
	<path class="st0" d="M230.6,6.2c-0.2,0-0.3-0.1-0.5-0.2C230,6,230,5.8,230,5.7c0-0.2,0.1-0.3,0.2-0.4c0.1-0.1,0.3-0.2,0.5-0.2
		s0.3,0.1,0.5,0.2c0.1,0.1,0.2,0.3,0.2,0.4c0,0.2-0.1,0.3-0.2,0.4C230.9,6.2,230.8,6.2,230.6,6.2z M230.1,7.6h0.9v5.7h-0.9V7.6z"/>
	<path class="st0" d="M236.6,13.2c-0.7,0.3-1.3,0.4-1.9,0.2c-0.4-0.1-0.7-0.4-0.9-0.8c-0.1-0.2-0.1-0.4-0.1-0.7V8.3h-0.9V7.6h0.9V6
		h0.9v1.6h1.8v0.7h-1.8v3.5c0,0.6,0.3,0.9,0.8,0.9c0.3,0,0.6-0.1,1-0.2L236.6,13.2z"/>
	<path class="st0" d="M238.7,6.2c-0.2,0-0.3-0.1-0.5-0.2c-0.1-0.1-0.2-0.3-0.2-0.4c0-0.2,0.1-0.3,0.2-0.4c0.1-0.1,0.3-0.2,0.5-0.2
		s0.3,0.1,0.5,0.2c0.1,0.1,0.2,0.3,0.2,0.4c0,0.2-0.1,0.3-0.2,0.4C239,6.2,238.9,6.2,238.7,6.2z M238.2,7.6h0.9v5.7h-0.9V7.6z"/>
	<path class="st0" d="M241.8,7.6l1.7,4.7l1.7-4.7h1.1l-2.3,5.7h-1l-2.3-5.7H241.8z"/>
	<path class="st0" d="M249.8,12.7c0.8,0,1.2-0.3,1.4-1h1c-0.1,0.6-0.3,1-0.8,1.3s-0.9,0.5-1.6,0.5c-0.8,0-1.4-0.3-1.9-0.8
		c-0.5-0.5-0.7-1.3-0.7-2.2s0.2-1.6,0.7-2.2c0.5-0.5,1.1-0.8,1.9-0.8c0.8,0,1.4,0.3,1.8,0.9c0.4,0.6,0.5,1.4,0.4,2.3h-3.9
		c0,0.6,0.1,1.1,0.4,1.5C248.8,12.5,249.2,12.7,249.8,12.7z M250.5,8.4c-0.2-0.1-0.4-0.1-0.7-0.1c-0.5,0-0.9,0.2-1.2,0.5
		c-0.3,0.3-0.5,0.7-0.5,1.2h3.1C251.2,9.2,250.9,8.6,250.5,8.4z"/>
	<path class="st0" d="M257.8,8.5c0.4-0.7,0.9-1,1.7-1c0.7,0,1.3,0.3,1.8,0.8c0.5,0.5,0.7,1.3,0.7,2.2c0,0.9-0.2,1.6-0.7,2.2
		c-0.5,0.6-1.1,0.8-1.8,0.8c-0.4,0-0.7-0.1-1-0.3c-0.3-0.2-0.5-0.5-0.7-0.9l-0.2,1h-0.7V5.2h0.9V8.5z M259.4,8.3
		c-0.5,0-0.8,0.1-1.1,0.4c-0.3,0.3-0.5,0.7-0.5,1.2v0.9c0,0.5,0.2,1,0.5,1.3c0.3,0.3,0.7,0.5,1.1,0.5c0.4,0,0.8-0.2,1.2-0.6
		c0.3-0.4,0.5-0.9,0.5-1.6s-0.2-1.2-0.5-1.6C260.2,8.5,259.8,8.3,259.4,8.3z"/>
	<path class="st0" d="M267.7,12.2c-0.4,0.8-1,1.2-1.9,1.2c-0.6,0-1.2-0.2-1.6-0.5c-0.4-0.4-0.6-0.9-0.6-1.7V7.6h0.9v3.6
		c0,1,0.4,1.5,1.3,1.5c0.5,0,0.9-0.2,1.3-0.6c0.3-0.4,0.5-0.9,0.5-1.5V7.6h0.9v5.7h-0.9V12.2z"/>
	<path class="st0" d="M274.9,8.5V5.2h0.9v8.2H275l-0.1-1c-0.2,0.4-0.4,0.6-0.7,0.8c-0.3,0.2-0.6,0.3-1,0.3c-0.7,0-1.3-0.3-1.8-0.8
		c-0.5-0.6-0.7-1.3-0.7-2.2c0-0.9,0.2-1.6,0.7-2.2c0.5-0.5,1.1-0.8,1.8-0.8S274.5,7.8,274.9,8.5z M273.2,8.3c-0.5,0-0.9,0.2-1.2,0.6
		c-0.3,0.4-0.5,0.9-0.5,1.6s0.2,1.2,0.5,1.6c0.3,0.4,0.7,0.6,1.2,0.6c0.4,0,0.8-0.2,1.1-0.5c0.3-0.3,0.5-0.7,0.5-1.2V10
		c0-0.5-0.2-1-0.5-1.3C274.1,8.5,273.7,8.3,273.2,8.3z"/>
	<path class="st0" d="M278.5,13.2c-0.5-0.2-0.7-0.6-0.7-1.1c0-0.2,0.1-0.5,0.3-0.7c0.2-0.2,0.4-0.3,0.7-0.4
		c-0.4-0.4-0.6-0.9-0.6-1.5s0.2-1.1,0.7-1.5c0.4-0.4,1-0.6,1.6-0.6s1.1,0.1,1.5,0.4c0.1-0.4,0.2-0.8,0.5-1c0.3-0.3,0.7-0.4,1.1-0.4
		l-0.1,0.9c-0.7,0-1.1,0.3-1.1,0.9c0.3,0.3,0.4,0.8,0.4,1.2c0,0.6-0.2,1.1-0.7,1.5c-0.4,0.4-1,0.6-1.7,0.6c-0.5,0-0.9-0.1-1.2-0.3
		c-0.2,0-0.3,0.1-0.4,0.2c-0.1,0.1-0.2,0.3-0.2,0.5c0,0.4,0.4,0.6,1.1,0.6h2.2c0.5,0,1,0.1,1.3,0.3c0.3,0.2,0.5,0.5,0.5,1
		c0,0.6-0.3,1.1-0.9,1.6c-0.6,0.5-1.4,0.7-2.3,0.7s-1.7-0.2-2.2-0.5c-0.5-0.3-0.8-0.8-0.8-1.3c0-0.3,0.1-0.6,0.3-0.8
		C277.9,13.4,278.1,13.2,278.5,13.2z M278.3,14.4c0,0.3,0.2,0.6,0.5,0.8c0.3,0.2,0.8,0.3,1.5,0.3c0.7,0,1.2-0.1,1.7-0.4
		c0.5-0.3,0.7-0.6,0.7-1c0-0.2-0.1-0.3-0.2-0.5c-0.1-0.1-0.3-0.2-0.6-0.2h-2.3c-0.4,0-0.7,0.1-0.9,0.3
		C278.4,13.9,278.3,14.1,278.3,14.4z M281.8,9.5c0-0.4-0.1-0.7-0.4-1c-0.2-0.3-0.6-0.4-1-0.4s-0.8,0.1-1,0.4s-0.4,0.6-0.4,1
		s0.1,0.8,0.4,1c0.3,0.3,0.6,0.4,1,0.4s0.8-0.1,1-0.4C281.7,10.3,281.8,10,281.8,9.5z"/>
	<path class="st0" d="M287,12.7c0.8,0,1.2-0.3,1.4-1h1c-0.1,0.6-0.3,1-0.8,1.3c-0.4,0.3-0.9,0.5-1.6,0.5c-0.8,0-1.4-0.3-1.9-0.8
		c-0.5-0.5-0.7-1.3-0.7-2.2s0.2-1.6,0.7-2.2c0.5-0.5,1.1-0.8,1.9-0.8s1.4,0.3,1.8,0.9c0.4,0.6,0.5,1.4,0.4,2.3h-3.9
		c0,0.6,0.1,1.1,0.4,1.5C286.1,12.5,286.5,12.7,287,12.7z M287.7,8.4c-0.2-0.1-0.4-0.1-0.7-0.1c-0.5,0-0.9,0.2-1.2,0.5
		c-0.3,0.3-0.4,0.7-0.5,1.2h3.1C288.4,9.2,288.2,8.6,287.7,8.4z"/>
	<path class="st0" d="M294.2,13.2c-0.7,0.3-1.3,0.4-1.9,0.2c-0.4-0.1-0.7-0.4-0.9-0.8c-0.1-0.2-0.1-0.4-0.1-0.7V8.3h-0.9V7.6h0.9V6
		h0.9v1.6h1.8v0.7h-1.8v3.5c0,0.6,0.3,0.9,0.8,0.9c0.3,0,0.6-0.1,1-0.2L294.2,13.2z"/>
</g>
</svg>
