<?xml version="1.0" encoding="utf-8"?>
<!-- Generator: Adobe Illustrator 22.0.1, SVG Export Plug-In . SVG Version: 6.00 Build 0)  -->
<svg version="1.1" xmlns="http://www.w3.org/2000/svg" xmlns:xlink="http://www.w3.org/1999/xlink" x="0px" y="0px"
	 viewBox="0 0 36.7 37.3" style="enable-background:new 0 0 36.7 37.3;" xml:space="preserve">
<style type="text/css">
	.st0{fill:#3A3B51;}
	.st1{fill:#FFFFFF;}
	.st2{fill:none;stroke:#000000;stroke-miterlimit:10;}
	.st3{fill:#666666;}
	.st4{opacity:0.5;}
	.st5{fill:none;stroke:#F5847F;stroke-width:2;stroke-miterlimit:10;}
	.st6{opacity:0.3;fill:none;stroke:#F5847F;stroke-miterlimit:10;}
	.st7{fill:#FFFFFF;stroke:#F5847F;stroke-width:2;stroke-miterlimit:10;}
	.st8{opacity:0.3;fill:#FFFFFF;stroke:#F5847F;stroke-miterlimit:10;}
	.st9{fill:#B3B3B3;}
	.st10{fill:#FFFFFF;stroke:#4A7178;stroke-width:2;stroke-miterlimit:10;}
	.st11{fill:none;stroke:#999999;stroke-linecap:round;stroke-miterlimit:10;stroke-dasharray:0.1,2;}
	.st12{opacity:0.25;fill:none;stroke:#F5847F;stroke-miterlimit:10;stroke-dasharray:3,1;}
	.st13{fill:#428F82;}
	.st14{fill:none;stroke:#666666;stroke-miterlimit:10;}
	.st15{fill:none;stroke:#666666;stroke-width:0.5;stroke-miterlimit:10;}
	.st16{fill:none;stroke:#666666;stroke-width:2;stroke-miterlimit:10;}
	.st17{fill:#FFFFFF;stroke:url(#SVGID_1_);stroke-miterlimit:10;}
	.st18{fill:#E6E6E6;}
	.st19{fill:none;stroke:#808080;stroke-miterlimit:10;}
	.st20{fill:#F5847F;}
	.st21{fill:#4A7178;}
	.st22{fill:#F1CF8B;}
	.st23{fill:#F2B98D;}
	.st24{fill:#82F4D3;}
	.st25{fill:#4A5077;}
	.st26{fill:#8EEF8F;}
	.st27{fill:#2585C6;}
	.st28{fill:#F1B447;}
	.st29{fill:#EEA966;}
	.st30{fill:#925BA7;}
	.st31{fill:#C7A3D8;}
	.st32{fill:none;stroke:#E6E6E6;stroke-width:0.5;stroke-miterlimit:10;}
	.st33{opacity:0.5;fill:#FFFFFF;}
	.st34{fill:none;stroke:#E6E6E6;stroke-width:2;stroke-miterlimit:10;}
	.st35{opacity:0.7;fill:#82F4D3;}
	.st36{fill:none;stroke:#FFFFFF;stroke-width:0.5;stroke-miterlimit:10;}
	.st37{fill:none;stroke:#FFFFFF;stroke-width:3;stroke-miterlimit:10;}
	.st38{fill:none;stroke:#F5847F;stroke-width:3;stroke-miterlimit:10;}
	.st39{fill:none;stroke:#82F4D3;stroke-width:3;stroke-miterlimit:10;}
	.st40{fill:#034EA2;}
	.st41{fill:#FFCC02;}
	.st42{fill:none;stroke:#FFFFFF;stroke-width:4;stroke-miterlimit:10;}
	.st43{fill:none;stroke:#3A3B51;stroke-width:4;stroke-miterlimit:10;}
	.st44{fill:none;stroke:#FCB614;stroke-miterlimit:10;}
	.st45{fill:#FCB614;}
	.st46{fill:none;stroke:#48773C;stroke-width:1.5;stroke-miterlimit:10;}
	.st47{fill:#48773C;}
	.st48{fill:none;stroke:#48773C;stroke-miterlimit:10;}
	.st49{display:none;}
	.st50{display:inline;opacity:0.3;fill:url(#);}
	.st51{display:inline;}
	.st52{opacity:0.3;fill:url(#);}
</style>
<g id="bg">
</g>
<g id="Layer_1">
	<g>
		<rect x="1.3" y="1.7" class="st44" width="34" height="34"/>
		<g>
			<path class="st45" d="M18.3,25.7c-1.4,0-2.6-1.2-2.6-2.6c0-1.2,0.8-2.2,1.8-2.5v1c-0.6,0.3-0.9,0.9-0.9,1.5
				c0,0.9,0.8,1.7,1.7,1.7c0.9,0,1.7-0.8,1.7-1.7c0-0.7-0.4-1.2-0.9-1.5v-1c1.1,0.3,1.8,1.3,1.8,2.5C20.9,24.5,19.8,25.7,18.3,25.7
				 M18,20.1c0-0.2,0.2-0.3,0.4-0.3c0.2,0,0.4,0.2,0.4,0.3v1.7c0,0.2-0.2,0.3-0.4,0.3c-0.2,0-0.4-0.2-0.4-0.3V20.1z M18.3,18.1
				c-2.8,0-5,2.2-5,5c0,2.8,2.2,5,5,5c2.8,0,5-2.2,5-5C23.3,20.4,21.1,18.1,18.3,18.1"/>
			<path class="st45" d="M12.6,23.1c0-0.2-0.2-0.4-0.4-0.4H10c-0.2,0-0.4,0.2-0.4,0.4c0,0.2,0.2,0.4,0.4,0.4h2.2
				C12.4,23.5,12.6,23.3,12.6,23.1"/>
			<path class="st45" d="M27.1,23.1c0-0.2-0.2-0.4-0.4-0.4h-2.2c-0.2,0-0.4,0.2-0.4,0.4c0,0.2,0.2,0.4,0.4,0.4h2.2
				C26.8,23.5,27.1,23.3,27.1,23.1"/>
			<path class="st45" d="M18.3,31.8c0.2,0,0.4-0.2,0.4-0.4v-2.2c0-0.2-0.2-0.4-0.4-0.4c-0.2,0-0.4,0.2-0.4,0.4v2.2
				C17.9,31.6,18.1,31.8,18.3,31.8"/>
			<path class="st45" d="M25.9,27.4c0.1-0.2,0-0.5-0.1-0.5l-1.9-1.1c-0.2-0.1-0.4,0-0.5,0.2c-0.1,0.2,0,0.5,0.1,0.6l1.9,1.1
				C25.5,27.7,25.8,27.6,25.9,27.4"/>
			<path class="st45" d="M14,30.7c0.2,0.1,0.5,0,0.5-0.1l1.1-1.9c0.1-0.2,0-0.4-0.2-0.5c-0.2-0.1-0.5,0-0.6,0.1l-1.1,1.9
				C13.8,30.3,13.8,30.5,14,30.7"/>
			<path class="st45" d="M22.7,30.6c0.2-0.1,0.3-0.4,0.2-0.5l-1.1-1.9c-0.1-0.2-0.4-0.2-0.5-0.1C21,28.2,21,28.5,21,28.6l1.1,1.9
				C22.2,30.7,22.5,30.8,22.7,30.6"/>
			<path class="st45" d="M10.8,27.4c0.1,0.2,0.4,0.3,0.5,0.2l1.9-1.1c0.2-0.1,0.2-0.4,0.1-0.5c-0.1-0.2-0.4-0.3-0.5-0.2l-1.9,1.1
				C10.8,27,10.7,27.2,10.8,27.4"/>
			<path class="st45" d="M18.3,17.4c0.2,0,0.4-0.2,0.4-0.4v-2.2c0-0.2-0.2-0.4-0.4-0.4c-0.2,0-0.4,0.2-0.4,0.4V17
				C17.9,17.2,18.1,17.4,18.3,17.4"/>
			<path class="st45" d="M13.4,20.2c0.1-0.2,0-0.5-0.1-0.5l-1.9-1.1c-0.2-0.1-0.4,0-0.5,0.2c-0.1,0.2,0,0.5,0.1,0.5l1.9,1.1
				C13,20.5,13.3,20.4,13.4,20.2"/>
			<path class="st45" d="M21.2,18.1c0.2,0.1,0.5,0,0.5-0.1l1.1-1.9c0.1-0.2,0-0.4-0.2-0.5c-0.2-0.1-0.5,0-0.6,0.1L21,17.6
				C20.9,17.7,21,18,21.2,18.1"/>
			<path class="st45" d="M15.5,18.1c0.2-0.1,0.3-0.4,0.2-0.5l-1.1-1.9c-0.1-0.2-0.4-0.2-0.5-0.1c-0.2,0.1-0.3,0.4-0.2,0.5l1.1,1.9
				C15,18.1,15.3,18.2,15.5,18.1"/>
			<path class="st45" d="M23.3,20.2c0.1,0.2,0.4,0.3,0.5,0.2l1.9-1.1c0.2-0.1,0.2-0.4,0.1-0.5c-0.1-0.2-0.4-0.3-0.5-0.2l-1.9,1.1
				C23.3,19.8,23.2,20,23.3,20.2"/>
		</g>
		<polygon class="st45" points="4.8,5.4 6.6,5.4 5,11.3 6.2,11.3 7.7,5.5 7.7,4.5 4.8,4.5 		"/>
		<path class="st45" d="M11.5,6.4h0.4l-0.2-1.2h0L11.5,6.4z M10.9,7.3l0.5-2.9H12l0.5,2.9h-0.5L12,6.8h-0.5l-0.1,0.5H10.9z"/>
		<polygon class="st45" points="12.8,4.5 13.9,4.5 13.9,4.9 13.2,4.9 13.2,5.7 13.7,5.7 13.7,6.1 13.2,6.1 13.2,7.3 12.8,7.3 		"/>
		<polygon class="st45" points="14.1,4.5 15.2,4.5 15.2,4.9 14.6,4.9 14.6,5.7 15.1,5.7 15.1,6.1 14.6,6.1 14.6,7.3 14.1,7.3 		"/>
		<g>
			<path class="st45" d="M16.4,6.7V5.1c0-0.2-0.1-0.3-0.3-0.3c-0.2,0-0.2,0.1-0.2,0.3v1.5C15.9,6.9,16,7,16.1,7
				C16.3,7,16.4,6.9,16.4,6.7 M15.4,6.6V5.2c0-0.4,0.2-0.8,0.7-0.8c0.5,0,0.7,0.3,0.7,0.8v1.4c0,0.4-0.2,0.8-0.7,0.8
				C15.6,7.4,15.4,7.1,15.4,6.6"/>
			<path class="st45" d="M17.6,4.9v0.9h0.2c0.2,0,0.2-0.1,0.2-0.2V5.1c0-0.2-0.1-0.2-0.2-0.2H17.6z M17.6,6v1.3h-0.5V4.5h0.7
				c0.5,0,0.7,0.2,0.7,0.6v0.4c0,0.3-0.1,0.5-0.4,0.6l0.5,1.3h-0.5L17.6,6z"/>
			<path class="st45" d="M19.5,7c0.2,0,0.3-0.1,0.3-0.3V5.2c0-0.2-0.1-0.3-0.3-0.3h-0.2V7H19.5z M20.2,5.2v1.3
				c0,0.4-0.2,0.8-0.7,0.8h-0.7V4.5h0.7C20,4.5,20.2,4.8,20.2,5.2"/>
		</g>
		<path class="st45" d="M21,6.4h0.4l-0.2-1.2h0L21,6.4z M20.4,7.3l0.5-2.9h0.6L22,7.3h-0.5l-0.1-0.5h-0.5l-0.1,0.5H20.4z"/>
		<g>
			<path class="st45" d="M22.7,6.1V7h0.2c0.2,0,0.2-0.1,0.2-0.2V6.3c0-0.2-0.1-0.2-0.2-0.2H22.7z M22.7,5.7h0.2
				c0.2,0,0.2-0.1,0.2-0.2V5.1c0-0.2-0.1-0.2-0.2-0.2h-0.2V5.7z M22.2,4.5h0.7c0.5,0,0.6,0.2,0.6,0.6v0.3c0,0.2-0.1,0.4-0.3,0.5
				c0.2,0.1,0.4,0.2,0.4,0.5v0.4c0,0.4-0.2,0.6-0.7,0.6h-0.8V4.5z"/>
		</g>
		<polygon class="st45" points="23.9,4.5 24.3,4.5 24.3,7 24.9,7 24.9,7.3 23.9,7.3 		"/>
		<polygon class="st45" points="25.1,4.5 26.3,4.5 26.3,4.9 25.6,4.9 25.6,5.7 26.1,5.7 26.1,6.1 25.6,6.1 25.6,7 26.3,7 26.3,7.3 
			25.1,7.3 		"/>
		<path class="st45" d="M27.8,6.4h0.4L28,5.3h0L27.8,6.4z M27.2,7.3l0.5-2.9h0.6l0.5,2.9h-0.5l-0.1-0.5h-0.5l-0.1,0.5H27.2z"/>
		<polygon class="st45" points="29.4,5.5 29.4,7.3 29,7.3 29,4.5 29.5,4.5 30,6.1 30,4.5 30.4,4.5 30.4,7.3 30,7.3 		"/>
		<g>
			<path class="st45" d="M31.4,7c0.2,0,0.3-0.1,0.3-0.3V5.2c0-0.2-0.1-0.3-0.3-0.3h-0.2V7H31.4z M32.2,5.2v1.3
				c0,0.4-0.2,0.8-0.7,0.8h-0.7V4.5h0.7C32,4.5,32.2,4.8,32.2,5.2"/>
			<path class="st45" d="M11,10.6V9.2c0-0.4,0.2-0.8,0.7-0.8c0.5,0,0.7,0.3,0.7,0.7v0.3H12V9.1c0-0.2-0.1-0.3-0.2-0.3
				c-0.2,0-0.2,0.1-0.2,0.3v1.5c0,0.2,0.1,0.3,0.2,0.3c0.2,0,0.2-0.1,0.2-0.3v-0.5h0.4v0.5c0,0.4-0.2,0.7-0.7,0.7
				C11.2,11.4,11,11.1,11,10.6"/>
		</g>
		<polygon class="st45" points="12.7,8.5 13.1,8.5 13.1,11 13.7,11 13.7,11.4 12.7,11.4 		"/>
		<polygon class="st45" points="13.9,8.5 15.1,8.5 15.1,8.9 14.4,8.9 14.4,9.7 14.9,9.7 14.9,10.1 14.4,10.1 14.4,11 15.1,11 
			15.1,11.4 13.9,11.4 		"/>
		<path class="st45" d="M15.9,10.5h0.4l-0.2-1.2h0L15.9,10.5z M15.3,11.4l0.5-2.9h0.6l0.5,2.9h-0.5l-0.1-0.5h-0.5l-0.1,0.5H15.3z"/>
		<polygon class="st45" points="17.5,9.6 17.5,11.4 17.1,11.4 17.1,8.5 17.6,8.5 18.1,10.2 18.1,8.5 18.5,8.5 18.5,11.4 18.1,11.4 
					"/>
		<polygon class="st45" points="19.5,8.5 20.7,8.5 20.7,8.9 20,8.9 20,9.7 20.5,9.7 20.5,10.1 20,10.1 20,11 20.7,11 20.7,11.4 
			19.5,11.4 		"/>
		<polygon class="st45" points="21.3,9.6 21.3,11.4 20.9,11.4 20.9,8.5 21.4,8.5 21.9,10.2 21.9,8.5 22.3,8.5 22.3,11.4 21.9,11.4 
					"/>
		<polygon class="st45" points="22.6,8.5 23.8,8.5 23.8,8.9 23.1,8.9 23.1,9.7 23.6,9.7 23.6,10.1 23.1,10.1 23.1,11 23.8,11 
			23.8,11.4 22.6,11.4 		"/>
		<g>
			<path class="st45" d="M24.5,8.9v0.9h0.2c0.2,0,0.2-0.1,0.2-0.2V9.1c0-0.2-0.1-0.2-0.2-0.2H24.5z M24.5,10.1v1.3H24V8.5h0.7
				c0.5,0,0.7,0.2,0.7,0.6v0.4c0,0.3-0.1,0.5-0.4,0.6l0.5,1.3H25L24.5,10.1z"/>
			<path class="st45" d="M26.4,9.8h0.7v1.5h-0.3v-0.3c-0.1,0.2-0.2,0.3-0.5,0.3c-0.4,0-0.6-0.3-0.6-0.8V9.2c0-0.4,0.2-0.8,0.7-0.8
				c0.5,0,0.7,0.3,0.7,0.7v0.3h-0.4V9.1c0-0.2-0.1-0.3-0.2-0.3c-0.2,0-0.3,0.1-0.3,0.3v1.5c0,0.2,0.1,0.3,0.2,0.3
				c0.2,0,0.2-0.1,0.2-0.3v-0.5h-0.2V9.8z"/>
		</g>
		<polygon class="st45" points="28.2,10.3 28.2,11.4 27.7,11.4 27.7,10.3 27.2,8.5 27.7,8.5 28,9.6 28,9.6 28.2,8.5 28.7,8.5 		"/>
	</g>
</g>
<g id="texture" class="st49">
</g>
</svg>
