<?xml version="1.0" encoding="utf-8"?>
<!-- Generator: Adobe Illustrator 22.0.1, SVG Export Plug-In . SVG Version: 6.00 Build 0)  -->
<svg version="1.1" xmlns="http://www.w3.org/2000/svg" xmlns:xlink="http://www.w3.org/1999/xlink" x="0px" y="0px"
	 viewBox="0 0 36.7 37.3" style="enable-background:new 0 0 36.7 37.3;" xml:space="preserve">
<style type="text/css">
	.st0{fill:#3A3B51;}
	.st1{fill:#FFFFFF;}
	.st2{fill:none;stroke:#000000;stroke-miterlimit:10;}
	.st3{fill:#666666;}
	.st4{opacity:0.5;}
	.st5{fill:none;stroke:#F5847F;stroke-width:2;stroke-miterlimit:10;}
	.st6{opacity:0.3;fill:none;stroke:#F5847F;stroke-miterlimit:10;}
	.st7{fill:#FFFFFF;stroke:#F5847F;stroke-width:2;stroke-miterlimit:10;}
	.st8{opacity:0.3;fill:#FFFFFF;stroke:#F5847F;stroke-miterlimit:10;}
	.st9{fill:#4D4D4D;}
	.st10{fill:#B3B3B3;}
	.st11{fill:#FFFFFF;stroke:#4A7178;stroke-width:2;stroke-miterlimit:10;}
	.st12{fill:none;stroke:#999999;stroke-linecap:round;stroke-miterlimit:10;stroke-dasharray:0.1,2;}
	.st13{fill:#ED1C24;}
	.st14{opacity:0.25;fill:none;stroke:#F5847F;stroke-miterlimit:10;stroke-dasharray:3,1;}
	.st15{fill:#428F82;}
	.st16{fill:none;stroke:#666666;stroke-miterlimit:10;}
	.st17{fill:none;stroke:#666666;stroke-width:0.5;stroke-miterlimit:10;}
	.st18{fill:none;stroke:#666666;stroke-width:2;stroke-miterlimit:10;}
	.st19{fill:#FFFFFF;stroke:url(#SVGID_1_);stroke-miterlimit:10;}
	.st20{fill:#E6E6E6;}
	.st21{fill:none;stroke:#808080;stroke-miterlimit:10;}
	.st22{fill:#F5847F;}
	.st23{fill:#4A7178;}
	.st24{fill:#F1CF8B;}
	.st25{fill:#F2B98D;}
	.st26{fill:#82F4D3;}
	.st27{fill:#4A5077;}
	.st28{fill:#8EEF8F;}
	.st29{fill:#2585C6;}
	.st30{fill:#F1B447;}
	.st31{fill:#EEA966;}
	.st32{fill:#925BA7;}
	.st33{fill:#C7A3D8;}
	.st34{fill:none;stroke:#E6E6E6;stroke-width:0.5;stroke-miterlimit:10;}
	.st35{opacity:0.5;fill:#FFFFFF;}
	.st36{fill:none;stroke:#E6E6E6;stroke-width:2;stroke-miterlimit:10;}
	.st37{opacity:0.7;fill:#82F4D3;}
	.st38{fill:none;stroke:#FFFFFF;stroke-width:0.5;stroke-miterlimit:10;}
	.st39{fill:none;stroke:#FFFFFF;stroke-width:3;stroke-miterlimit:10;}
	.st40{fill:none;stroke:#F5847F;stroke-width:3;stroke-miterlimit:10;}
	.st41{fill:none;stroke:#82F4D3;stroke-width:3;stroke-miterlimit:10;}
	.st42{fill:#034EA2;}
	.st43{fill:#FFCC02;}
	.st44{fill:none;stroke:#FFFFFF;stroke-width:4;stroke-miterlimit:10;}
	.st45{fill:none;stroke:#3A3B51;stroke-width:4;stroke-miterlimit:10;}
	.st46{fill:none;stroke:#FCB614;stroke-miterlimit:10;}
	.st47{fill:#FCB614;}
	.st48{fill:none;stroke:#48773C;stroke-width:1.5;stroke-miterlimit:10;}
	.st49{fill:#48773C;}
	.st50{fill:none;stroke:#48773C;stroke-miterlimit:10;}
	.st51{display:none;}
	.st52{display:inline;opacity:0.3;fill:url(#);}
	.st53{display:inline;}
	.st54{opacity:0.3;fill:url(#);}
</style>
<g id="bg">
</g>
<g id="Layer_1">
	<g>
		
			<rect x="1.4" y="1.7" transform="matrix(1.369934e-03 -1 1 1.369934e-03 -0.3584 36.9744)" class="st50" width="33.9" height="33.9"/>
		<path class="st49" d="M23.7,24.2c-0.1,0-0.7-0.9-0.3-1.4c0.1-0.1-0.2-0.3-0.1-0.4c0.3,0,0.4,0.1,0.5,0.4c0,0.1,0,0.2,0,0.3
			C23.9,23.5,23.8,23.9,23.7,24.2 M22.3,26.9c-0.1,0-0.1,0-0.2-0.1c-0.3-0.1-0.3,0.1-0.4,0c-0.1-0.1,0.2-0.4-0.3-0.1
			c-0.4,0.3-0.3,0-0.5-0.5c-0.2-0.5,0.2-1,0.5-1.1c0.5-0.2,0.7-0.2,1-0.3c0.6-0.2,0.8-0.5,0.9-0.3c0,0,0,0.1,0.1,0.1
			c0,0.1,0.1,0.2,0.1,0.3C23.2,25.7,22.8,26.4,22.3,26.9 M18.6,28.4c-0.5,0-1-0.1-1.5-0.2C17,28.1,17,28,17,27.9
			c0.2-0.4,0.6-0.6,1-0.6c0.9-0.1,2,0.6,2.2,0.5c0.2-0.1,0.5-0.6,1.1-0.6c0.4,0,0.4,0.1,0.5,0.1C20.9,28,19.8,28.4,18.6,28.4
			 M17.9,25c-0.1,0.1-0.3,1-0.4,0.9c-0.1-0.1,0.1-1,0.1-1.1C17.8,24.4,18.2,24.4,17.9,25 M20,23.9c-0.1,0.1-0.4,0.1-0.5,0
			c-0.1-0.1,0.1-0.3,0.2-0.3C19.9,23.6,20.1,23.8,20,23.9 M22.3,23.9c-0.1,0-0.1-0.1-0.1-0.2c0-0.1,0.1-0.2,0.2-0.2
			c0.1,0.1,0.2,0.2,0.2,0.3C22.6,24,22.4,24,22.3,23.9 M22.6,24.1c0.2,0,0.4,0.2,0.3,0.3c-0.1,0.1-0.4,0.1-0.5,0
			C22.3,24.3,22.5,24.1,22.6,24.1 M16.9,26.2c-0.1,0.4-0.2,0.5-0.3,0.7c-0.1,0.1-0.5,0.3-0.7,0.3c-0.2,0-0.3-0.7-0.3-1
			c0-0.1-0.2,0.2-0.2-0.5c-0.1-0.4-0.3,0-0.4-0.2c0-0.3-0.2-0.2-0.3-0.4c-0.1-0.2-0.3,0-0.5,0.1c-0.2,0.1-0.1,0.1-0.4,0c0,0,0,0,0,0
			c-0.3-0.6-0.4-1.3-0.4-2.1c0-0.2,0-0.4,0-0.5c0,0,0,0,0,0c0.3-0.3,0.3-0.4,0.3-0.4L14,22c0,0,0.5,0.1,0.9,0.2
			c0.3,0.1,0.8,0.4,1.1,0.3c0.2-0.1,0.4-0.2,0.3-0.4c0-0.2-0.2-0.3-0.4-0.1c-0.1,0.1-0.2-0.3-0.4-0.3s0.2,0.4,0,0.5
			c-0.1,0-0.3-0.4-0.4-0.5c0-0.1-0.2-0.3-0.3-0.1c-0.3,0.3-0.8,0.3-0.9,0.4c-0.3,0.2-0.4-0.1-0.4-0.3c0,0,0-0.1,0-0.1
			c0.1-0.1,0.5-0.1,0.6-0.1c0.1,0.1,0.2,0,0.3-0.1c0.1-0.1,0-0.1,0-0.2c0-0.1,0.1-0.1,0.1-0.1c0.1,0,0.3-0.2,0.4-0.2
			c0.1-0.1,0.6-0.1,0.8,0c0.2,0.1,0.4,0,0.5-0.1c0.1-0.2,0.3-0.3,0.4-0.3c0.1,0-0.2-0.3-0.4,0c-0.2,0.3-0.3,0.3-0.4,0.3
			c-0.1,0-0.7-0.2-0.8-0.3c-0.1-0.2,0.2-0.3,0.4-0.4c0.2-0.1,0.8-0.1,1-0.1c0.3-0.1,0.7-0.2,0.9-0.1c0.2,0.1-0.9,0.4-0.5,0.6
			c0.1,0.1,0.7-0.3,0.9-0.4c0.5-0.2-0.4-0.3-0.3-0.8c0.1-0.5-1.1-0.3-1.7-0.3c0.8-0.5,1.8-0.8,2.8-0.8c2.5,0,4.6,1.7,5.1,4
			c0,0.1,0,0.2,0,0.2c0,0.2-0.4,0.4-0.6,0c-0.1-0.1-0.3-0.3-0.3,0.1s0.4,0.4,0,0.6c-0.3,0.2-0.4,0.2-0.6,0.2
			c-0.2,0.1-0.3,0.4-0.3,0.6c0,0.2,0.5,0.8,0.2,0.7c-0.1,0-0.7-0.4-0.8-0.7c-0.1-0.3-0.2-0.6-0.3-0.8c-0.1-0.2-0.3-0.3-0.5-0.1
			c-0.2,0.1,0.1,0.3-0.1,0.5c-0.1,0.3-0.2,0.5-0.4,0.3c-0.5-0.6-1.3-0.3-1.4-1c-0.1-0.4-0.4-0.3-0.6-0.5c-0.3-0.2-0.4-0.3-0.4-0.2
			c0,0.1,0.8,0.8,0.9,1c0.1,0.3-0.3,0.5-0.5,0.5c-0.2,0.1-0.4-0.1-0.6-0.4c-0.2-0.3-0.4-0.4-0.4-0.2c0,0.3,0.2,0.7,0.5,0.9
			c0.2,0.1,0.5,0.2,0.4,0.4c-0.1,0.2,0,0.1-0.2,0.3c-0.2,0.2-0.3,0.3-0.3,0.6c0,0.3-0.1,0.3-0.1,0.6C17.1,26,17,25.8,16.9,26.2
			 M14.1,20.4C14.1,20.4,14.1,20.4,14.1,20.4c0.1-0.1,0.3-0.2,0.4-0.2c0.1,0,0.3,0,0.3,0.1c0,0.1-0.3,0.2-0.4,0.3
			c-0.2,0.2-0.5,0.5-0.6,0.5c-0.1,0-0.1,0-0.1,0C13.8,20.9,13.9,20.6,14.1,20.4 M14.4,19.9c0.1-0.1,0.3-0.4,0.3-0.4
			c0.1-0.1,0.2-0.1,0.3-0.1c0.1,0,0.2,0,0.2,0.1c0,0.1,0,0.3-0.1,0.3C15,19.9,14.7,20,14.5,20C14.4,20,14.3,19.9,14.4,19.9 M31.1,23
			c-0.9-1.3-5-6.3-12.5-6.3C11,16.7,7,21.7,6.1,23C6,23,6,23.1,6,23.1c0,0,0.1,0.1,0.1,0.1c0.9,1.3,5,6.3,12.5,6.3
			c7.6,0,11.6-5,12.5-6.3c0-0.1,0.1-0.1,0.1-0.1C31.2,23.1,31.1,23,31.1,23"/>
		<polygon class="st49" points="5.6,4.4 5.6,11.3 4.4,11.3 4.4,6.1 4.4,6.1 3.6,6.9 3.6,6.9 3.6,5.7 4.7,4.4 		"/>
		<g>
			<path class="st49" d="M9.4,5.9l0,0.6c0,0.6-0.3,1-0.8,1.1c0.6,0.1,0.9,0.5,0.8,1.2l0,1c0,1-0.5,1.6-1.7,1.6
				c-1.2,0-1.6-0.7-1.6-1.7l0-0.9l1.1,0l0,1c0,0.4,0.1,0.7,0.5,0.7c0.4,0,0.5-0.3,0.5-0.6l0-1.1c0-0.4-0.2-0.6-0.6-0.6l-0.5,0l0-0.9
				l0.4,0c0.4,0,0.6-0.2,0.6-0.6l0-0.7c0-0.4-0.1-0.6-0.5-0.6C7.5,5.3,7.3,5.6,7.3,6l0,0.7l-1.1,0l0-0.6c0-1,0.4-1.7,1.6-1.7
				C8.9,4.4,9.4,5,9.4,5.9"/>
			<path class="st49" d="M11.8,6.6l0-1.4c0-0.4,0.2-0.8,0.7-0.8c0.5,0,0.7,0.3,0.7,0.7l0,0.3l-0.4,0l0-0.4c0-0.2-0.1-0.3-0.2-0.3
				c-0.2,0-0.2,0.1-0.2,0.3l0,1.5c0,0.2,0.1,0.3,0.2,0.3c0.2,0,0.2-0.1,0.2-0.3l0-0.5l0.4,0l0,0.5c0,0.4-0.2,0.7-0.7,0.7
				C12,7.3,11.8,7,11.8,6.6"/>
		</g>
		<polygon class="st49" points="13.5,4.4 14,4.4 14,6.9 14.5,6.9 14.5,7.3 13.5,7.3 		"/>
		
			<rect x="13.6" y="5.6" transform="matrix(1.535239e-03 -1 1 1.535239e-03 9.1115 20.8662)" class="st49" width="2.9" height="0.5"/>
		<polygon class="st49" points="16.9,5.4 16.8,5.4 16.5,7.3 16.3,7.3 15.9,5.4 15.9,5.4 15.9,7.3 15.5,7.3 15.5,4.4 16.1,4.4 
			16.4,6.1 16.4,6.1 16.7,4.4 17.3,4.4 17.3,7.3 16.9,7.3 		"/>
		<path class="st49" d="M18.1,6.4l0.4,0l-0.2-1.2h0L18.1,6.4z M17.5,7.3L18,4.4l0.6,0l0.5,2.9l-0.5,0l-0.1-0.5l-0.5,0L18,7.3
			L17.5,7.3z"/>
		<polygon class="st49" points="19.1,4.4 20.4,4.4 20.4,4.8 20,4.8 20,7.3 19.5,7.3 19.5,4.8 19.1,4.8 		"/>
		<polygon class="st49" points="20.6,4.4 21.7,4.4 21.7,4.8 21.1,4.8 21.1,5.7 21.5,5.7 21.5,6 21.1,6 21.1,6.9 21.7,6.9 21.7,7.3 
			20.6,7.3 		"/>
		<path class="st49" d="M12.3,10.4l0.4,0l-0.2-1.2h0L12.3,10.4z M11.7,11.3l0.5-2.9l0.6,0l0.5,2.9l-0.5,0l-0.1-0.5l-0.5,0l-0.1,0.5
			L11.7,11.3z"/>
		<g>
			<path class="st49" d="M13.5,10.6l0-1.4c0-0.4,0.2-0.8,0.7-0.8c0.5,0,0.7,0.3,0.7,0.7l0,0.3l-0.4,0l0-0.4c0-0.2-0.1-0.3-0.2-0.3
				C14.1,8.8,14,9,14,9.1l0,1.5c0,0.2,0.1,0.3,0.2,0.3c0.2,0,0.2-0.1,0.2-0.3l0-0.5h0.4l0,0.5c0,0.4-0.2,0.7-0.7,0.7
				C13.7,11.4,13.5,11,13.5,10.6"/>
		</g>
		<polygon class="st49" points="15.1,8.5 16.4,8.5 16.4,8.9 16,8.9 16,11.3 15.5,11.3 15.5,8.9 15.1,8.9 		"/>
		
			<rect x="15.4" y="9.7" transform="matrix(1.535239e-03 -1 1 1.535239e-03 6.904 26.7178)" class="st49" width="2.9" height="0.5"/>
		<g>
			<path class="st49" d="M18.3,10.7l0-1.5c0-0.2-0.1-0.3-0.3-0.3c-0.2,0-0.2,0.1-0.2,0.3l0,1.5c0,0.2,0.1,0.3,0.2,0.3
				C18.3,11,18.3,10.8,18.3,10.7 M17.4,10.6l0-1.4c0-0.4,0.2-0.8,0.7-0.8c0.5,0,0.7,0.3,0.7,0.8l0,1.4c0,0.4-0.2,0.8-0.7,0.8
				C17.6,11.4,17.4,11,17.4,10.6"/>
		</g>
		<polygon class="st49" points="19.5,9.5 19.5,11.3 19.1,11.3 19.1,8.5 19.6,8.5 20.1,10.1 20.1,8.5 20.5,8.5 20.5,11.3 20.1,11.3 
					"/>
	</g>
</g>
<g id="texture" class="st51">
</g>
</svg>
